<svg width="42" height="42" viewBox="0 0 42 42" fill="none" xmlns="http://www.w3.org/2000/svg">
<g clip-path="url(#clip0_290_1323)">
<path d="M19.6782 18.3563C20.4073 19.0867 21.5915 19.0867 22.3218 18.3563L29.5925 11.0868C30.3217 10.3565 30.3217 9.1735 29.5925 8.44317L22.3218 1.17367C21.5927 0.443332 20.4085 0.443332 19.6782 1.17367L12.4075 8.44317C11.6772 9.1735 11.6772 10.3565 12.4075 11.0868L19.6782 18.3563ZM30.9143 29.5913C31.6435 30.3217 32.8277 30.3217 33.558 29.5913L40.8287 22.3218C41.5578 21.5915 41.5578 20.4085 40.8287 19.6782L33.558 12.4087C32.8288 11.6783 31.6447 11.6783 30.9143 12.4087L23.6437 19.6782C22.9133 20.4085 22.9133 21.5915 23.6437 22.3218L30.9143 29.5913ZM29.5913 30.9143L22.3218 23.6437C21.5915 22.9133 20.4085 22.9133 19.6782 23.6437L12.4087 30.9143C11.6783 31.6447 11.6783 32.8265 12.4087 33.5568L19.6782 40.8275C20.4085 41.5567 21.5915 41.5567 22.3218 40.8275L29.5913 33.5568C30.3217 32.8265 30.3217 31.6447 29.5913 30.9143ZM18.3563 19.6793L11.0868 12.4087C10.3565 11.6783 9.1735 11.6783 8.44317 12.4087L1.17367 19.6793C0.443332 20.4097 0.443332 21.5915 1.17367 22.3218L8.44317 29.5925C9.1735 30.3217 10.3565 30.3217 11.0868 29.5925L18.3563 22.3218C19.0867 21.5915 19.0867 20.4097 18.3563 19.6793Z" fill="#55ACEE"/>
<path d="M18.3563 19.6793L14.6066 15.9285C13.4995 17.3226 12.8333 19.082 12.8333 21C12.8333 22.918 13.4995 24.6785 14.6066 26.0715L18.3563 22.3218C19.0866 21.5915 19.0866 20.4096 18.3563 19.6793ZM26.0726 27.3933L22.3218 23.6425C21.5926 22.9145 20.4085 22.9145 19.6781 23.6425L15.9273 27.3933C17.3215 28.5005 19.082 29.1666 21 29.1666C22.918 29.1666 24.6785 28.5005 26.0726 27.3933ZM23.6436 22.3218L27.3945 26.0726C28.5005 24.6785 29.1666 22.918 29.1666 21C29.1666 19.082 28.5005 17.3215 27.3933 15.9285L23.6425 19.6793C22.9145 20.4096 22.9145 21.5915 23.6436 22.3218ZM22.3218 18.3563L26.0726 14.6066C24.6785 13.4995 22.918 12.8333 21 12.8333C19.082 12.8333 17.3215 13.4995 15.9285 14.6066L19.6793 18.3563C20.4085 19.0866 21.5915 19.0866 22.3218 18.3563Z" fill="#3B88C3"/>
<path d="M21 26.8334C24.2217 26.8334 26.8334 24.2217 26.8334 21C26.8334 17.7784 24.2217 15.1667 21 15.1667C17.7784 15.1667 15.1667 17.7784 15.1667 21C15.1667 24.2217 17.7784 26.8334 21 26.8334Z" fill="#BBDDF5"/>
<path d="M21 26.8334C24.2217 26.8334 26.8334 24.2217 26.8334 21C26.8334 17.7784 24.2217 15.1667 21 15.1667C17.7784 15.1667 15.1667 17.7784 15.1667 21C15.1667 24.2217 17.7784 26.8334 21 26.8334Z" fill="#E9F5BB"/>
</g>
<defs>
<clipPath id="clip0_290_1323">
<rect width="42" height="42" fill="white"/>
</clipPath>
</defs>
</svg>
