<svg width="178" height="43" viewBox="0 0 178 43" fill="none" xmlns="http://www.w3.org/2000/svg">
<mask id="mask0_499_851" style="mask-type:luminance" maskUnits="userSpaceOnUse" x="0" y="0" width="42" height="43">
<path d="M42 0H0V43H42V0Z" fill="white"/>
</mask>
<g mask="url(#mask0_499_851)">
<path d="M19.6783 18.7934C20.4074 19.5412 21.5916 19.5412 22.3219 18.7934L29.5926 11.3508C30.3218 10.6031 30.3218 9.39197 29.5926 8.64425L22.3219 1.20166C21.5928 0.453937 20.4086 0.453937 19.6783 1.20166L12.4076 8.64425C11.6773 9.39197 11.6773 10.6031 12.4076 11.3508L19.6783 18.7934ZM30.9144 30.2959C31.6436 31.0437 32.8278 31.0437 33.5581 30.2959L40.8288 22.8533C41.5579 22.1056 41.5579 20.8945 40.8288 20.1468L33.5581 12.7042C32.8289 11.9564 31.6448 11.9564 30.9144 12.7042L23.6438 20.1468C22.9134 20.8945 22.9134 22.1056 23.6438 22.8533L30.9144 30.2959ZM29.5914 31.6504L22.3219 24.2067C21.5916 23.4589 20.4086 23.4589 19.6783 24.2067L12.4088 31.6504C11.6784 32.3982 11.6784 33.6081 12.4088 34.3558L19.6783 41.7996C20.4086 42.5462 21.5916 42.5462 22.3219 41.7996L29.5914 34.3558C30.3218 33.6081 30.3218 32.3982 29.5914 31.6504ZM18.3564 20.1479L11.0869 12.7042C10.3566 11.9564 9.17356 11.9564 8.44323 12.7042L1.17373 20.1479C0.443392 20.8957 0.443392 22.1056 1.17373 22.8533L8.44323 30.2971C9.17356 31.0437 10.3566 31.0437 11.0869 30.2971L18.3564 22.8533C19.0868 22.1056 19.0868 20.8957 18.3564 20.1479Z" fill="#55ACEE"/>
<path d="M18.3563 20.1479L14.6066 16.3078C13.4995 17.7351 12.8333 19.5364 12.8333 21.5001C12.8333 23.4637 13.4995 25.2661 14.6066 26.6923L18.3563 22.8533C19.0866 22.1056 19.0866 20.8956 18.3563 20.1479ZM26.0726 28.0456L22.3218 24.2055C21.5926 23.4601 20.4085 23.4601 19.6781 24.2055L15.9273 28.0456C17.3215 29.1791 19.082 29.8611 21 29.8611C22.918 29.8611 24.6785 29.1791 26.0726 28.0456ZM23.6436 22.8533L27.3945 26.6934C28.5005 25.2661 29.1666 23.4637 29.1666 21.5001C29.1666 19.5364 28.5005 17.734 27.3933 16.3078L23.6425 20.1479C22.9145 20.8956 22.9145 22.1056 23.6436 22.8533ZM22.3218 18.7934L26.0726 14.9544C24.6785 13.821 22.918 13.1389 21 13.1389C19.082 13.1389 17.3215 13.821 15.9285 14.9544L19.6793 18.7934C20.4085 19.5411 21.5915 19.5411 22.3218 18.7934Z" fill="#3B88C3"/>
<path d="M21 27.4723C24.2217 27.4723 26.8334 24.7984 26.8334 21.5C26.8334 18.2017 24.2217 15.5278 21 15.5278C17.7784 15.5278 15.1667 18.2017 15.1667 21.5C15.1667 24.7984 17.7784 27.4723 21 27.4723Z" fill="#BBDDF5"/>
</g>
<path d="M173.842 21.7375C171.543 21.7375 170.27 20.2591 170.27 17.3024V13.0618H168.712C168.541 13.0618 168.446 12.9451 168.446 12.7894V10.8831C168.446 10.708 168.541 10.6108 168.712 10.6108H170.27V7.67346C170.27 7.51784 170.365 7.40112 170.536 7.40112H172.683C172.835 7.40112 172.949 7.51784 172.949 7.67346V10.6108H175.476C175.647 10.6108 175.742 10.708 175.742 10.8831V12.7894C175.742 12.9451 175.647 13.0618 175.476 13.0618H172.949V17.4775C172.949 18.6641 173.31 19.2476 174.146 19.2476C174.488 19.2476 174.735 19.092 174.944 18.7224C175.02 18.5668 175.153 18.5084 175.305 18.5862L176.92 19.3254C177.015 19.3838 177.072 19.4616 177.072 19.5589C177.072 19.6172 177.053 19.695 176.996 19.7728C176.236 21.2123 175.058 21.7375 173.842 21.7375Z" fill="#FBEEEA"/>
<path d="M162.651 21.7375C159.288 21.7375 157.179 19.4226 157.179 16.0768C157.179 12.7116 159.307 10.3967 162.632 10.3967C165.026 10.3967 166.698 11.4083 167.477 13.5675C167.496 13.6064 167.496 13.6453 167.496 13.6647C167.496 13.7814 167.42 13.8787 167.287 13.9176L165.52 14.4428L165.425 14.4623C165.33 14.4623 165.235 14.3845 165.159 14.2678C164.684 13.3535 163.905 12.8866 162.803 12.8866C160.865 12.8866 159.934 14.3456 159.934 16.0768C159.934 17.7886 160.865 19.2476 162.803 19.2476C163.905 19.2476 164.741 18.7613 165.178 17.7886C165.273 17.6525 165.387 17.5747 165.539 17.633L167.496 18.1193C167.648 18.1582 167.724 18.2749 167.648 18.45C166.812 20.7065 165.007 21.7375 162.651 21.7375Z" fill="#FBEEEA"/>
<path d="M150.774 21.7375C147.411 21.7375 145.378 19.3837 145.378 16.0768C145.378 12.7505 147.411 10.3967 150.774 10.3967C154.042 10.3967 155.923 12.8866 155.809 16.6409C155.79 16.816 155.695 16.9133 155.524 16.9133H148.228C148.475 18.4111 149.368 19.3059 150.793 19.3059C151.876 19.3059 152.636 18.8974 153.13 18.061C153.225 17.9248 153.339 17.9053 153.491 17.9443L155.315 18.5862C155.486 18.664 155.543 18.7807 155.467 18.9558C154.517 20.8621 152.75 21.7375 150.774 21.7375ZM152.959 14.8708C152.712 13.5869 151.895 12.8283 150.755 12.8283C149.501 12.8283 148.589 13.5675 148.266 14.8708H152.959Z" fill="#FBEEEA"/>
<path d="M141.861 8.66555C140.968 8.66555 140.303 8.06253 140.303 7.14827C140.303 6.25346 140.968 5.63098 141.861 5.63098C142.754 5.63098 143.419 6.25346 143.419 7.14827C143.419 8.06253 142.754 8.66555 141.861 8.66555ZM138.134 24.9655C138.134 24.9655 137.896 24.986 137.797 24.7834C137.698 24.5809 137.617 23.2906 137.617 23.2906C137.617 23.2906 137.594 23.2102 137.695 23.1099C137.796 23.0094 137.873 22.9964 137.873 22.9964C137.873 22.9964 138.063 22.9397 138.373 22.8978C138.373 22.8978 139.418 22.7536 139.945 22.3229C140.471 21.8923 140.564 21.3744 140.564 20.4877C140.564 19.601 140.531 10.8831 140.531 10.8831C140.531 10.7081 140.626 10.6108 140.797 10.6108H142.925C143.096 10.6108 143.191 10.7081 143.191 10.8831V21.0671C143.191 22.0845 143.012 22.7009 142.552 23.2906C142.04 23.949 141.324 24.259 140.797 24.5036C139.766 24.9817 138.371 24.9655 138.134 24.9655Z" fill="#FBEEEA"/>
<path d="M132.708 21.7375C129.288 21.7375 127.065 19.3837 127.065 16.0768C127.065 12.7505 129.288 10.3967 132.708 10.3967C136.128 10.3967 138.351 12.7505 138.351 16.0768C138.351 19.3837 136.128 21.7375 132.708 21.7375ZM129.82 16.0768C129.82 17.9443 130.998 19.2476 132.708 19.2476C134.418 19.2476 135.596 17.9443 135.596 16.0768C135.596 14.1899 134.418 12.8866 132.708 12.8866C130.998 12.8866 129.82 14.1899 129.82 16.0768Z" fill="#FBEEEA"/>
<path d="M119.59 21.5236C119.419 21.5236 119.324 21.4263 119.324 21.2513V10.8832C119.324 10.7081 119.419 10.6108 119.59 10.6108H121.528C121.68 10.6108 121.813 10.6886 121.813 10.8832L121.87 12.2448C122.592 11.0777 123.846 10.4552 125.119 10.4552C125.423 10.4552 125.632 10.4941 125.841 10.533C126.012 10.5719 126.069 10.6692 126.069 10.8248V12.984C126.069 13.1591 125.974 13.2174 125.841 13.2174C125.556 13.2174 125.233 13.1396 124.796 13.1396C123.352 13.1396 121.984 14.1512 121.984 15.8824V21.2513C121.984 21.4263 121.889 21.5236 121.718 21.5236H119.59Z" fill="#FBEEEA"/>
<path d="M106.459 21.5236C106.288 21.5236 106.193 21.4263 106.193 21.2512V6.33129C106.193 6.15622 106.288 6.05896 106.459 6.05896H111.019C114.99 6.05896 117.004 8.0431 117.004 11.4472C117.004 14.8709 114.99 16.855 111.019 16.855H108.967V21.2512C108.967 21.4263 108.853 21.5236 108.701 21.5236H106.459ZM110.924 14.2095C112.976 14.2095 114.135 13.3536 114.135 11.3889C114.135 9.56039 112.976 8.68503 110.924 8.68503H108.967V14.2095H110.924Z" fill="#FBEEEA"/>
<path d="M94.1396 21.7375C91.8216 21.7375 90.1876 20.7259 89.5036 18.8196C89.4846 18.7807 89.4846 18.7613 89.4846 18.7223C89.4846 18.6056 89.5606 18.5278 89.6936 18.4889L91.5746 17.9637L91.6506 17.9443C91.7646 17.9443 91.8596 18.0221 91.8976 18.1388C92.3916 19.0141 93.1326 19.3059 94.0446 19.3059C94.9376 19.3059 95.6026 19.1308 95.6026 18.5084C95.6026 18.0415 95.1466 17.7886 94.0256 17.4579L93.5126 17.3023C90.9476 16.5631 89.9596 15.2793 89.9596 13.6064C89.9596 11.7389 91.6126 10.3967 94.0256 10.3967C96.0776 10.3967 97.5406 11.2915 98.1866 13.1395C98.2056 13.1784 98.2246 13.2368 98.2246 13.2757C98.2246 13.3729 98.1486 13.4508 98.0346 13.4702L96.1536 14.0927C96.1156 14.1121 96.0776 14.1121 96.0396 14.1121C95.9446 14.1121 95.8686 14.0538 95.8116 13.9371C95.4316 13.2562 94.8806 12.8283 93.9686 12.8283C93.2846 12.8283 92.7146 13.0423 92.7146 13.6064C92.7146 14.1121 93.1896 14.4039 94.3676 14.6957L94.8616 14.8319C97.4836 15.4933 98.3576 16.6409 98.3576 18.45C98.3576 20.4536 96.5906 21.7375 94.1396 21.7375Z" fill="#FBEEEA"/>
<path d="M86.1771 8.66555C85.2841 8.66555 84.6191 8.06253 84.6191 7.14827C84.6191 6.25346 85.2841 5.63098 86.1771 5.63098C87.0701 5.63098 87.7351 6.25346 87.7351 7.14827C87.7351 8.06253 87.0701 8.66555 86.1771 8.66555ZM84.8471 10.8831C84.8471 10.7081 84.9421 10.6108 85.1131 10.6108H87.2411C87.4121 10.6108 87.5071 10.7081 87.5071 10.8831V21.2512C87.5071 21.4263 87.4121 21.5236 87.2411 21.5236H85.1131C84.9421 21.5236 84.8471 21.4263 84.8471 21.2512V10.8831Z" fill="#FBEEEA"/>
<path d="M76.7744 21.5235C76.6414 21.5235 76.5274 21.4457 76.4704 21.3095L71.9294 10.922C71.9104 10.8831 71.8914 10.8247 71.8914 10.7858C71.8914 10.6885 71.9864 10.6107 72.1384 10.6107H74.6844C74.8364 10.6107 74.9314 10.6691 74.9884 10.8247L77.5344 17.458L80.0994 10.8247C80.1564 10.6691 80.2514 10.6107 80.4034 10.6107H82.7974C82.9874 10.6107 83.0824 10.7469 82.9874 10.922L78.4464 21.3095C78.3894 21.4457 78.2754 21.5235 78.1424 21.5235H76.7744Z" fill="#FBEEEA"/>
<path d="M68.7357 8.66555C67.8427 8.66555 67.1777 8.06253 67.1777 7.14827C67.1777 6.25346 67.8427 5.63098 68.7357 5.63098C69.6287 5.63098 70.2937 6.25346 70.2937 7.14827C70.2937 8.06253 69.6287 8.66555 68.7357 8.66555ZM67.4057 10.8831C67.4057 10.7081 67.5007 10.6108 67.6717 10.6108H69.7997C69.9707 10.6108 70.0657 10.7081 70.0657 10.8831V21.2512C70.0657 21.4263 69.9707 21.5236 69.7997 21.5236H67.6717C67.5007 21.5236 67.4057 21.4263 67.4057 21.2512V10.8831Z" fill="#FBEEEA"/>
<path d="M51.1716 21.5236C50.9816 21.5236 50.8676 21.4069 50.9626 21.2123L56.9856 6.27294C57.0426 6.11732 57.1566 6.05896 57.2896 6.05896H59.2086C59.3606 6.05896 59.4556 6.11732 59.5126 6.27294L65.5546 21.2123C65.5736 21.2512 65.5736 21.2901 65.5736 21.329C65.5736 21.4458 65.4976 21.5236 65.3456 21.5236H62.7426C62.6096 21.5236 62.4956 21.4652 62.4386 21.3096L61.3746 18.4306H55.1046L54.0216 21.3096C53.9646 21.4652 53.8696 21.5236 53.7176 21.5236H51.1716ZM56.0546 15.7851H60.3866L58.2206 9.92998L56.0546 15.7851Z" fill="#FBEEEA"/>
<path d="M55.4242 36.55C55.3392 36.55 55.2882 36.4978 55.3307 36.4108L58.0252 29.7274C58.0507 29.6577 58.1017 29.6316 58.1612 29.6316H59.0197C59.0877 29.6316 59.1302 29.6577 59.1557 29.7274L61.8587 36.4108C61.8672 36.4282 61.8672 36.4456 61.8672 36.463C61.8672 36.5152 61.8332 36.55 61.7652 36.55H60.6007C60.5412 36.55 60.4902 36.5239 60.4647 36.4543L59.9887 35.1664H57.1837L56.6992 36.4543C56.6737 36.5239 56.6312 36.55 56.5632 36.55H55.4242ZM57.6087 33.9828H59.5467L58.5777 31.3634L57.6087 33.9828ZM62.9164 36.55C62.8399 36.55 62.7974 36.5065 62.7974 36.4282V29.7535C62.7974 29.6751 62.8399 29.6316 62.9164 29.6316H63.9194C63.9874 29.6316 64.0384 29.6751 64.0384 29.7535V36.4282C64.0384 36.5065 63.9874 36.55 63.9194 36.55H62.9164ZM70.6859 36.55C70.6179 36.55 70.5754 36.5239 70.5499 36.4543L67.9064 29.7709C67.8979 29.7535 67.8894 29.7361 67.8894 29.7187C67.8894 29.6664 67.9319 29.6316 67.9999 29.6316H69.1559C69.2239 29.6316 69.2749 29.6577 69.2919 29.7274L71.1279 34.7834L72.9469 29.7274C72.9639 29.6577 73.0234 29.6316 73.0914 29.6316H74.2304C74.3154 29.6316 74.3579 29.6926 74.3239 29.7709L71.6804 36.4543C71.6549 36.5239 71.6039 36.55 71.5444 36.55H70.6859ZM76.6599 36.6458C75.1299 36.6458 74.1354 35.5928 74.1354 34.1134C74.1354 32.6253 75.1299 31.5723 76.6599 31.5723C78.1899 31.5723 79.1844 32.6253 79.1844 34.1134C79.1844 35.5928 78.1899 36.6458 76.6599 36.6458ZM75.3679 34.1134C75.3679 34.9488 75.8949 35.5319 76.6599 35.5319C77.4249 35.5319 77.9519 34.9488 77.9519 34.1134C77.9519 33.2692 77.4249 32.6862 76.6599 32.6862C75.8949 32.6862 75.3679 33.2692 75.3679 34.1134ZM80.755 30.7978C80.3555 30.7978 80.058 30.528 80.058 30.119C80.058 29.7187 80.3555 29.4402 80.755 29.4402C81.1545 29.4402 81.452 29.7187 81.452 30.119C81.452 30.528 81.1545 30.7978 80.755 30.7978ZM80.16 31.7898C80.16 31.7115 80.2025 31.668 80.279 31.668H81.231C81.3075 31.668 81.35 31.7115 81.35 31.7898V36.4282C81.35 36.5065 81.3075 36.55 81.231 36.55H80.279C80.2025 36.55 80.16 36.5065 80.16 36.4282V31.7898ZM84.7762 36.6458C83.2717 36.6458 82.3282 35.6102 82.3282 34.1134C82.3282 32.6079 83.2802 31.5723 84.7677 31.5723C85.8387 31.5723 86.5867 32.0248 86.9352 32.9908C86.9437 33.0082 86.9437 33.0256 86.9437 33.0343C86.9437 33.0865 86.9097 33.13 86.8502 33.1474L86.0597 33.3824L86.0172 33.3911C85.9747 33.3911 85.9322 33.3563 85.8982 33.304C85.6857 32.895 85.3372 32.6862 84.8442 32.6862C83.9772 32.6862 83.5607 33.3389 83.5607 34.1134C83.5607 34.8792 83.9772 35.5319 84.8442 35.5319C85.3372 35.5319 85.7112 35.3143 85.9067 34.8792C85.9492 34.8183 86.0002 34.7834 86.0682 34.8096L86.9437 35.0271C87.0117 35.0445 87.0457 35.0967 87.0117 35.1751C86.6377 36.1845 85.8302 36.6458 84.7762 36.6458ZM90.063 36.6458C88.5585 36.6458 87.649 35.5928 87.649 34.1134C87.649 32.6253 88.5585 31.5723 90.063 31.5723C91.525 31.5723 92.3665 32.6862 92.3155 34.3657C92.307 34.4441 92.2645 34.4876 92.188 34.4876H88.924C89.0345 35.1577 89.434 35.558 90.0715 35.558C90.556 35.558 90.896 35.3752 91.117 35.001C91.1595 34.9401 91.2105 34.9314 91.2785 34.9488L92.0945 35.236C92.171 35.2708 92.1965 35.323 92.1625 35.4013C91.7375 36.2541 90.947 36.6458 90.063 36.6458ZM91.0405 33.5738C90.93 32.9995 90.5645 32.6601 90.0545 32.6601C89.4935 32.6601 89.0855 32.9908 88.941 33.5738H91.0405ZM96.3685 36.55C96.292 36.55 96.2495 36.5065 96.2495 36.4282V29.7535C96.2495 29.6751 96.292 29.6316 96.3685 29.6316H97.3715C97.4395 29.6316 97.4905 29.6751 97.4905 29.7535V36.4282C97.4905 36.5065 97.4395 36.55 97.3715 36.55H96.3685ZM98.9724 36.55C98.8959 36.55 98.8534 36.5065 98.8534 36.4282V31.7898C98.8534 31.7115 98.8959 31.668 98.9724 31.668H99.8394C99.9074 31.668 99.9669 31.7028 99.9669 31.7898L99.9924 32.3729C100.332 31.8507 100.91 31.5723 101.505 31.5723C102.219 31.5723 102.746 31.8943 103.001 32.4686C103.35 31.8769 103.979 31.5723 104.633 31.5723C105.67 31.5723 106.308 32.2511 106.308 33.3737V36.4282C106.308 36.5065 106.257 36.55 106.189 36.55H105.228C105.152 36.55 105.109 36.5065 105.109 36.4282V33.8697C105.109 33.0604 104.812 32.6862 104.259 32.6862C103.698 32.6862 103.18 33.13 103.18 34.0612V36.4282C103.18 36.5065 103.129 36.55 103.061 36.55H102.1C102.024 36.55 101.981 36.5065 101.981 36.4282V33.8697C101.981 33.0604 101.684 32.6862 101.131 32.6862C100.57 32.6862 100.043 33.13 100.043 34.0612V36.4282C100.043 36.5065 100.001 36.55 99.9244 36.55H98.9724ZM108.114 30.7978C107.715 30.7978 107.417 30.528 107.417 30.119C107.417 29.7187 107.715 29.4402 108.114 29.4402C108.514 29.4402 108.811 29.7187 108.811 30.119C108.811 30.528 108.514 30.7978 108.114 30.7978ZM107.519 31.7898C107.519 31.7115 107.562 31.668 107.638 31.668H108.59C108.667 31.668 108.709 31.7115 108.709 31.7898V36.4282C108.709 36.5065 108.667 36.55 108.59 36.55H107.638C107.562 36.55 107.519 36.5065 107.519 36.4282V31.7898ZM111.821 36.6458C110.793 36.6458 110.223 35.9844 110.223 34.6616V32.7645H109.526C109.45 32.7645 109.407 32.7123 109.407 32.6427V31.7898C109.407 31.7115 109.45 31.668 109.526 31.668H110.223V30.3539C110.223 30.2843 110.266 30.2321 110.342 30.2321H111.303C111.371 30.2321 111.422 30.2843 111.422 30.3539V31.668H112.552C112.629 31.668 112.671 31.7115 112.671 31.7898V32.6427C112.671 32.7123 112.629 32.7645 112.552 32.7645H111.422V34.7399C111.422 35.2708 111.583 35.5319 111.957 35.5319C112.11 35.5319 112.221 35.4622 112.314 35.2969C112.348 35.2273 112.408 35.2012 112.476 35.236L113.198 35.5667C113.241 35.5928 113.266 35.6276 113.266 35.6711C113.266 35.6972 113.258 35.732 113.232 35.7668C112.892 36.4108 112.365 36.6458 111.821 36.6458ZM115.766 36.6458C114.406 36.6458 113.539 35.6102 113.539 34.1134C113.539 32.6079 114.406 31.5723 115.766 31.5723C116.429 31.5723 116.982 31.8594 117.322 32.3381L117.356 31.7898C117.356 31.7028 117.407 31.668 117.483 31.668H118.342C118.418 31.668 118.469 31.7115 118.469 31.7898V36.4282C118.469 36.5065 118.418 36.55 118.342 36.55H117.483C117.407 36.55 117.356 36.5152 117.356 36.4282L117.322 35.8799C116.982 36.3586 116.429 36.6458 115.766 36.6458ZM114.772 34.1134C114.772 34.9488 115.299 35.5319 116.064 35.5319C116.829 35.5319 117.356 34.9488 117.356 34.1134C117.356 33.2692 116.829 32.6862 116.064 32.6862C115.299 32.6862 114.772 33.2692 114.772 34.1134ZM121.575 36.6458C120.546 36.6458 119.977 35.9844 119.977 34.6616V32.7645H119.28C119.203 32.7645 119.161 32.7123 119.161 32.6427V31.7898C119.161 31.7115 119.203 31.668 119.28 31.668H119.977V30.3539C119.977 30.2843 120.019 30.2321 120.096 30.2321H121.056C121.124 30.2321 121.175 30.2843 121.175 30.3539V31.668H122.306C122.382 31.668 122.425 31.7115 122.425 31.7898V32.6427C122.425 32.7123 122.382 32.7645 122.306 32.7645H121.175V34.7399C121.175 35.2708 121.337 35.5319 121.711 35.5319C121.864 35.5319 121.974 35.4622 122.068 35.2969C122.102 35.2273 122.161 35.2012 122.229 35.236L122.952 35.5667C122.994 35.5928 123.02 35.6276 123.02 35.6711C123.02 35.6972 123.011 35.732 122.986 35.7668C122.646 36.4108 122.119 36.6458 121.575 36.6458ZM124.259 30.7978C123.86 30.7978 123.562 30.528 123.562 30.119C123.562 29.7187 123.86 29.4402 124.259 29.4402C124.659 29.4402 124.956 29.7187 124.956 30.119C124.956 30.528 124.659 30.7978 124.259 30.7978ZM123.664 31.7898C123.664 31.7115 123.707 31.668 123.783 31.668H124.735C124.812 31.668 124.854 31.7115 124.854 31.7898V36.4282C124.854 36.5065 124.812 36.55 124.735 36.55H123.783C123.707 36.55 123.664 36.5065 123.664 36.4282V31.7898ZM128.357 36.6458C126.827 36.6458 125.833 35.5928 125.833 34.1134C125.833 32.6253 126.827 31.5723 128.357 31.5723C129.887 31.5723 130.882 32.6253 130.882 34.1134C130.882 35.5928 129.887 36.6458 128.357 36.6458ZM127.065 34.1134C127.065 34.9488 127.592 35.5319 128.357 35.5319C129.122 35.5319 129.649 34.9488 129.649 34.1134C129.649 33.2692 129.122 32.6862 128.357 32.6862C127.592 32.6862 127.065 33.2692 127.065 34.1134ZM131.976 36.55C131.9 36.55 131.857 36.5065 131.857 36.4282V31.7898C131.857 31.7115 131.9 31.668 131.976 31.668H132.843C132.911 31.668 132.971 31.7028 132.971 31.7898L132.996 32.3468C133.345 31.8246 133.94 31.5723 134.552 31.5723C135.657 31.5723 136.294 32.2511 136.294 33.3737V36.4282C136.294 36.5065 136.243 36.55 136.175 36.55H135.215C135.138 36.55 135.096 36.5065 135.096 36.4282V33.8697C135.096 33.0604 134.807 32.6862 134.186 32.6862C133.6 32.6862 133.047 33.13 133.047 34.0612V36.4282C133.047 36.5065 133.005 36.55 132.928 36.55H131.976ZM142.608 36.6806C141.35 36.6806 140.466 36.054 140.109 34.8531C140.1 34.8357 140.1 34.8183 140.1 34.8009C140.1 34.7486 140.134 34.7225 140.185 34.7051L141.146 34.4702C141.163 34.4615 141.18 34.4615 141.188 34.4615C141.239 34.4615 141.273 34.4963 141.29 34.5485C141.537 35.1576 141.919 35.4361 142.608 35.4361C143.262 35.4361 143.704 35.2186 143.704 34.7051C143.704 34.2004 143.288 33.9306 142.599 33.6782L142.004 33.4607C140.925 33.0778 140.27 32.4338 140.27 31.4417C140.27 30.3104 141.256 29.5011 142.54 29.5011C143.67 29.5011 144.512 30.0406 144.852 31.1894C144.86 31.2068 144.86 31.2242 144.86 31.2416C144.86 31.2851 144.826 31.3199 144.775 31.3373L143.764 31.5984C143.747 31.6071 143.73 31.6071 143.713 31.6071C143.67 31.6071 143.636 31.5723 143.611 31.5201C143.39 30.9544 143.041 30.7455 142.54 30.7455C141.945 30.7455 141.562 30.9979 141.562 31.4069C141.562 31.8333 141.911 32.1205 142.701 32.3903L143.177 32.5556C144.401 32.9646 144.996 33.5651 144.996 34.7051C144.996 35.8538 144.019 36.6806 142.608 36.6806ZM146.558 38.6038C146.473 38.6038 146.439 38.5516 146.464 38.4646L147.34 36.2367L145.427 31.8072C145.419 31.7898 145.41 31.7637 145.41 31.7463C145.41 31.7028 145.453 31.668 145.521 31.668H146.66C146.728 31.668 146.77 31.6941 146.796 31.7637L147.96 34.7573L149.091 31.7637C149.116 31.6941 149.167 31.668 149.227 31.668H150.281C150.357 31.668 150.408 31.7289 150.366 31.8072L147.697 38.5081C147.671 38.5777 147.629 38.6038 147.561 38.6038H146.558ZM152.716 36.6458C151.679 36.6458 150.948 36.1932 150.642 35.3404C150.633 35.323 150.633 35.3143 150.633 35.2969C150.633 35.2447 150.667 35.2099 150.727 35.1925L151.568 34.9575L151.602 34.9488C151.653 34.9488 151.696 34.9836 151.713 35.0358C151.934 35.4274 152.265 35.558 152.673 35.558C153.073 35.558 153.37 35.4796 153.37 35.2012C153.37 34.9923 153.166 34.8792 152.665 34.7312L152.435 34.6616C151.288 34.3309 150.846 33.7566 150.846 33.0082C150.846 32.1727 151.585 31.5723 152.665 31.5723C153.583 31.5723 154.237 31.9726 154.526 32.7993C154.535 32.8167 154.543 32.8428 154.543 32.8602C154.543 32.9037 154.509 32.9385 154.458 32.9472L153.617 33.2257C153.6 33.2344 153.583 33.2344 153.566 33.2344C153.523 33.2344 153.489 33.2083 153.464 33.1561C153.294 32.8515 153.047 32.6601 152.639 32.6601C152.333 32.6601 152.078 32.7558 152.078 33.0082C152.078 33.2344 152.291 33.365 152.818 33.4955L153.039 33.5564C154.212 33.8523 154.603 34.3657 154.603 35.1751C154.603 36.0714 153.812 36.6458 152.716 36.6458ZM157.558 36.6458C156.53 36.6458 155.96 35.9844 155.96 34.6616V32.7645H155.263C155.187 32.7645 155.144 32.7123 155.144 32.6427V31.7898C155.144 31.7115 155.187 31.668 155.263 31.668H155.96V30.3539C155.96 30.2843 156.003 30.2321 156.079 30.2321H157.04C157.108 30.2321 157.159 30.2843 157.159 30.3539V31.668H158.289C158.366 31.668 158.408 31.7115 158.408 31.7898V32.6427C158.408 32.7123 158.366 32.7645 158.289 32.7645H157.159V34.7399C157.159 35.2708 157.32 35.5319 157.694 35.5319C157.847 35.5319 157.958 35.4622 158.051 35.2969C158.085 35.2273 158.145 35.2012 158.213 35.236L158.935 35.5667C158.978 35.5928 159.003 35.6276 159.003 35.6711C159.003 35.6972 158.995 35.732 158.969 35.7668C158.629 36.4108 158.102 36.6458 157.558 36.6458ZM161.69 36.6458C160.186 36.6458 159.276 35.5928 159.276 34.1134C159.276 32.6253 160.186 31.5723 161.69 31.5723C163.152 31.5723 163.994 32.6862 163.943 34.3657C163.934 34.4441 163.892 34.4876 163.815 34.4876H160.551C160.662 35.1577 161.061 35.558 161.699 35.558C162.183 35.558 162.523 35.3752 162.744 35.001C162.787 34.9401 162.838 34.9314 162.906 34.9488L163.722 35.236C163.798 35.2708 163.824 35.323 163.79 35.4013C163.365 36.2541 162.574 36.6458 161.69 36.6458ZM162.668 33.5738C162.557 32.9995 162.192 32.6601 161.682 32.6601C161.121 32.6601 160.713 32.9908 160.568 33.5738H162.668ZM164.955 36.55C164.879 36.55 164.836 36.5065 164.836 36.4282V31.7898C164.836 31.7115 164.879 31.668 164.955 31.668H165.822C165.89 31.668 165.95 31.7028 165.95 31.7898L165.975 32.3729C166.315 31.8507 166.893 31.5723 167.488 31.5723C168.202 31.5723 168.729 31.8943 168.984 32.4686C169.333 31.8769 169.962 31.5723 170.616 31.5723C171.653 31.5723 172.291 32.2511 172.291 33.3737V36.4282C172.291 36.5065 172.24 36.55 172.172 36.55H171.211C171.135 36.55 171.092 36.5065 171.092 36.4282V33.8697C171.092 33.0604 170.795 32.6862 170.242 32.6862C169.681 32.6862 169.163 33.13 169.163 34.0612V36.4282C169.163 36.5065 169.112 36.55 169.044 36.55H168.083C168.007 36.55 167.964 36.5065 167.964 36.4282V33.8697C167.964 33.0604 167.667 32.6862 167.114 32.6862C166.553 32.6862 166.026 33.13 166.026 34.0612V36.4282C166.026 36.5065 165.984 36.55 165.907 36.55H164.955Z" fill="#D2D3D4"/>
</svg>
