<svg width="185" height="42" viewBox="0 0 185 42" fill="none" xmlns="http://www.w3.org/2000/svg">
<g clip-path="url(#clip0_363_1382)">
<path d="M19.6782 18.3563C20.4073 19.0867 21.5915 19.0867 22.3218 18.3563L29.5925 11.0868C30.3217 10.3565 30.3217 9.1735 29.5925 8.44317L22.3218 1.17367C21.5927 0.443332 20.4085 0.443332 19.6782 1.17367L12.4075 8.44317C11.6772 9.1735 11.6772 10.3565 12.4075 11.0868L19.6782 18.3563ZM30.9143 29.5913C31.6435 30.3217 32.8277 30.3217 33.558 29.5913L40.8287 22.3218C41.5578 21.5915 41.5578 20.4085 40.8287 19.6782L33.558 12.4087C32.8288 11.6783 31.6447 11.6783 30.9143 12.4087L23.6437 19.6782C22.9133 20.4085 22.9133 21.5915 23.6437 22.3218L30.9143 29.5913ZM29.5913 30.9143L22.3218 23.6437C21.5915 22.9133 20.4085 22.9133 19.6782 23.6437L12.4087 30.9143C11.6783 31.6447 11.6783 32.8265 12.4087 33.5568L19.6782 40.8275C20.4085 41.5567 21.5915 41.5567 22.3218 40.8275L29.5913 33.5568C30.3217 32.8265 30.3217 31.6447 29.5913 30.9143ZM18.3563 19.6793L11.0868 12.4087C10.3565 11.6783 9.1735 11.6783 8.44317 12.4087L1.17367 19.6793C0.443332 20.4097 0.443332 21.5915 1.17367 22.3218L8.44317 29.5925C9.1735 30.3217 10.3565 30.3217 11.0868 29.5925L18.3563 22.3218C19.0867 21.5915 19.0867 20.4097 18.3563 19.6793Z" fill="#55ACEE"/>
<path d="M18.3563 19.6793L14.6066 15.9285C13.4995 17.3226 12.8333 19.082 12.8333 21C12.8333 22.918 13.4995 24.6785 14.6066 26.0715L18.3563 22.3218C19.0866 21.5915 19.0866 20.4096 18.3563 19.6793ZM26.0726 27.3933L22.3218 23.6425C21.5926 22.9145 20.4085 22.9145 19.6781 23.6425L15.9273 27.3933C17.3215 28.5005 19.082 29.1666 21 29.1666C22.918 29.1666 24.6785 28.5005 26.0726 27.3933ZM23.6436 22.3218L27.3945 26.0726C28.5005 24.6785 29.1666 22.918 29.1666 21C29.1666 19.082 28.5005 17.3215 27.3933 15.9285L23.6425 19.6793C22.9145 20.4096 22.9145 21.5915 23.6436 22.3218ZM22.3218 18.3563L26.0726 14.6066C24.6785 13.4995 22.918 12.8333 21 12.8333C19.082 12.8333 17.3215 13.4995 15.9285 14.6066L19.6793 18.3563C20.4085 19.0866 21.5915 19.0866 22.3218 18.3563Z" fill="#3B88C3"/>
<path d="M21 26.8334C24.2217 26.8334 26.8334 24.2217 26.8334 21C26.8334 17.7784 24.2217 15.1667 21 15.1667C17.7784 15.1667 15.1667 17.7784 15.1667 21C15.1667 24.2217 17.7784 26.8334 21 26.8334Z" fill="#BBDDF5"/>
</g>
<path d="M50.7 28.74C50.5 28.74 50.38 28.62 50.48 28.42L56.82 13.06C56.88 12.9 57 12.84 57.14 12.84H59.16C59.32 12.84 59.42 12.9 59.48 13.06L65.84 28.42C65.86 28.46 65.86 28.5 65.86 28.54C65.86 28.66 65.78 28.74 65.62 28.74H62.88C62.74 28.74 62.62 28.68 62.56 28.52L61.44 25.56H54.84L53.7 28.52C53.64 28.68 53.54 28.74 53.38 28.74H50.7ZM55.84 22.84H60.4L58.12 16.82L55.84 22.84ZM69.1886 15.52C68.2486 15.52 67.5486 14.9 67.5486 13.96C67.5486 13.04 68.2486 12.4 69.1886 12.4C70.1286 12.4 70.8286 13.04 70.8286 13.96C70.8286 14.9 70.1286 15.52 69.1886 15.52ZM67.7886 17.8C67.7886 17.62 67.8886 17.52 68.0686 17.52H70.3086C70.4886 17.52 70.5886 17.62 70.5886 17.8V28.46C70.5886 28.64 70.4886 28.74 70.3086 28.74H68.0686C67.8886 28.74 67.7886 28.64 67.7886 28.46V17.8ZM77.6503 28.74C77.5103 28.74 77.3903 28.66 77.3303 28.52L72.5503 17.84C72.5303 17.8 72.5103 17.74 72.5103 17.7C72.5103 17.6 72.6103 17.52 72.7703 17.52H75.4503C75.6103 17.52 75.7103 17.58 75.7703 17.74L78.4503 24.56L81.1503 17.74C81.2103 17.58 81.3103 17.52 81.4703 17.52H83.9903C84.1903 17.52 84.2903 17.66 84.1903 17.84L79.4103 28.52C79.3503 28.66 79.2303 28.74 79.0903 28.74H77.6503ZM87.548 15.52C86.608 15.52 85.908 14.9 85.908 13.96C85.908 13.04 86.608 12.4 87.548 12.4C88.488 12.4 89.188 13.04 89.188 13.96C89.188 14.9 88.488 15.52 87.548 15.52ZM86.148 17.8C86.148 17.62 86.248 17.52 86.428 17.52H88.668C88.848 17.52 88.948 17.62 88.948 17.8V28.46C88.948 28.64 88.848 28.74 88.668 28.74H86.428C86.248 28.74 86.148 28.64 86.148 28.46V17.8ZM95.9297 28.96C93.4897 28.96 91.7697 27.92 91.0497 25.96C91.0297 25.92 91.0297 25.9 91.0297 25.86C91.0297 25.74 91.1097 25.66 91.2497 25.62L93.2297 25.08L93.3097 25.06C93.4297 25.06 93.5297 25.14 93.5697 25.26C94.0897 26.16 94.8697 26.46 95.8297 26.46C96.7697 26.46 97.4697 26.28 97.4697 25.64C97.4697 25.16 96.9897 24.9 95.8097 24.56L95.2697 24.4C92.5697 23.64 91.5297 22.32 91.5297 20.6C91.5297 18.68 93.2697 17.3 95.8097 17.3C97.9697 17.3 99.5097 18.22 100.19 20.12C100.21 20.16 100.23 20.22 100.23 20.26C100.23 20.36 100.15 20.44 100.03 20.46L98.0497 21.1C98.0097 21.12 97.9697 21.12 97.9297 21.12C97.8297 21.12 97.7497 21.06 97.6897 20.94C97.2897 20.24 96.7097 19.8 95.7497 19.8C95.0297 19.8 94.4297 20.02 94.4297 20.6C94.4297 21.12 94.9297 21.42 96.1697 21.72L96.6897 21.86C99.4497 22.54 100.37 23.72 100.37 25.58C100.37 27.64 98.5097 28.96 95.9297 28.96ZM109.95 28.74C109.77 28.74 109.67 28.64 109.67 28.46V13.12C109.67 12.94 109.77 12.84 109.95 12.84H114.75C118.93 12.84 121.05 14.88 121.05 18.38C121.05 21.9 118.93 23.94 114.75 23.94H112.59V28.46C112.59 28.64 112.47 28.74 112.31 28.74H109.95ZM114.65 21.22C116.81 21.22 118.03 20.34 118.03 18.32C118.03 16.44 116.81 15.54 114.65 15.54H112.59V21.22H114.65ZM123.772 28.74C123.592 28.74 123.492 28.64 123.492 28.46V17.8C123.492 17.62 123.592 17.52 123.772 17.52H125.812C125.972 17.52 126.112 17.6 126.112 17.8L126.172 19.2C126.932 18 128.252 17.36 129.592 17.36C129.912 17.36 130.132 17.4 130.352 17.44C130.532 17.48 130.592 17.58 130.592 17.74V19.96C130.592 20.14 130.492 20.2 130.352 20.2C130.052 20.2 129.712 20.12 129.252 20.12C127.732 20.12 126.292 21.16 126.292 22.94V28.46C126.292 28.64 126.192 28.74 126.012 28.74H123.772ZM137.58 28.96C133.98 28.96 131.64 26.54 131.64 23.14C131.64 19.72 133.98 17.3 137.58 17.3C141.18 17.3 143.52 19.72 143.52 23.14C143.52 26.54 141.18 28.96 137.58 28.96ZM134.54 23.14C134.54 25.06 135.78 26.4 137.58 26.4C139.38 26.4 140.62 25.06 140.62 23.14C140.62 21.2 139.38 19.86 137.58 19.86C135.78 19.86 134.54 21.2 134.54 23.14ZM147.216 15.52C146.276 15.52 145.576 14.9 145.576 13.96C145.576 13.04 146.276 12.4 147.216 12.4C148.156 12.4 148.856 13.04 148.856 13.96C148.856 14.9 148.156 15.52 147.216 15.52ZM141.276 31.46C141.256 31.42 141.256 31.38 141.256 31.34C141.256 31.24 141.316 31.16 141.456 31.12L143.236 30.46C143.276 30.44 143.316 30.42 143.356 30.42C143.456 30.42 143.536 30.5 143.596 30.6C143.776 30.94 144.036 31.12 144.596 31.12C145.416 31.12 145.816 30.58 145.816 29.3V17.8C145.816 17.62 145.916 17.52 146.096 17.52H148.336C148.516 17.52 148.616 17.62 148.616 17.8V29.06C148.616 31.98 147.316 33.68 144.676 33.68C143.096 33.68 141.896 32.94 141.276 31.46ZM156.598 28.96C153.058 28.96 150.918 26.54 150.918 23.14C150.918 19.72 153.058 17.3 156.598 17.3C160.038 17.3 162.018 19.86 161.898 23.72C161.878 23.9 161.778 24 161.598 24H153.918C154.178 25.54 155.118 26.46 156.618 26.46C157.758 26.46 158.558 26.04 159.078 25.18C159.178 25.04 159.298 25.02 159.458 25.06L161.378 25.72C161.558 25.8 161.618 25.92 161.538 26.1C160.538 28.06 158.678 28.96 156.598 28.96ZM158.898 21.9C158.638 20.58 157.778 19.8 156.578 19.8C155.258 19.8 154.298 20.56 153.958 21.9H158.898ZM169.1 28.96C165.56 28.96 163.34 26.58 163.34 23.14C163.34 19.68 165.58 17.3 169.08 17.3C171.6 17.3 173.36 18.34 174.18 20.56C174.2 20.6 174.2 20.64 174.2 20.66C174.2 20.78 174.12 20.88 173.98 20.92L172.12 21.46L172.02 21.48C171.92 21.48 171.82 21.4 171.74 21.28C171.24 20.34 170.42 19.86 169.26 19.86C167.22 19.86 166.24 21.36 166.24 23.14C166.24 24.9 167.22 26.4 169.26 26.4C170.42 26.4 171.3 25.9 171.76 24.9C171.86 24.76 171.98 24.68 172.14 24.74L174.2 25.24C174.36 25.28 174.44 25.4 174.36 25.58C173.48 27.9 171.58 28.96 169.1 28.96ZM180.879 28.96C178.459 28.96 177.119 27.44 177.119 24.4V20.04H175.479C175.299 20.04 175.199 19.92 175.199 19.76V17.8C175.199 17.62 175.299 17.52 175.479 17.52H177.119V14.5C177.119 14.34 177.219 14.22 177.399 14.22H179.659C179.819 14.22 179.939 14.34 179.939 14.5V17.52H182.599C182.779 17.52 182.879 17.62 182.879 17.8V19.76C182.879 19.92 182.779 20.04 182.599 20.04H179.939V24.58C179.939 25.8 180.319 26.4 181.199 26.4C181.559 26.4 181.819 26.24 182.039 25.86C182.119 25.7 182.259 25.64 182.419 25.72L184.119 26.48C184.219 26.54 184.279 26.62 184.279 26.72C184.279 26.78 184.259 26.86 184.199 26.94C183.399 28.42 182.159 28.96 180.879 28.96Z" fill="#FBEEEA"/>
<defs>
<clipPath id="clip0_363_1382">
<rect width="42" height="42" fill="white"/>
</clipPath>
</defs>
</svg>
