<svg width="1500" height="350" viewBox="0 0 1500 350" fill="none" xmlns="http://www.w3.org/2000/svg">
<path d="M163.64 152.292C169.903 158.565 180.074 158.565 186.347 152.292L248.795 89.8518C255.058 83.5787 255.058 73.4176 248.795 67.1446L186.347 4.70478C180.084 -1.56826 169.913 -1.56826 163.64 4.70478L101.192 67.1446C94.9196 73.4176 94.9196 83.5787 101.192 89.8518L163.64 152.292ZM260.148 248.792C266.411 255.065 276.582 255.065 282.855 248.792L345.303 186.352C351.566 180.079 351.566 169.918 345.303 163.645L282.855 101.205C276.592 94.9323 266.421 94.9323 260.148 101.205L197.7 163.645C191.427 169.918 191.427 180.079 197.7 186.352L260.148 248.792ZM248.785 260.156L186.347 197.706C180.074 191.433 169.913 191.433 163.64 197.706L101.202 260.156C94.9296 266.429 94.9296 276.58 101.202 282.853L163.64 345.303C169.913 351.566 180.074 351.566 186.347 345.303L248.785 282.853C255.058 276.58 255.058 266.429 248.785 260.156ZM152.287 163.655L89.8492 101.205C83.5763 94.9323 73.4155 94.9323 67.1426 101.205L4.70465 163.655C-1.56821 169.928 -1.56821 180.079 4.70465 186.352L67.1426 248.802C73.4155 255.065 83.5763 255.065 89.8492 248.802L152.287 186.352C158.56 180.079 158.56 169.928 152.287 163.655Z" fill="url(#paint0_linear_669_4229)"/>
<path d="M152.287 163.655L120.081 131.438C110.572 143.413 104.85 158.525 104.85 174.999C104.85 191.473 110.572 206.595 120.081 218.559L152.287 186.352C158.56 180.079 158.56 169.928 152.287 163.655ZM218.563 229.913L186.347 197.696C180.084 191.443 169.913 191.443 163.641 197.696L131.425 229.913C143.399 239.423 158.52 245.145 174.994 245.145C191.468 245.145 206.589 239.423 218.563 229.913ZM197.7 186.352L229.917 218.569C239.416 206.594 245.138 191.473 245.138 174.999C245.138 158.525 239.416 143.403 229.906 131.438L197.69 163.655C191.438 169.928 191.438 180.079 197.7 186.352ZM186.347 152.292L218.563 120.085C206.589 110.575 191.468 104.853 174.994 104.853C158.52 104.853 143.399 110.575 131.435 120.085L163.651 152.292C169.913 158.565 180.074 158.565 186.347 152.292Z" fill="#3B88C3"/>
<path d="M174.994 225.103C202.665 225.103 225.097 202.67 225.097 174.999C225.097 147.327 202.665 124.895 174.994 124.895C147.323 124.895 124.892 147.327 124.892 174.999C124.892 202.67 147.323 225.103 174.994 225.103Z" fill="#BBDDF5"/>
<path d="M1453.02 182.725C1433.82 182.725 1423.19 170.726 1423.19 146.729V112.311H1410.18C1408.75 112.311 1407.95 111.363 1407.95 110.1V94.6279C1407.95 93.2069 1408.75 92.4175 1410.18 92.4175H1423.19V68.5775C1423.19 67.3145 1423.98 66.3672 1425.41 66.3672H1443.34C1444.61 66.3672 1445.56 67.3145 1445.56 68.5775V92.4175H1466.67C1468.1 92.4175 1468.89 93.2069 1468.89 94.6279V110.1C1468.89 111.363 1468.1 112.311 1466.67 112.311H1445.56V148.15C1445.56 157.78 1448.58 162.517 1455.56 162.517C1458.42 162.517 1460.48 161.254 1462.23 158.254C1462.86 156.991 1463.97 156.517 1465.24 157.149L1478.73 163.148C1479.52 163.622 1480 164.253 1480 165.043C1480 165.516 1479.84 166.148 1479.37 166.779C1473.02 178.463 1463.18 182.725 1453.02 182.725Z" fill="#FBEEEA"/>
<path d="M1359.55 182.726C1331.46 182.726 1313.85 163.938 1313.85 136.782C1313.85 109.469 1331.62 90.6812 1359.39 90.6812C1379.39 90.6812 1393.35 98.891 1399.86 116.416C1400.02 116.732 1400.02 117.047 1400.02 117.205C1400.02 118.152 1399.38 118.942 1398.27 119.258L1383.52 123.52L1382.72 123.678C1381.93 123.678 1381.14 123.047 1380.5 122.099C1376.53 114.679 1370.03 110.89 1360.82 110.89C1344.64 110.89 1336.86 122.731 1336.86 136.782C1336.86 150.676 1344.64 162.517 1360.82 162.517C1370.03 162.517 1377.01 158.57 1380.66 150.676C1381.45 149.571 1382.4 148.939 1383.67 149.413L1400.02 153.36C1401.29 153.676 1401.92 154.623 1401.29 156.044C1394.31 174.358 1379.23 182.726 1359.55 182.726Z" fill="#FBEEEA"/>
<path d="M1260.35 182.726C1232.27 182.726 1215.29 163.622 1215.29 136.782C1215.29 109.785 1232.27 90.6812 1260.35 90.6812C1287.65 90.6812 1303.36 110.89 1302.41 141.361C1302.25 142.782 1301.45 143.571 1300.03 143.571H1239.09C1241.15 155.728 1248.61 162.991 1260.51 162.991C1269.56 162.991 1275.91 159.675 1280.03 152.886C1280.83 151.781 1281.78 151.623 1283.05 151.939L1298.28 157.149C1299.71 157.781 1300.19 158.728 1299.55 160.149C1291.62 175.621 1276.86 182.726 1260.35 182.726ZM1278.6 126.994C1276.54 116.574 1269.72 110.416 1260.2 110.416C1249.72 110.416 1242.1 116.416 1239.41 126.994H1278.6Z" fill="#FBEEEA"/>
<path d="M1185.91 76.6294C1178.45 76.6294 1172.9 71.7351 1172.9 64.3147C1172.9 57.0522 1178.45 52 1185.91 52C1193.37 52 1198.92 57.0522 1198.92 64.3147C1198.92 71.7351 1193.37 76.6294 1185.91 76.6294ZM1154.79 208.925C1154.79 208.925 1152.79 209.091 1151.97 207.446C1151.14 205.803 1150.46 195.33 1150.46 195.33C1150.46 195.33 1150.27 194.678 1151.11 193.864C1151.96 193.048 1152.6 192.943 1152.6 192.943C1152.6 192.943 1154.19 192.482 1156.78 192.143C1156.78 192.143 1165.51 190.972 1169.91 187.476C1174.3 183.981 1175.08 179.778 1175.08 172.581C1175.08 165.384 1174.8 94.6279 1174.8 94.6279C1174.8 93.2069 1175.59 92.4175 1177.02 92.4175H1194.8C1196.22 92.4175 1197.02 93.2069 1197.02 94.6279V177.284C1197.02 185.542 1195.52 190.544 1191.68 195.33C1187.4 200.674 1181.42 203.19 1177.02 205.175C1168.41 209.056 1156.76 208.925 1154.79 208.925Z" fill="#FBEEEA"/>
<path d="M1109.46 182.726C1080.9 182.726 1062.33 163.622 1062.33 136.782C1062.33 109.785 1080.9 90.6812 1109.46 90.6812C1138.03 90.6812 1156.59 109.785 1156.59 136.782C1156.59 163.622 1138.03 182.726 1109.46 182.726ZM1085.34 136.782C1085.34 151.939 1095.18 162.517 1109.46 162.517C1123.74 162.517 1133.58 151.939 1133.58 136.782C1133.58 121.468 1123.74 110.89 1109.46 110.89C1095.18 110.89 1085.34 121.468 1085.34 136.782Z" fill="#FBEEEA"/>
<path d="M999.898 180.988C998.47 180.988 997.676 180.199 997.676 178.778V94.6272C997.676 93.2063 998.47 92.4169 999.898 92.4169H1016.08C1017.35 92.4169 1018.47 93.0484 1018.47 94.6272L1018.94 105.679C1024.97 96.206 1035.45 91.1538 1046.08 91.1538C1048.62 91.1538 1050.36 91.4696 1052.11 91.7853C1053.54 92.1011 1054.01 92.8905 1054.01 94.1535V111.678C1054.01 113.099 1053.22 113.573 1052.11 113.573C1049.73 113.573 1047.03 112.941 1043.38 112.941C1031.32 112.941 1019.89 121.151 1019.89 135.203V178.778C1019.89 180.199 1019.1 180.988 1017.67 180.988H999.898Z" fill="#FBEEEA"/>
<path d="M890.226 180.989C888.797 180.989 888.004 180.199 888.004 178.778V57.6835C888.004 56.2625 888.797 55.4731 890.226 55.4731H928.312C961.478 55.4731 978.3 71.577 978.3 99.2064C978.3 126.993 961.478 143.097 928.312 143.097H911.173V178.778C911.173 180.199 910.221 180.989 908.951 180.989H890.226ZM927.518 121.626C944.657 121.626 954.337 114.679 954.337 98.7328C954.337 83.8917 944.657 76.7871 927.518 76.7871H911.173V121.626H927.518Z" fill="#FBEEEA"/>
<path d="M787.332 182.726C767.971 182.726 754.324 174.516 748.611 159.044C748.452 158.728 748.452 158.57 748.452 158.254C748.452 157.307 749.087 156.675 750.198 156.36L765.908 152.097L766.543 151.939C767.495 151.939 768.289 152.57 768.606 153.518C772.732 160.622 778.921 162.991 786.538 162.991C793.997 162.991 799.551 161.57 799.551 156.518C799.551 152.728 795.742 150.676 786.38 147.992L782.095 146.729C760.671 140.729 752.419 130.309 752.419 116.732C752.419 101.575 766.226 90.6812 786.38 90.6812C803.518 90.6812 815.738 97.9437 821.133 112.942C821.292 113.258 821.451 113.732 821.451 114.048C821.451 114.837 820.816 115.468 819.864 115.626L804.153 120.679C803.836 120.836 803.518 120.836 803.201 120.836C802.408 120.836 801.773 120.363 801.297 119.415C798.123 113.89 793.521 110.416 785.903 110.416C780.191 110.416 775.43 112.153 775.43 116.732C775.43 120.836 779.397 123.205 789.236 125.573L793.362 126.678C815.262 132.046 822.561 141.361 822.561 156.044C822.561 172.306 807.803 182.726 787.332 182.726Z" fill="#FBEEEA"/>
<path d="M720.825 76.6294C713.367 76.6294 707.812 71.7351 707.812 64.3147C707.812 57.0522 713.367 52 720.825 52C728.284 52 733.838 57.0522 733.838 64.3147C733.838 71.7351 728.284 76.6294 720.825 76.6294ZM709.717 94.6279C709.717 93.2069 710.51 92.4175 711.938 92.4175H729.712C731.14 92.4175 731.934 93.2069 731.934 94.6279V178.778C731.934 180.199 731.14 180.989 729.712 180.989H711.938C710.51 180.989 709.717 180.199 709.717 178.778V94.6279Z" fill="#FBEEEA"/>
<path d="M642.292 180.989C641.181 180.989 640.229 180.358 639.753 179.252L601.825 94.9441C601.667 94.6283 601.508 94.1547 601.508 93.8389C601.508 93.0495 602.301 92.418 603.571 92.418H624.836C626.105 92.418 626.899 92.8916 627.375 94.1547L648.639 147.992L670.063 94.1547C670.539 92.8916 671.332 92.418 672.602 92.418H692.597C694.184 92.418 694.978 93.5231 694.184 94.9441L656.257 179.252C655.781 180.358 654.828 180.989 653.718 180.989H642.292Z" fill="#FBEEEA"/>
<path d="M575.151 76.6294C567.693 76.6294 562.139 71.7351 562.139 64.3147C562.139 57.0522 567.693 52 575.151 52C582.61 52 588.164 57.0522 588.164 64.3147C588.164 71.7351 582.61 76.6294 575.151 76.6294ZM564.043 94.6279C564.043 93.2069 564.836 92.4175 566.265 92.4175H584.038C585.466 92.4175 586.26 93.2069 586.26 94.6279V178.778C586.26 180.199 585.466 180.989 584.038 180.989H566.265C564.836 180.989 564.043 180.199 564.043 178.778V94.6279Z" fill="#FBEEEA"/>
<path d="M428.452 180.989C426.865 180.989 425.913 180.041 426.706 178.463L477.012 57.2098C477.488 55.9468 478.44 55.4731 479.551 55.4731H495.578C496.848 55.4731 497.642 55.9468 498.118 57.2098L548.582 178.463C548.74 178.778 548.74 179.094 548.74 179.41C548.74 180.357 548.106 180.989 546.836 180.989H525.095C523.984 180.989 523.032 180.515 522.556 179.252L513.669 155.886H461.301L452.256 179.252C451.779 180.515 450.986 180.989 449.716 180.989H428.452ZM469.236 134.414H505.417L487.327 86.8915L469.236 134.414Z" fill="#FBEEEA"/>
<path d="M464.72 305.627C464.01 305.627 463.584 305.201 463.939 304.491L486.446 249.963C486.659 249.395 487.085 249.182 487.582 249.182H494.753C495.321 249.182 495.676 249.395 495.889 249.963L518.467 304.491C518.538 304.633 518.538 304.775 518.538 304.917C518.538 305.343 518.254 305.627 517.686 305.627H507.959C507.462 305.627 507.036 305.414 506.823 304.846L502.847 294.338H479.417L475.37 304.846C475.157 305.414 474.802 305.627 474.234 305.627H464.72ZM482.967 284.682H499.155L491.061 263.311L482.967 284.682ZM527.301 305.627C526.662 305.627 526.307 305.272 526.307 304.633V250.176C526.307 249.537 526.662 249.182 527.301 249.182H535.679C536.247 249.182 536.673 249.537 536.673 250.176V304.633C536.673 305.272 536.247 305.627 535.679 305.627H527.301ZM592.2 305.627C591.632 305.627 591.277 305.414 591.064 304.846L568.983 250.318C568.912 250.176 568.841 250.034 568.841 249.892C568.841 249.466 569.196 249.182 569.764 249.182H579.42C579.988 249.182 580.414 249.395 580.556 249.963L595.892 291.214L611.086 249.963C611.228 249.395 611.725 249.182 612.293 249.182H621.807C622.517 249.182 622.872 249.679 622.588 250.318L600.507 304.846C600.294 305.414 599.868 305.627 599.371 305.627H592.2ZM642.1 306.408C629.32 306.408 621.013 297.817 621.013 285.747C621.013 273.606 629.32 265.015 642.1 265.015C654.88 265.015 663.187 273.606 663.187 285.747C663.187 297.817 654.88 306.408 642.1 306.408ZM631.308 285.747C631.308 292.563 635.71 297.32 642.1 297.32C648.49 297.32 652.892 292.563 652.892 285.747C652.892 278.86 648.49 274.103 642.1 274.103C635.71 274.103 631.308 278.86 631.308 285.747ZM676.307 258.696C672.97 258.696 670.485 256.495 670.485 253.158C670.485 249.892 672.97 247.62 676.307 247.62C679.644 247.62 682.129 249.892 682.129 253.158C682.129 256.495 679.644 258.696 676.307 258.696ZM671.337 266.79C671.337 266.151 671.692 265.796 672.331 265.796H680.283C680.922 265.796 681.277 266.151 681.277 266.79V304.633C681.277 305.272 680.922 305.627 680.283 305.627H672.331C671.692 305.627 671.337 305.272 671.337 304.633V266.79ZM709.896 306.408C697.329 306.408 689.448 297.959 689.448 285.747C689.448 273.464 697.4 265.015 709.825 265.015C718.771 265.015 725.019 268.707 727.93 276.588C728.001 276.73 728.001 276.872 728.001 276.943C728.001 277.369 727.717 277.724 727.22 277.866L720.617 279.783L720.262 279.854C719.907 279.854 719.552 279.57 719.268 279.144C717.493 275.807 714.582 274.103 710.464 274.103C703.222 274.103 699.743 279.428 699.743 285.747C699.743 291.995 703.222 297.32 710.464 297.32C714.582 297.32 717.706 295.545 719.339 291.995C719.694 291.498 720.12 291.214 720.688 291.427L728.001 293.202C728.569 293.344 728.853 293.77 728.569 294.409C725.445 302.645 718.7 306.408 709.896 306.408ZM754.056 306.408C741.489 306.408 733.892 297.817 733.892 285.747C733.892 273.606 741.489 265.015 754.056 265.015C766.268 265.015 773.297 274.103 772.871 287.806C772.8 288.445 772.445 288.8 771.806 288.8H744.542C745.465 294.267 748.802 297.533 754.127 297.533C758.174 297.533 761.014 296.042 762.86 292.989C763.215 292.492 763.641 292.421 764.209 292.563L771.025 294.906C771.664 295.19 771.877 295.616 771.593 296.255C768.043 303.213 761.44 306.408 754.056 306.408ZM762.221 281.345C761.298 276.659 758.245 273.89 753.985 273.89C749.299 273.89 745.891 276.588 744.684 281.345H762.221ZM806.725 305.627C806.086 305.627 805.731 305.272 805.731 304.633V250.176C805.731 249.537 806.086 249.182 806.725 249.182H815.103C815.671 249.182 816.097 249.537 816.097 250.176V304.633C816.097 305.272 815.671 305.627 815.103 305.627H806.725ZM828.475 305.627C827.836 305.627 827.481 305.272 827.481 304.633V266.79C827.481 266.151 827.836 265.796 828.475 265.796H835.717C836.285 265.796 836.782 266.08 836.782 266.79L836.995 271.547C839.835 267.287 844.663 265.015 849.633 265.015C855.597 265.015 859.999 267.642 862.129 272.328C865.04 267.5 870.294 265.015 875.761 265.015C884.423 265.015 889.748 270.553 889.748 279.712V304.633C889.748 305.272 889.322 305.627 888.754 305.627H880.731C880.092 305.627 879.737 305.272 879.737 304.633V283.759C879.737 277.156 877.252 274.103 872.637 274.103C867.951 274.103 863.62 277.724 863.62 285.321V304.633C863.62 305.272 863.194 305.627 862.626 305.627H854.603C853.964 305.627 853.609 305.272 853.609 304.633V283.759C853.609 277.156 851.124 274.103 846.509 274.103C841.823 274.103 837.421 277.724 837.421 285.321V304.633C837.421 305.272 837.066 305.627 836.427 305.627H828.475ZM904.838 258.696C901.501 258.696 899.016 256.495 899.016 253.158C899.016 249.892 901.501 247.62 904.838 247.62C908.175 247.62 910.66 249.892 910.66 253.158C910.66 256.495 908.175 258.696 904.838 258.696ZM899.868 266.79C899.868 266.151 900.223 265.796 900.862 265.796H908.814C909.453 265.796 909.808 266.151 909.808 266.79V304.633C909.808 305.272 909.453 305.627 908.814 305.627H900.862C900.223 305.627 899.868 305.272 899.868 304.633V266.79ZM935.8 306.408C927.209 306.408 922.452 301.012 922.452 290.22V274.742H916.63C915.991 274.742 915.636 274.316 915.636 273.748V266.79C915.636 266.151 915.991 265.796 916.63 265.796H922.452V255.075C922.452 254.507 922.807 254.081 923.446 254.081H931.469C932.037 254.081 932.463 254.507 932.463 255.075V265.796H941.906C942.545 265.796 942.9 266.151 942.9 266.79V273.748C942.9 274.316 942.545 274.742 941.906 274.742H932.463V290.859C932.463 295.19 933.812 297.32 936.936 297.32C938.214 297.32 939.137 296.752 939.918 295.403C940.202 294.835 940.699 294.622 941.267 294.906L947.302 297.604C947.657 297.817 947.87 298.101 947.87 298.456C947.87 298.669 947.799 298.953 947.586 299.237C944.746 304.491 940.344 306.408 935.8 306.408ZM968.753 306.408C957.393 306.408 950.151 297.959 950.151 285.747C950.151 273.464 957.393 265.015 968.753 265.015C974.291 265.015 978.906 267.358 981.746 271.263L982.03 266.79C982.03 266.08 982.456 265.796 983.095 265.796H990.266C990.905 265.796 991.331 266.151 991.331 266.79V304.633C991.331 305.272 990.905 305.627 990.266 305.627H983.095C982.456 305.627 982.03 305.343 982.03 304.633L981.746 300.16C978.906 304.065 974.291 306.408 968.753 306.408ZM960.446 285.747C960.446 292.563 964.848 297.32 971.238 297.32C977.628 297.32 982.03 292.563 982.03 285.747C982.03 278.86 977.628 274.103 971.238 274.103C964.848 274.103 960.446 278.86 960.446 285.747ZM1017.27 306.408C1008.68 306.408 1003.92 301.012 1003.92 290.22V274.742H998.1C997.461 274.742 997.106 274.316 997.106 273.748V266.79C997.106 266.151 997.461 265.796 998.1 265.796H1003.92V255.075C1003.92 254.507 1004.28 254.081 1004.92 254.081H1012.94C1013.51 254.081 1013.93 254.507 1013.93 255.075V265.796H1023.38C1024.01 265.796 1024.37 266.151 1024.37 266.79V273.748C1024.37 274.316 1024.01 274.742 1023.38 274.742H1013.93V290.859C1013.93 295.19 1015.28 297.32 1018.41 297.32C1019.68 297.32 1020.61 296.752 1021.39 295.403C1021.67 294.835 1022.17 294.622 1022.74 294.906L1028.77 297.604C1029.13 297.817 1029.34 298.101 1029.34 298.456C1029.34 298.669 1029.27 298.953 1029.06 299.237C1026.22 304.491 1021.81 306.408 1017.27 306.408ZM1039.7 258.696C1036.36 258.696 1033.87 256.495 1033.87 253.158C1033.87 249.892 1036.36 247.62 1039.7 247.62C1043.03 247.62 1045.52 249.892 1045.52 253.158C1045.52 256.495 1043.03 258.696 1039.7 258.696ZM1034.73 266.79C1034.73 266.151 1035.08 265.796 1035.72 265.796H1043.67C1044.31 265.796 1044.67 266.151 1044.67 266.79V304.633C1044.67 305.272 1044.31 305.627 1043.67 305.627H1035.72C1035.08 305.627 1034.73 305.272 1034.73 304.633V266.79ZM1073.92 306.408C1061.14 306.408 1052.84 297.817 1052.84 285.747C1052.84 273.606 1061.14 265.015 1073.92 265.015C1086.7 265.015 1095.01 273.606 1095.01 285.747C1095.01 297.817 1086.7 306.408 1073.92 306.408ZM1063.13 285.747C1063.13 292.563 1067.53 297.32 1073.92 297.32C1080.31 297.32 1084.72 292.563 1084.72 285.747C1084.72 278.86 1080.31 274.103 1073.92 274.103C1067.53 274.103 1063.13 278.86 1063.13 285.747ZM1104.15 305.627C1103.52 305.627 1103.16 305.272 1103.16 304.633V266.79C1103.16 266.151 1103.52 265.796 1104.15 265.796H1111.4C1111.96 265.796 1112.46 266.08 1112.46 266.79L1112.67 271.334C1115.59 267.074 1120.56 265.015 1125.67 265.015C1134.9 265.015 1140.22 270.553 1140.22 279.712V304.633C1140.22 305.272 1139.8 305.627 1139.23 305.627H1131.21C1130.57 305.627 1130.21 305.272 1130.21 304.633V283.759C1130.21 277.156 1127.8 274.103 1122.61 274.103C1117.72 274.103 1113.1 277.724 1113.1 285.321V304.633C1113.1 305.272 1112.75 305.627 1112.11 305.627H1104.15ZM1192.96 306.692C1182.45 306.692 1175.07 301.58 1172.09 291.782C1172.01 291.64 1172.01 291.498 1172.01 291.356C1172.01 290.93 1172.3 290.717 1172.72 290.575L1180.75 288.658C1180.89 288.587 1181.03 288.587 1181.1 288.587C1181.53 288.587 1181.81 288.871 1181.95 289.297C1184.01 294.267 1187.21 296.539 1192.96 296.539C1198.43 296.539 1202.12 294.764 1202.12 290.575C1202.12 286.457 1198.64 284.256 1192.89 282.197L1187.92 280.422C1178.9 277.298 1173.43 272.044 1173.43 263.95C1173.43 254.72 1181.67 248.117 1192.39 248.117C1201.83 248.117 1208.86 252.519 1211.7 261.891C1211.77 262.033 1211.77 262.175 1211.77 262.317C1211.77 262.672 1211.49 262.956 1211.06 263.098L1202.62 265.228C1202.47 265.299 1202.33 265.299 1202.19 265.299C1201.83 265.299 1201.55 265.015 1201.34 264.589C1199.49 259.974 1196.58 258.27 1192.39 258.27C1187.42 258.27 1184.23 260.329 1184.23 263.666C1184.23 267.145 1187.14 269.488 1193.74 271.689L1197.72 273.038C1207.94 276.375 1212.91 281.274 1212.91 290.575C1212.91 299.947 1204.75 306.692 1192.96 306.692ZM1225.95 322.383C1225.24 322.383 1224.96 321.957 1225.17 321.247L1232.49 303.071L1216.51 266.932C1216.44 266.79 1216.37 266.577 1216.37 266.435C1216.37 266.08 1216.72 265.796 1217.29 265.796H1226.81C1227.37 265.796 1227.73 266.009 1227.94 266.577L1237.67 291.001L1247.11 266.577C1247.33 266.009 1247.75 265.796 1248.25 265.796H1257.05C1257.69 265.796 1258.12 266.293 1257.76 266.932L1235.47 321.602C1235.26 322.17 1234.9 322.383 1234.33 322.383H1225.95ZM1277.39 306.408C1268.73 306.408 1262.62 302.716 1260.07 295.758C1259.99 295.616 1259.99 295.545 1259.99 295.403C1259.99 294.977 1260.28 294.693 1260.78 294.551L1267.8 292.634L1268.09 292.563C1268.51 292.563 1268.87 292.847 1269.01 293.273C1270.86 296.468 1273.63 297.533 1277.03 297.533C1280.37 297.533 1282.86 296.894 1282.86 294.622C1282.86 292.918 1281.15 291.995 1276.96 290.788L1275.05 290.22C1265.46 287.522 1261.77 282.836 1261.77 276.73C1261.77 269.914 1267.95 265.015 1276.96 265.015C1284.63 265.015 1290.1 268.281 1292.51 275.026C1292.58 275.168 1292.65 275.381 1292.65 275.523C1292.65 275.878 1292.37 276.162 1291.94 276.233L1284.92 278.505C1284.77 278.576 1284.63 278.576 1284.49 278.576C1284.13 278.576 1283.85 278.363 1283.64 277.937C1282.22 275.452 1280.16 273.89 1276.75 273.89C1274.19 273.89 1272.06 274.671 1272.06 276.73C1272.06 278.576 1273.84 279.641 1278.24 280.706L1280.09 281.203C1289.89 283.617 1293.15 287.806 1293.15 294.409C1293.15 301.722 1286.55 306.408 1277.39 306.408ZM1317.84 306.408C1309.25 306.408 1304.49 301.012 1304.49 290.22V274.742H1298.67C1298.03 274.742 1297.68 274.316 1297.68 273.748V266.79C1297.68 266.151 1298.03 265.796 1298.67 265.796H1304.49V255.075C1304.49 254.507 1304.85 254.081 1305.49 254.081H1313.51C1314.08 254.081 1314.5 254.507 1314.5 255.075V265.796H1323.95C1324.59 265.796 1324.94 266.151 1324.94 266.79V273.748C1324.94 274.316 1324.59 274.742 1323.95 274.742H1314.5V290.859C1314.5 295.19 1315.85 297.32 1318.98 297.32C1320.25 297.32 1321.18 296.752 1321.96 295.403C1322.24 294.835 1322.74 294.622 1323.31 294.906L1329.34 297.604C1329.7 297.817 1329.91 298.101 1329.91 298.456C1329.91 298.669 1329.84 298.953 1329.63 299.237C1326.79 304.491 1322.38 306.408 1317.84 306.408ZM1352.36 306.408C1339.79 306.408 1332.19 297.817 1332.19 285.747C1332.19 273.606 1339.79 265.015 1352.36 265.015C1364.57 265.015 1371.6 274.103 1371.17 287.806C1371.1 288.445 1370.74 288.8 1370.11 288.8H1342.84C1343.76 294.267 1347.1 297.533 1352.43 297.533C1356.47 297.533 1359.31 296.042 1361.16 292.989C1361.51 292.492 1361.94 292.421 1362.51 292.563L1369.32 294.906C1369.96 295.19 1370.18 295.616 1369.89 296.255C1366.34 303.213 1359.74 306.408 1352.36 306.408ZM1360.52 281.345C1359.6 276.659 1356.54 273.89 1352.28 273.89C1347.6 273.89 1344.19 276.588 1342.98 281.345H1360.52ZM1379.63 305.627C1378.99 305.627 1378.63 305.272 1378.63 304.633V266.79C1378.63 266.151 1378.99 265.796 1379.63 265.796H1386.87C1387.44 265.796 1387.93 266.08 1387.93 266.79L1388.15 271.547C1390.99 267.287 1395.81 265.015 1400.78 265.015C1406.75 265.015 1411.15 267.642 1413.28 272.328C1416.19 267.5 1421.45 265.015 1426.91 265.015C1435.57 265.015 1440.9 270.553 1440.9 279.712V304.633C1440.9 305.272 1440.47 305.627 1439.91 305.627H1431.88C1431.24 305.627 1430.89 305.272 1430.89 304.633V283.759C1430.89 277.156 1428.4 274.103 1423.79 274.103C1419.1 274.103 1414.77 277.724 1414.77 285.321V304.633C1414.77 305.272 1414.35 305.627 1413.78 305.627H1405.75C1405.12 305.627 1404.76 305.272 1404.76 304.633V283.759C1404.76 277.156 1402.28 274.103 1397.66 274.103C1392.97 274.103 1388.57 277.724 1388.57 285.321V304.633C1388.57 305.272 1388.22 305.627 1387.58 305.627H1379.63Z" fill="#D2D3D4"/>
<defs>
<linearGradient id="paint0_linear_669_4229" x1="175" y1="0" x2="175" y2="350" gradientUnits="userSpaceOnUse">
<stop offset="0.344667" stop-color="#55ACEE"/>
<stop offset="1" stop-color="#41A2EC"/>
</linearGradient>
</defs>
</svg>
