<svg width="191" height="42" viewBox="0 0 191 42" fill="none" xmlns="http://www.w3.org/2000/svg">
<g clip-path="url(#clip0_290_1322)">
<path d="M19.6782 18.3563C20.4073 19.0867 21.5915 19.0867 22.3218 18.3563L29.5925 11.0868C30.3217 10.3565 30.3217 9.1735 29.5925 8.44317L22.3218 1.17367C21.5927 0.443332 20.4085 0.443332 19.6782 1.17367L12.4075 8.44317C11.6772 9.1735 11.6772 10.3565 12.4075 11.0868L19.6782 18.3563ZM30.9143 29.5913C31.6435 30.3217 32.8277 30.3217 33.558 29.5913L40.8287 22.3218C41.5578 21.5915 41.5578 20.4085 40.8287 19.6782L33.558 12.4087C32.8288 11.6783 31.6447 11.6783 30.9143 12.4087L23.6437 19.6782C22.9133 20.4085 22.9133 21.5915 23.6437 22.3218L30.9143 29.5913ZM29.5913 30.9143L22.3218 23.6437C21.5915 22.9133 20.4085 22.9133 19.6782 23.6437L12.4087 30.9143C11.6783 31.6447 11.6783 32.8265 12.4087 33.5568L19.6782 40.8275C20.4085 41.5567 21.5915 41.5567 22.3218 40.8275L29.5913 33.5568C30.3217 32.8265 30.3217 31.6447 29.5913 30.9143ZM18.3563 19.6793L11.0868 12.4087C10.3565 11.6783 9.1735 11.6783 8.44317 12.4087L1.17367 19.6793C0.443332 20.4097 0.443332 21.5915 1.17367 22.3218L8.44317 29.5925C9.1735 30.3217 10.3565 30.3217 11.0868 29.5925L18.3563 22.3218C19.0867 21.5915 19.0867 20.4097 18.3563 19.6793Z" fill="#55ACEE"/>
<path d="M18.3563 19.6793L14.6066 15.9285C13.4995 17.3226 12.8333 19.082 12.8333 21C12.8333 22.918 13.4995 24.6785 14.6066 26.0715L18.3563 22.3218C19.0866 21.5915 19.0866 20.4096 18.3563 19.6793ZM26.0726 27.3933L22.3218 23.6425C21.5926 22.9145 20.4085 22.9145 19.6781 23.6425L15.9273 27.3933C17.3215 28.5005 19.082 29.1666 21 29.1666C22.918 29.1666 24.6785 28.5005 26.0726 27.3933ZM23.6436 22.3218L27.3945 26.0726C28.5005 24.6785 29.1666 22.918 29.1666 21C29.1666 19.082 28.5005 17.3215 27.3933 15.9285L23.6425 19.6793C22.9145 20.4096 22.9145 21.5915 23.6436 22.3218ZM22.3218 18.3563L26.0726 14.6066C24.6785 13.4995 22.918 12.8333 21 12.8333C19.082 12.8333 17.3215 13.4995 15.9285 14.6066L19.6793 18.3563C20.4085 19.0866 21.5915 19.0866 22.3218 18.3563Z" fill="#3B88C3"/>
<path d="M21 26.8334C24.2217 26.8334 26.8334 24.2217 26.8334 21C26.8334 17.7784 24.2217 15.1667 21 15.1667C17.7784 15.1667 15.1667 17.7784 15.1667 21C15.1667 24.2217 17.7784 26.8334 21 26.8334Z" fill="#BBDDF5"/>
<path d="M21 26.8334C24.2217 26.8334 26.8334 24.2217 26.8334 21C26.8334 17.7784 24.2217 15.1667 21 15.1667C17.7784 15.1667 15.1667 17.7784 15.1667 21C15.1667 24.2217 17.7784 26.8334 21 26.8334Z" fill="#E9F5BB"/>
</g>
<path d="M50.56 21.592C50.4 21.592 50.304 21.496 50.384 21.336L55.456 9.048C55.504 8.92 55.6 8.872 55.712 8.872H57.328C57.456 8.872 57.536 8.92 57.584 9.048L62.672 21.336C62.688 21.368 62.688 21.4 62.688 21.432C62.688 21.528 62.624 21.592 62.496 21.592H60.304C60.192 21.592 60.096 21.544 60.048 21.416L59.152 19.048H53.872L52.96 21.416C52.912 21.544 52.832 21.592 52.704 21.592H50.56ZM54.672 16.872H58.32L56.496 12.056L54.672 16.872ZM64.6629 21.592C64.5189 21.592 64.4389 21.512 64.4389 21.368V9.096C64.4389 8.952 64.5189 8.872 64.6629 8.872H66.5509C66.6789 8.872 66.7749 8.952 66.7749 9.096V21.368C66.7749 21.512 66.6789 21.592 66.5509 21.592H64.6629ZM73.7723 21.592C73.6443 21.592 73.5643 21.544 73.5163 21.416L68.5403 9.128C68.5243 9.096 68.5083 9.064 68.5083 9.032C68.5083 8.936 68.5883 8.872 68.7163 8.872H70.8923C71.0203 8.872 71.1163 8.92 71.1483 9.048L74.6043 18.344L78.0283 9.048C78.0603 8.92 78.1723 8.872 78.3003 8.872H80.4443C80.6043 8.872 80.6843 8.984 80.6203 9.128L75.6443 21.416C75.5963 21.544 75.5003 21.592 75.3883 21.592H73.7723ZM82.616 21.592C82.472 21.592 82.392 21.512 82.392 21.368V9.096C82.392 8.952 82.472 8.872 82.616 8.872H84.6C84.728 8.872 84.808 8.92 84.872 9.032L89.272 16.344L93.608 9.032C93.672 8.92 93.752 8.872 93.88 8.872H95.816C95.96 8.872 96.04 8.952 96.04 9.096V21.368C96.04 21.512 95.96 21.592 95.816 21.592H94.008C93.88 21.592 93.784 21.512 93.784 21.368V12.776L90.056 19.016C90.008 19.112 89.928 19.16 89.8 19.16H88.632C88.504 19.16 88.424 19.112 88.36 19.016L84.632 12.856V21.368C84.632 21.512 84.552 21.592 84.408 21.592H82.616ZM110.185 21.832C106.441 21.832 103.929 19.224 103.929 15.24C103.929 11.24 106.553 8.632 110.217 8.632C112.889 8.632 114.809 9.88 115.657 12.04C115.673 12.072 115.673 12.104 115.673 12.136C115.673 12.248 115.625 12.312 115.513 12.344L113.657 12.856L113.593 12.872C113.497 12.872 113.417 12.824 113.385 12.728C112.777 11.56 111.689 10.92 110.249 10.92C107.801 10.92 106.345 12.648 106.345 15.256C106.345 17.848 107.817 19.544 110.249 19.544C112.121 19.544 113.529 18.584 113.721 16.728H110.537C110.409 16.728 110.313 16.632 110.313 16.504V14.776C110.313 14.648 110.409 14.552 110.537 14.552H115.849C115.977 14.552 116.073 14.648 116.073 14.776V16.216C116.073 19.384 114.009 21.832 110.185 21.832ZM122.231 21.768C119.399 21.768 117.687 19.832 117.687 17.112C117.687 14.376 119.399 12.44 122.231 12.44C124.983 12.44 126.567 14.488 126.471 17.576C126.455 17.72 126.375 17.8 126.231 17.8H120.087C120.295 19.032 121.047 19.768 122.247 19.768C123.159 19.768 123.799 19.432 124.215 18.744C124.295 18.632 124.391 18.616 124.519 18.648L126.055 19.176C126.199 19.24 126.247 19.336 126.183 19.48C125.383 21.048 123.895 21.768 122.231 21.768ZM124.071 16.12C123.863 15.064 123.175 14.44 122.215 14.44C121.159 14.44 120.391 15.048 120.119 16.12H124.071ZM128.377 21.592C128.233 21.592 128.153 21.512 128.153 21.368V12.84C128.153 12.696 128.233 12.616 128.377 12.616H130.009C130.137 12.616 130.249 12.68 130.249 12.84L130.297 13.864C130.953 12.904 132.073 12.44 133.225 12.44C135.305 12.44 136.505 13.688 136.505 15.752V21.368C136.505 21.512 136.409 21.592 136.281 21.592H134.473C134.329 21.592 134.249 21.512 134.249 21.368V16.664C134.249 15.176 133.705 14.488 132.537 14.488C131.433 14.488 130.393 15.304 130.393 17.016V21.368C130.393 21.512 130.313 21.592 130.169 21.592H128.377ZM142.809 21.768C139.977 21.768 138.265 19.832 138.265 17.112C138.265 14.376 139.977 12.44 142.809 12.44C145.561 12.44 147.145 14.488 147.049 17.576C147.033 17.72 146.953 17.8 146.809 17.8H140.665C140.873 19.032 141.625 19.768 142.825 19.768C143.737 19.768 144.377 19.432 144.793 18.744C144.873 18.632 144.969 18.616 145.097 18.648L146.633 19.176C146.777 19.24 146.825 19.336 146.761 19.48C145.961 21.048 144.473 21.768 142.809 21.768ZM144.649 16.12C144.441 15.064 143.753 14.44 142.793 14.44C141.737 14.44 140.969 15.048 140.697 16.12H144.649ZM148.955 21.592C148.811 21.592 148.731 21.512 148.731 21.368V12.84C148.731 12.696 148.811 12.616 148.955 12.616H150.587C150.715 12.616 150.827 12.68 150.827 12.84L150.875 13.96C151.483 13 152.539 12.488 153.611 12.488C153.867 12.488 154.043 12.52 154.219 12.552C154.363 12.584 154.411 12.664 154.411 12.792V14.568C154.411 14.712 154.331 14.76 154.219 14.76C153.979 14.76 153.707 14.696 153.339 14.696C152.123 14.696 150.971 15.528 150.971 16.952V21.368C150.971 21.512 150.891 21.592 150.747 21.592H148.955ZM159.442 21.768C156.882 21.768 155.25 19.864 155.25 17.112C155.25 14.344 156.882 12.44 159.442 12.44C160.69 12.44 161.73 12.968 162.37 13.848L162.434 12.84C162.434 12.68 162.53 12.616 162.674 12.616H164.29C164.434 12.616 164.53 12.696 164.53 12.84V21.368C164.53 21.512 164.434 21.592 164.29 21.592H162.674C162.53 21.592 162.434 21.528 162.434 21.368L162.37 20.36C161.73 21.24 160.69 21.768 159.442 21.768ZM157.57 17.112C157.57 18.648 158.562 19.72 160.002 19.72C161.442 19.72 162.434 18.648 162.434 17.112C162.434 15.56 161.442 14.488 160.002 14.488C158.562 14.488 157.57 15.56 157.57 17.112ZM170.375 21.768C168.439 21.768 167.367 20.552 167.367 18.12V14.632H166.055C165.911 14.632 165.831 14.536 165.831 14.408V12.84C165.831 12.696 165.911 12.616 166.055 12.616H167.367V10.2C167.367 10.072 167.447 9.976 167.591 9.976H169.399C169.527 9.976 169.623 10.072 169.623 10.2V12.616H171.751C171.895 12.616 171.975 12.696 171.975 12.84V14.408C171.975 14.536 171.895 14.632 171.751 14.632H169.623V18.264C169.623 19.24 169.927 19.72 170.631 19.72C170.919 19.72 171.127 19.592 171.303 19.288C171.367 19.16 171.479 19.112 171.607 19.176L172.967 19.784C173.047 19.832 173.095 19.896 173.095 19.976C173.095 20.024 173.079 20.088 173.031 20.152C172.391 21.336 171.399 21.768 170.375 21.768ZM178.361 21.768C175.481 21.768 173.609 19.832 173.609 17.112C173.609 14.376 175.481 12.44 178.361 12.44C181.241 12.44 183.113 14.376 183.113 17.112C183.113 19.832 181.241 21.768 178.361 21.768ZM175.929 17.112C175.929 18.648 176.921 19.72 178.361 19.72C179.801 19.72 180.793 18.648 180.793 17.112C180.793 15.56 179.801 14.488 178.361 14.488C176.921 14.488 175.929 15.56 175.929 17.112ZM185.174 21.592C185.03 21.592 184.95 21.512 184.95 21.368V12.84C184.95 12.696 185.03 12.616 185.174 12.616H186.806C186.934 12.616 187.046 12.68 187.046 12.84L187.094 13.96C187.702 13 188.758 12.488 189.83 12.488C190.086 12.488 190.262 12.52 190.438 12.552C190.582 12.584 190.63 12.664 190.63 12.792V14.568C190.63 14.712 190.55 14.76 190.438 14.76C190.198 14.76 189.926 14.696 189.558 14.696C188.342 14.696 187.19 15.528 187.19 16.952V21.368C187.19 21.512 187.11 21.592 186.966 21.592H185.174Z" fill="#FBEEEA"/>
<path d="M51.469 28.8025V28.48C51.469 28.42 51.5065 28.39 51.559 28.39H54.1465V27.805C54.1465 27.745 54.184 27.715 54.2365 27.715H54.6415C54.7015 27.715 54.7315 27.745 54.7315 27.805V28.39H57.3415C57.4015 28.39 57.4315 28.42 57.4315 28.48V28.8025C57.4315 28.8625 57.4015 28.8925 57.3415 28.8925H56.4115C56.299 29.275 56.149 29.7325 55.984 30.1H57.754C57.814 30.1 57.844 30.13 57.844 30.19V30.5125C57.844 30.5725 57.814 30.6025 57.754 30.6025H51.1315C51.0715 30.6025 51.0415 30.5725 51.0415 30.5125V30.19C51.0415 30.13 51.0715 30.1 51.1315 30.1H52.939C52.8265 29.725 52.6615 29.2825 52.489 28.8925H51.559C51.5065 28.8925 51.469 28.8625 51.469 28.8025ZM53.524 30.1H55.3915C55.564 29.7175 55.7215 29.26 55.8265 28.8925H53.089C53.2465 29.2675 53.3965 29.6875 53.524 30.1ZM51.9115 34.2475V31.3525C51.9115 31.2925 51.9415 31.2625 52.0015 31.2625H56.9215C56.9815 31.2625 57.0115 31.2925 57.0115 31.3525V34.2475C57.0115 34.3075 56.9815 34.3375 56.9215 34.3375H52.0015C51.9415 34.3375 51.9115 34.3075 51.9115 34.2475ZM52.459 32.545H56.449V31.765H52.459V32.545ZM52.459 33.8425H56.449V33.0175H52.459V33.8425ZM58.6765 28.7875V28.4575C58.6765 28.3975 58.7065 28.3675 58.7665 28.3675H61.654V27.7825C61.654 27.7225 61.684 27.6925 61.744 27.6925H62.1265C62.1865 27.6925 62.2165 27.7225 62.2165 27.7825V28.3675H65.1265C65.179 28.3675 65.2165 28.3975 65.2165 28.4575V28.7875C65.2165 28.84 65.179 28.8775 65.1265 28.8775H62.2165V29.665H64.7815C64.8415 29.665 64.8715 29.695 64.8715 29.755V30.0775C64.8715 30.1375 64.8415 30.1675 64.7815 30.1675H59.1265C59.0665 30.1675 59.0365 30.1375 59.0365 30.0775V29.755C59.0365 29.695 59.0665 29.665 59.1265 29.665H61.654V28.8775H58.7665C58.7065 28.8775 58.6765 28.84 58.6765 28.7875ZM58.8865 34.5775L58.5265 34.39C58.4665 34.36 58.459 34.315 58.504 34.27C59.059 33.6625 59.194 32.77 59.1865 32.02C59.1865 31.825 59.179 31.1425 59.179 30.88C59.179 30.8275 59.209 30.79 59.269 30.79H64.7065C64.7665 30.79 64.7965 30.8275 64.7965 30.88V32.815C64.7965 32.8675 64.7665 32.905 64.7065 32.905H59.6815C59.599 33.5125 59.3965 34.0975 59.0065 34.555C58.969 34.5925 58.9315 34.6 58.8865 34.5775ZM59.7265 32.395H61.7065V31.285H59.719C59.7265 31.69 59.734 31.9825 59.7265 32.32V32.395ZM62.2165 32.395H64.2715V31.285H62.2165V32.395ZM66.244 30.5125L66.0565 30.1075C66.034 30.055 66.049 30.01 66.109 29.9875C67.3765 29.4925 68.464 28.615 69.1015 27.775C69.1315 27.7375 69.169 27.7225 69.214 27.7225H69.649C69.694 27.7225 69.7315 27.7375 69.7615 27.775C70.5265 28.66 71.5465 29.4025 72.814 29.92C72.8665 29.9425 72.889 29.9875 72.859 30.04L72.679 30.4525C72.6565 30.505 72.6115 30.52 72.559 30.4975C71.3065 29.8975 70.249 29.125 69.4465 28.21C68.6815 29.2 67.5565 30.0025 66.364 30.5575C66.3115 30.58 66.2665 30.565 66.244 30.5125ZM67.519 30.43V30.0625C67.519 30.0025 67.5565 29.9725 67.609 29.9725H71.3215C71.3815 29.9725 71.4115 30.0025 71.4115 30.0625V30.43C71.4115 30.49 71.3815 30.52 71.3215 30.52H67.609C67.5565 30.52 67.519 30.49 67.519 30.43ZM66.9265 34.2325V31.585C66.9265 31.525 66.9565 31.495 67.0165 31.495H71.9215C71.9815 31.495 72.0115 31.525 72.0115 31.585V34.2325C72.0115 34.2925 71.9815 34.3225 71.9215 34.3225H67.0165C66.9565 34.3225 66.9265 34.2925 66.9265 34.2325ZM67.4815 33.7825H71.4565V32.0275H67.4815V33.7825ZM74.209 28.9375H77.164C77.149 28.5475 77.134 28.1725 77.1265 27.8125C77.1265 27.7525 77.1565 27.7225 77.2165 27.7225L77.6065 27.715C77.6665 27.715 77.6965 27.745 77.6965 27.805C77.704 28.165 77.7115 28.5475 77.7265 28.9375H80.119C80.179 28.9375 80.209 28.9675 80.209 29.0275V29.3725C80.209 29.4325 80.179 29.4625 80.119 29.4625H77.7565C77.824 30.4075 77.9665 31.3675 78.2665 32.2C78.694 31.6225 79.024 30.9625 79.2415 30.22C79.2565 30.16 79.294 30.145 79.354 30.16L79.6765 30.2725C79.729 30.2875 79.7515 30.3325 79.729 30.385C79.4515 31.255 79.039 32.05 78.484 32.74C78.619 33.0325 79.0765 33.88 79.4515 33.88C79.7965 33.88 79.969 33.2275 80.0365 32.5975C80.044 32.5225 80.0965 32.5 80.149 32.5525L80.4415 32.815C80.479 32.845 80.494 32.8825 80.4865 32.9275C80.3515 33.9025 79.984 34.5475 79.474 34.5475C78.889 34.5475 78.3265 33.6775 78.079 33.1975C77.5465 33.7525 76.909 34.21 76.1815 34.5475C76.129 34.57 76.0915 34.5625 76.054 34.5175L75.7765 34.2175C75.7315 34.165 75.739 34.12 75.8065 34.09C76.6015 33.7525 77.2915 33.28 77.854 32.6875C77.464 31.72 77.284 30.5725 77.2015 29.4625H74.674C74.674 29.8225 74.674 30.1975 74.674 30.5575H76.489C76.549 30.5575 76.579 30.5875 76.579 30.6475C76.594 31.15 76.5865 31.84 76.5565 32.32C76.5115 33.145 76.2115 33.58 75.1015 33.5575C75.049 33.5575 75.019 33.535 75.004 33.4825L74.8765 33.1075C74.854 33.0475 74.884 33.0025 74.959 33.01C75.7315 33.0325 75.979 32.8825 76.024 32.305C76.054 31.9225 76.054 31.2925 76.0465 31.06H74.674C74.6515 32.23 74.554 33.4225 74.0515 34.4875C74.029 34.54 73.984 34.555 73.9315 34.5325L73.549 34.345C73.4965 34.3225 73.4815 34.2775 73.5115 34.225C73.954 33.34 74.104 32.2825 74.119 30.7C74.1265 30.205 74.1265 29.5825 74.119 29.0275C74.119 28.9675 74.149 28.9375 74.209 28.9375ZM79.7065 28.6075L79.4515 28.84C79.4065 28.8775 79.3615 28.8775 79.324 28.8325C79.0615 28.5475 78.709 28.2775 78.3565 28.09C78.2965 28.0525 78.2965 28.0075 78.3415 27.9625L78.5815 27.745C78.6265 27.715 78.664 27.7075 78.709 27.73C79.069 27.925 79.4365 28.1875 79.714 28.48C79.7515 28.525 79.7515 28.57 79.7065 28.6075ZM81.5965 29.0275V28.675C81.5965 28.615 81.6265 28.585 81.6865 28.585H86.959C87.019 28.585 87.049 28.615 87.049 28.675V29.0275C87.049 29.0875 87.019 29.1175 86.959 29.1175H84.1165C84.109 29.65 84.094 30.2575 84.0865 30.835H87.2665C87.319 30.835 87.3565 30.865 87.3565 30.925V31.285C87.3565 31.345 87.319 31.375 87.2665 31.375H84.079C84.0715 31.825 84.0715 32.2375 84.0715 32.575C84.0715 33.16 84.2815 33.355 84.8515 33.43C85.069 33.4525 85.3165 33.4675 85.5865 33.4675C86.0815 33.4675 86.644 33.4225 87.2215 33.3475C87.2815 33.34 87.319 33.37 87.3115 33.43L87.2965 33.835C87.289 33.8875 87.259 33.9175 87.2065 33.925C86.6515 33.9925 86.1265 34.0225 85.6615 34.0225C85.309 34.0225 84.994 34.0075 84.724 33.9775C83.899 33.8875 83.4565 33.5575 83.4715 32.6425C83.4715 32.26 83.479 31.825 83.4865 31.375H81.4915C81.4315 31.375 81.4015 31.345 81.4015 31.285V30.925C81.4015 30.865 81.4315 30.835 81.4915 30.835H83.494C83.5015 30.25 83.509 29.6575 83.5165 29.1175H81.6865C81.6265 29.1175 81.5965 29.0875 81.5965 29.0275ZM95.5615 28.705L95.344 28.795C95.2915 28.8175 95.2465 28.8025 95.224 28.75C95.089 28.4125 94.8565 27.9925 94.6015 27.6775C94.5565 27.625 94.5715 27.58 94.6315 27.55L94.8265 27.475C94.879 27.4525 94.9165 27.4675 94.9465 27.505C95.1865 27.7975 95.4565 28.2325 95.614 28.5925C95.6365 28.645 95.614 28.69 95.5615 28.705ZM94.7515 28.9825L94.519 29.0725C94.4665 29.095 94.429 29.0725 94.4065 29.02C94.279 28.69 94.0615 28.2475 93.814 27.9175C93.7765 27.865 93.7915 27.82 93.8515 27.7975L94.054 27.715C94.1065 27.7 94.144 27.7075 94.174 27.7525C94.429 28.0675 94.6765 28.51 94.804 28.8625C94.8265 28.9225 94.804 28.96 94.7515 28.9825ZM89.659 28.9075V28.555C89.659 28.5025 89.689 28.465 89.749 28.465H93.9265C93.9865 28.465 94.0165 28.5025 94.0165 28.555V28.9075C94.0165 28.9675 93.9865 28.9975 93.9265 28.9975H89.749C89.689 28.9975 89.659 28.9675 89.659 28.9075ZM88.834 30.7675V30.415C88.834 30.3625 88.864 30.325 88.924 30.325H94.939C94.999 30.325 95.029 30.3625 95.029 30.415V30.775C95.029 30.8275 94.999 30.865 94.939 30.865H92.389C92.299 32.485 91.669 33.7525 89.8015 34.225C89.749 34.24 89.7115 34.225 89.6815 34.1875L89.3665 33.8425C89.3215 33.79 89.3365 33.7375 89.4115 33.7225C91.159 33.355 91.699 32.3125 91.774 30.8575H88.924C88.864 30.8575 88.834 30.8275 88.834 30.7675ZM98.9876 33.9175V28.5475C98.9876 28.4875 99.0176 28.4575 99.0776 28.4575H99.4901C99.5501 28.4575 99.5801 28.4875 99.5801 28.54C99.5726 29.695 99.5651 32.23 99.5576 33.2725C100.495 33.0325 101.44 32.1175 101.778 30.9775C101.8 30.91 101.845 30.895 101.898 30.9325L102.22 31.18C102.265 31.21 102.273 31.2475 102.258 31.2925C101.808 32.7025 100.585 33.8275 99.0851 34.0075C99.0251 34.015 98.9876 33.9775 98.9876 33.9175ZM95.8826 34.1125L95.5376 33.8125C95.4851 33.7675 95.4926 33.7225 95.5526 33.685C97.3451 32.725 97.2926 30.76 97.2626 28.66C97.2626 28.6 97.3001 28.57 97.3526 28.57H97.7576C97.8176 28.57 97.8476 28.6 97.8476 28.66C97.8551 31.0675 97.9151 32.92 96.0101 34.1275C95.9651 34.1575 95.9201 34.15 95.8826 34.1125ZM103.976 34.1275L103.751 33.7075C103.713 33.655 103.736 33.61 103.803 33.595C106.511 33.13 107.688 31.4875 107.981 29.4475L103.353 29.47C103.293 29.47 103.263 29.44 103.263 29.38V28.99C103.263 28.9375 103.293 28.9 103.353 28.9L108.566 28.8925C108.626 28.8925 108.656 28.93 108.656 28.99C108.393 31.7725 107.006 33.58 104.088 34.18C104.036 34.1875 103.998 34.1725 103.976 34.1275ZM114.053 32.3575L113.79 32.0875C113.738 32.0425 113.753 31.99 113.813 31.9675C114.795 31.6 115.32 30.7825 115.478 29.95C114.645 29.95 112.298 29.965 111.15 29.9725C111.09 29.9725 111.06 29.935 111.06 29.8825V29.545C111.06 29.485 111.09 29.455 111.15 29.455H115.995C116.055 29.455 116.085 29.485 116.078 29.545C115.95 30.865 115.305 31.855 114.18 32.38C114.128 32.4025 114.09 32.395 114.053 32.3575ZM111.458 34.165L111.21 33.8425C111.165 33.7825 111.18 33.7375 111.248 33.7225C112.785 33.28 113.303 32.1625 113.25 30.67C113.243 30.61 113.273 30.58 113.333 30.58H113.693C113.753 30.58 113.783 30.61 113.783 30.67C113.82 32.3725 113.183 33.6325 111.578 34.2025C111.525 34.2175 111.488 34.2025 111.458 34.165ZM117.959 32.3575L117.704 31.96C117.674 31.9 117.689 31.855 117.757 31.84C119.924 31.2475 121.672 29.95 122.722 28.255C122.752 28.2025 122.797 28.195 122.849 28.2175L123.254 28.4125C123.314 28.435 123.329 28.48 123.292 28.5325C122.789 29.29 122.219 29.935 121.582 30.4825V34.21C121.582 34.27 121.552 34.3 121.492 34.3H121.057C120.997 34.3 120.967 34.27 120.967 34.21L120.974 30.955C120.074 31.6 119.099 32.08 118.079 32.4025C118.027 32.4175 117.989 32.4025 117.959 32.3575ZM127.559 33.9175V28.5475C127.559 28.4875 127.589 28.4575 127.649 28.4575H128.062C128.122 28.4575 128.152 28.4875 128.152 28.54C128.144 29.695 128.137 32.23 128.129 33.2725C129.067 33.0325 130.012 32.1175 130.349 30.9775C130.372 30.91 130.417 30.895 130.469 30.9325L130.792 31.18C130.837 31.21 130.844 31.2475 130.829 31.2925C130.379 32.7025 129.157 33.8275 127.657 34.0075C127.597 34.015 127.559 33.9775 127.559 33.9175ZM124.454 34.1125L124.109 33.8125C124.057 33.7675 124.064 33.7225 124.124 33.685C125.917 32.725 125.864 30.76 125.834 28.66C125.834 28.6 125.872 28.57 125.924 28.57H126.329C126.389 28.57 126.419 28.6 126.419 28.66C126.427 31.0675 126.487 32.92 124.582 34.1275C124.537 34.1575 124.492 34.15 124.454 34.1125ZM131.999 31.09L131.639 30.8425C131.594 30.8125 131.587 30.7675 131.624 30.7225C132.269 29.995 132.719 29.005 132.959 28.09C132.967 28.0375 133.012 28.0075 133.064 28.015L133.462 28.09C133.522 28.105 133.544 28.1425 133.529 28.195C133.439 28.555 133.319 28.915 133.177 29.275H134.714V27.8125C134.714 27.76 134.752 27.7225 134.804 27.7225H135.232C135.284 27.7225 135.322 27.76 135.322 27.8125V29.275H137.864C137.917 29.275 137.954 29.3125 137.954 29.365V29.755C137.954 29.8075 137.917 29.845 137.864 29.845H135.322V31.42H137.504C137.557 31.42 137.594 31.4575 137.594 31.51V31.885C137.594 31.9375 137.557 31.975 137.504 31.975H135.322V33.7H138.299C138.352 33.7 138.389 33.7375 138.389 33.79V34.18C138.389 34.2325 138.352 34.27 138.299 34.27H131.632C131.579 34.27 131.542 34.2325 131.542 34.18V33.79C131.542 33.7375 131.579 33.7 131.632 33.7H134.714V31.975H132.517C132.464 31.975 132.427 31.9375 132.427 31.885V31.51C132.427 31.4575 132.464 31.42 132.517 31.42H134.714V29.845H132.922C132.689 30.31 132.419 30.745 132.127 31.075C132.097 31.1125 132.044 31.12 131.999 31.09ZM139.717 28.9375H142.672C142.657 28.5475 142.642 28.1725 142.634 27.8125C142.634 27.7525 142.664 27.7225 142.724 27.7225L143.114 27.715C143.174 27.715 143.204 27.745 143.204 27.805C143.212 28.165 143.219 28.5475 143.234 28.9375H145.627C145.687 28.9375 145.717 28.9675 145.717 29.0275V29.3725C145.717 29.4325 145.687 29.4625 145.627 29.4625H143.264C143.332 30.4075 143.474 31.3675 143.774 32.2C144.202 31.6225 144.532 30.9625 144.749 30.22C144.764 30.16 144.802 30.145 144.862 30.16L145.184 30.2725C145.237 30.2875 145.259 30.3325 145.237 30.385C144.959 31.255 144.547 32.05 143.992 32.74C144.127 33.0325 144.584 33.88 144.959 33.88C145.304 33.88 145.477 33.2275 145.544 32.5975C145.552 32.5225 145.604 32.5 145.657 32.5525L145.949 32.815C145.987 32.845 146.002 32.8825 145.994 32.9275C145.859 33.9025 145.492 34.5475 144.982 34.5475C144.397 34.5475 143.834 33.6775 143.587 33.1975C143.054 33.7525 142.417 34.21 141.689 34.5475C141.637 34.57 141.599 34.5625 141.562 34.5175L141.284 34.2175C141.239 34.165 141.247 34.12 141.314 34.09C142.109 33.7525 142.799 33.28 143.362 32.6875C142.972 31.72 142.792 30.5725 142.709 29.4625H140.182C140.182 29.8225 140.182 30.1975 140.182 30.5575H141.997C142.057 30.5575 142.087 30.5875 142.087 30.6475C142.102 31.15 142.094 31.84 142.064 32.32C142.019 33.145 141.719 33.58 140.609 33.5575C140.557 33.5575 140.527 33.535 140.512 33.4825L140.384 33.1075C140.362 33.0475 140.392 33.0025 140.467 33.01C141.239 33.0325 141.487 32.8825 141.532 32.305C141.562 31.9225 141.562 31.2925 141.554 31.06H140.182C140.159 32.23 140.062 33.4225 139.559 34.4875C139.537 34.54 139.492 34.555 139.439 34.5325L139.057 34.345C139.004 34.3225 138.989 34.2775 139.019 34.225C139.462 33.34 139.612 32.2825 139.627 30.7C139.634 30.205 139.634 29.5825 139.627 29.0275C139.627 28.9675 139.657 28.9375 139.717 28.9375ZM145.214 28.6075L144.959 28.84C144.914 28.8775 144.869 28.8775 144.832 28.8325C144.569 28.5475 144.217 28.2775 143.864 28.09C143.804 28.0525 143.804 28.0075 143.849 27.9625L144.089 27.745C144.134 27.715 144.172 27.7075 144.217 27.73C144.577 27.925 144.944 28.1875 145.222 28.48C145.259 28.525 145.259 28.57 145.214 28.6075ZM149.954 31.63C149.684 31.63 149.467 31.4275 149.467 31.15C149.467 30.8725 149.684 30.6625 149.954 30.6625C150.232 30.6625 150.449 30.8725 150.449 31.15C150.449 31.4275 150.232 31.63 149.954 31.63ZM154.042 31.5925L154.012 31.285C154.004 31.225 154.042 31.1875 154.102 31.1875C154.244 31.1875 154.394 31.1875 154.544 31.1875C154.732 30.9475 154.919 30.6775 155.114 30.385C154.852 30.0625 154.424 29.68 154.042 29.3425C154.004 29.305 153.997 29.2675 154.027 29.215L154.177 28.945C154.214 28.8925 154.259 28.885 154.304 28.9225C154.379 28.99 154.462 29.0575 154.537 29.1325C154.777 28.765 155.032 28.2325 155.204 27.7525C155.227 27.7 155.264 27.6775 155.317 27.7L155.617 27.82C155.677 27.835 155.692 27.88 155.669 27.9325C155.422 28.4575 155.144 29.02 154.867 29.44C155.047 29.62 155.212 29.8 155.369 29.98C155.602 29.59 155.827 29.185 156.014 28.795C156.037 28.7425 156.082 28.7275 156.134 28.7575L156.397 28.9075C156.442 28.9375 156.457 28.9825 156.427 29.0275C155.999 29.845 155.489 30.6175 155.069 31.18C155.422 31.165 155.767 31.1425 156.082 31.1125C156.037 30.94 155.977 30.7675 155.924 30.6175C155.902 30.5575 155.917 30.52 155.977 30.4975L156.194 30.43C156.247 30.415 156.284 30.4375 156.307 30.49C156.449 30.8875 156.577 31.3675 156.652 31.78C156.659 31.8325 156.637 31.87 156.584 31.885L156.352 31.9675C156.292 31.9825 156.254 31.96 156.239 31.9C156.224 31.78 156.202 31.66 156.179 31.5325C156.007 31.5625 155.812 31.585 155.602 31.6V34.48C155.602 34.54 155.572 34.57 155.512 34.57H155.212C155.152 34.57 155.122 34.54 155.122 34.48V31.6375C154.784 31.66 154.447 31.6825 154.139 31.6825C154.079 31.6825 154.049 31.6525 154.042 31.5925ZM160.762 28.435H156.674C156.614 28.435 156.584 28.405 156.584 28.345V28.075C156.584 28.015 156.614 27.985 156.674 27.985H160.762C160.822 27.985 160.852 28.015 160.852 28.075V28.345C160.852 28.405 160.822 28.435 160.762 28.435ZM156.734 34.39L156.449 34.2175C156.404 34.1875 156.389 34.15 156.412 34.0975C156.832 33.265 156.907 31.945 156.907 30.505C156.907 30.0325 156.899 29.38 156.899 29.14C156.899 29.08 156.929 29.05 156.989 29.05H160.537C160.597 29.05 160.627 29.08 160.627 29.14V30.625C160.627 30.685 160.597 30.715 160.537 30.715H157.394C157.402 32.2375 157.237 33.535 156.854 34.3525C156.832 34.405 156.787 34.42 156.734 34.39ZM157.402 30.28H160.147V29.485H157.394C157.394 29.7025 157.394 30.01 157.402 30.28ZM157.852 34.57H157.612C157.552 34.57 157.522 34.54 157.522 34.48V31.375C157.522 31.315 157.552 31.285 157.612 31.285H160.612C160.672 31.285 160.702 31.315 160.702 31.375V33.715C160.702 34.24 160.649 34.525 160.019 34.5475C159.967 34.5475 159.929 34.525 159.914 34.4725L159.824 34.195C159.809 34.1275 159.839 34.09 159.907 34.09C160.237 34.0825 160.282 33.9775 160.282 33.7V33.025H159.689V34.2475C159.689 34.3075 159.659 34.3375 159.599 34.3375H159.389C159.329 34.3375 159.299 34.3075 159.299 34.2475V33.025H158.834V34.2625C158.834 34.3225 158.804 34.3525 158.744 34.3525H158.534C158.474 34.3525 158.444 34.3225 158.444 34.2625V33.025H157.942V34.48C157.942 34.54 157.912 34.57 157.852 34.57ZM157.942 32.65H158.444V31.675H157.942V32.65ZM158.834 32.65H159.299V31.675H158.834V32.65ZM159.689 32.65H160.282V31.675H159.689V32.65ZM156.449 33.565L156.209 33.625C156.149 33.64 156.112 33.6175 156.104 33.55C156.074 33.1375 155.999 32.665 155.902 32.3125C155.894 32.2525 155.909 32.215 155.969 32.2L156.179 32.155C156.232 32.1475 156.269 32.17 156.284 32.2225C156.389 32.575 156.487 33.055 156.517 33.46C156.524 33.5125 156.502 33.55 156.449 33.565ZM154.342 34.2625L154.057 34.1875C154.004 34.1725 153.982 34.135 153.997 34.075C154.184 33.52 154.297 32.8075 154.334 32.2375C154.342 32.1775 154.372 32.155 154.432 32.155L154.694 32.1925C154.754 32.1925 154.784 32.23 154.777 32.29C154.724 32.8675 154.627 33.6025 154.447 34.2025C154.432 34.255 154.394 34.2775 154.342 34.2625ZM167.879 31.645H165.217L165.209 32.185H168.142C168.202 32.185 168.232 32.215 168.232 32.275V32.5675C168.232 32.6275 168.202 32.6575 168.142 32.6575L165.509 32.6275C166.214 33.175 167.144 33.595 168.209 33.8275C168.277 33.8425 168.292 33.8875 168.262 33.94L168.059 34.2925C168.037 34.3375 167.999 34.3525 167.947 34.3375C166.852 34.045 165.869 33.5125 165.209 32.95L165.224 34.495C165.224 34.555 165.194 34.585 165.134 34.585H164.759C164.699 34.585 164.669 34.555 164.669 34.495L164.684 32.98C163.949 33.6475 163.042 34.105 162.014 34.405C161.962 34.42 161.924 34.405 161.902 34.36L161.692 34.0225C161.662 33.97 161.677 33.925 161.744 33.9025C162.809 33.6175 163.777 33.19 164.414 32.6275L161.767 32.6575C161.707 32.6575 161.677 32.6275 161.677 32.5675V32.275C161.677 32.215 161.707 32.185 161.767 32.185H164.684L164.677 31.645H162.592C162.532 31.645 162.502 31.615 162.502 31.555V29.4325C162.292 29.6575 162.059 29.8825 161.834 30.055C161.789 30.085 161.744 30.0775 161.707 30.025L161.497 29.695C161.467 29.6425 161.482 29.605 161.527 29.5675C162.187 29.1325 162.824 28.435 163.169 27.7375C163.199 27.6925 163.229 27.67 163.282 27.685L163.642 27.7525C163.709 27.7675 163.732 27.8125 163.694 27.865C163.597 28.0525 163.462 28.255 163.319 28.4575H164.939C165.089 28.255 165.224 28.0225 165.337 27.805C165.359 27.76 165.389 27.7375 165.442 27.745L165.847 27.7825C165.914 27.79 165.937 27.835 165.907 27.895C165.802 28.0825 165.667 28.2925 165.539 28.4575H167.804C167.864 28.4575 167.894 28.4875 167.894 28.5475V28.84C167.894 28.9 167.864 28.93 167.804 28.93H165.442V29.4025H167.519C167.579 29.4025 167.609 29.4325 167.609 29.4925V29.74C167.609 29.8 167.579 29.83 167.519 29.83H165.442V30.2875H167.519C167.579 30.2875 167.609 30.3175 167.609 30.3775V30.625C167.609 30.685 167.579 30.715 167.519 30.715H165.442V31.195H167.879C167.939 31.195 167.969 31.225 167.969 31.285V31.555C167.969 31.615 167.939 31.645 167.879 31.645ZM163.034 29.4175H164.947V28.93H163.034V29.4175ZM163.034 30.3025H164.947V29.83H163.034V30.3025ZM163.034 31.195H164.947V30.7075H163.034V31.195ZM172.814 30.7675L172.394 30.865C172.334 30.88 172.297 30.8575 172.289 30.7975C172.222 30.0625 172.042 29.2975 171.764 28.6375C171.742 28.585 171.757 28.54 171.817 28.525L172.214 28.4425C172.274 28.4275 172.312 28.45 172.327 28.5025C172.619 29.17 172.799 29.935 172.889 30.6625C172.897 30.715 172.874 30.7525 172.814 30.7675ZM170.849 34.105L170.534 33.7225C170.489 33.67 170.504 33.625 170.579 33.61C173.452 33.085 174.734 31.3675 174.802 28.5325C174.802 28.4725 174.839 28.4425 174.899 28.45L175.327 28.51C175.387 28.5175 175.417 28.5475 175.409 28.6075C175.259 31.405 174.179 33.4525 170.962 34.1425C170.917 34.1575 170.879 34.1425 170.849 34.105ZM170.939 31.105L170.534 31.2175C170.474 31.2325 170.437 31.2025 170.422 31.1425C170.324 30.3925 170.122 29.65 169.829 28.9975C169.799 28.9375 169.822 28.9 169.889 28.885L170.272 28.8025C170.324 28.7875 170.362 28.81 170.384 28.855C170.684 29.5 170.902 30.2725 171.014 31C171.022 31.06 170.999 31.09 170.939 31.105ZM182.644 30.94V31.3525C182.644 31.4125 182.614 31.4425 182.554 31.4425H176.974C176.914 31.4425 176.884 31.4125 176.884 31.3525V30.94C176.884 30.88 176.914 30.85 176.974 30.85H182.554C182.614 30.85 182.644 30.88 182.644 30.94ZM186.658 33.9175V28.5475C186.658 28.4875 186.688 28.4575 186.748 28.4575H187.161C187.221 28.4575 187.251 28.4875 187.251 28.54C187.243 29.695 187.236 32.23 187.228 33.2725C188.166 33.0325 189.111 32.1175 189.448 30.9775C189.471 30.91 189.516 30.895 189.568 30.9325L189.891 31.18C189.936 31.21 189.943 31.2475 189.928 31.2925C189.478 32.7025 188.256 33.8275 186.756 34.0075C186.696 34.015 186.658 33.9775 186.658 33.9175ZM183.553 34.1125L183.208 33.8125C183.156 33.7675 183.163 33.7225 183.223 33.685C185.016 32.725 184.963 30.76 184.933 28.66C184.933 28.6 184.971 28.57 185.023 28.57H185.428C185.488 28.57 185.518 28.6 185.518 28.66C185.526 31.0675 185.586 32.92 183.681 34.1275C183.636 34.1575 183.591 34.15 183.553 34.1125Z" fill="#D2D3D4"/>
<defs>
<clipPath id="clip0_290_1322">
<rect width="42" height="42" fill="white"/>
</clipPath>
</defs>
</svg>
