<svg width="200" height="42" viewBox="0 0 200 42" fill="none" xmlns="http://www.w3.org/2000/svg">
<g clip-path="url(#clip0_290_1321)">
<path d="M19.6782 18.3563C20.4073 19.0867 21.5915 19.0867 22.3218 18.3563L29.5925 11.0868C30.3217 10.3565 30.3217 9.1735 29.5925 8.44317L22.3218 1.17367C21.5927 0.443332 20.4085 0.443332 19.6782 1.17367L12.4075 8.44317C11.6772 9.1735 11.6772 10.3565 12.4075 11.0868L19.6782 18.3563ZM30.9143 29.5913C31.6435 30.3217 32.8277 30.3217 33.558 29.5913L40.8287 22.3218C41.5578 21.5915 41.5578 20.4085 40.8287 19.6782L33.558 12.4087C32.8288 11.6783 31.6447 11.6783 30.9143 12.4087L23.6437 19.6782C22.9133 20.4085 22.9133 21.5915 23.6437 22.3218L30.9143 29.5913ZM29.5913 30.9143L22.3218 23.6437C21.5915 22.9133 20.4085 22.9133 19.6782 23.6437L12.4087 30.9143C11.6783 31.6447 11.6783 32.8265 12.4087 33.5568L19.6782 40.8275C20.4085 41.5567 21.5915 41.5567 22.3218 40.8275L29.5913 33.5568C30.3217 32.8265 30.3217 31.6447 29.5913 30.9143ZM18.3563 19.6793L11.0868 12.4087C10.3565 11.6783 9.1735 11.6783 8.44317 12.4087L1.17367 19.6793C0.443332 20.4097 0.443332 21.5915 1.17367 22.3218L8.44317 29.5925C9.1735 30.3217 10.3565 30.3217 11.0868 29.5925L18.3563 22.3218C19.0867 21.5915 19.0867 20.4097 18.3563 19.6793Z" fill="#55ACEE"/>
<path d="M18.3563 19.6793L14.6066 15.9285C13.4995 17.3226 12.8333 19.082 12.8333 21C12.8333 22.918 13.4995 24.6785 14.6066 26.0715L18.3563 22.3218C19.0866 21.5915 19.0866 20.4096 18.3563 19.6793ZM26.0726 27.3933L22.3218 23.6425C21.5926 22.9145 20.4085 22.9145 19.6781 23.6425L15.9273 27.3933C17.3215 28.5005 19.082 29.1666 21 29.1666C22.918 29.1666 24.6785 28.5005 26.0726 27.3933ZM23.6436 22.3218L27.3945 26.0726C28.5005 24.6785 29.1666 22.918 29.1666 21C29.1666 19.082 28.5005 17.3215 27.3933 15.9285L23.6425 19.6793C22.9145 20.4096 22.9145 21.5915 23.6436 22.3218ZM22.3218 18.3563L26.0726 14.6066C24.6785 13.4995 22.918 12.8333 21 12.8333C19.082 12.8333 17.3215 13.4995 15.9285 14.6066L19.6793 18.3563C20.4085 19.0866 21.5915 19.0866 22.3218 18.3563Z" fill="#3B88C3"/>
<path d="M21 26.8334C24.2217 26.8334 26.8334 24.2217 26.8334 21C26.8334 17.7784 24.2217 15.1667 21 15.1667C17.7784 15.1667 15.1667 17.7784 15.1667 21C15.1667 24.2217 17.7784 26.8334 21 26.8334Z" fill="#BBDDF5"/>
<path d="M21 26.8334C24.2217 26.8334 26.8334 24.2217 26.8334 21C26.8334 17.7784 24.2217 15.1667 21 15.1667C17.7784 15.1667 15.1667 17.7784 15.1667 21C15.1667 24.2217 17.7784 26.8334 21 26.8334Z" fill="#E9F5BB"/>
</g>
<path d="M50.595 22.129C50.425 22.129 50.323 22.027 50.408 21.857L55.797 8.801C55.848 8.665 55.95 8.614 56.069 8.614H57.786C57.922 8.614 58.007 8.665 58.058 8.801L63.464 21.857C63.481 21.891 63.481 21.925 63.481 21.959C63.481 22.061 63.413 22.129 63.277 22.129H60.948C60.829 22.129 60.727 22.078 60.676 21.942L59.724 19.426H54.114L53.145 21.942C53.094 22.078 53.009 22.129 52.873 22.129H50.595ZM54.964 17.114H58.84L56.902 11.997L54.964 17.114ZM65.5793 22.129C65.4263 22.129 65.3413 22.044 65.3413 21.891V8.852C65.3413 8.699 65.4263 8.614 65.5793 8.614H67.5853C67.7213 8.614 67.8233 8.699 67.8233 8.852V21.891C67.8233 22.044 67.7213 22.129 67.5853 22.129H65.5793ZM75.258 22.129C75.122 22.129 75.037 22.078 74.986 21.942L69.699 8.886C69.682 8.852 69.665 8.818 69.665 8.784C69.665 8.682 69.75 8.614 69.886 8.614H72.198C72.334 8.614 72.436 8.665 72.47 8.801L76.142 18.678L79.78 8.801C79.814 8.665 79.933 8.614 80.069 8.614H82.347C82.517 8.614 82.602 8.733 82.534 8.886L77.247 21.942C77.196 22.078 77.094 22.129 76.975 22.129H75.258ZM84.6545 22.129C84.5015 22.129 84.4165 22.044 84.4165 21.891V8.852C84.4165 8.699 84.5015 8.614 84.6545 8.614H86.7625C86.8985 8.614 86.9835 8.665 87.0515 8.784L91.7265 16.553L96.3335 8.784C96.4015 8.665 96.4865 8.614 96.6225 8.614H98.6795C98.8325 8.614 98.9175 8.699 98.9175 8.852V21.891C98.9175 22.044 98.8325 22.129 98.6795 22.129H96.7585C96.6225 22.129 96.5205 22.044 96.5205 21.891V12.762L92.5595 19.392C92.5085 19.494 92.4235 19.545 92.2875 19.545H91.0465C90.9105 19.545 90.8255 19.494 90.7575 19.392L86.7965 12.847V21.891C86.7965 22.044 86.7115 22.129 86.5585 22.129H84.6545ZM113.947 22.384C109.969 22.384 107.3 19.613 107.3 15.38C107.3 11.13 110.088 8.359 113.981 8.359C116.82 8.359 118.86 9.685 119.761 11.98C119.778 12.014 119.778 12.048 119.778 12.082C119.778 12.201 119.727 12.269 119.608 12.303L117.636 12.847L117.568 12.864C117.466 12.864 117.381 12.813 117.347 12.711C116.701 11.47 115.545 10.79 114.015 10.79C111.414 10.79 109.867 12.626 109.867 15.397C109.867 18.151 111.431 19.953 114.015 19.953C116.004 19.953 117.5 18.933 117.704 16.961H114.321C114.185 16.961 114.083 16.859 114.083 16.723V14.887C114.083 14.751 114.185 14.649 114.321 14.649H119.965C120.101 14.649 120.203 14.751 120.203 14.887V16.417C120.203 19.783 118.01 22.384 113.947 22.384ZM126.746 22.316C123.737 22.316 121.918 20.259 121.918 17.369C121.918 14.462 123.737 12.405 126.746 12.405C129.67 12.405 131.353 14.581 131.251 17.862C131.234 18.015 131.149 18.1 130.996 18.1H124.468C124.689 19.409 125.488 20.191 126.763 20.191C127.732 20.191 128.412 19.834 128.854 19.103C128.939 18.984 129.041 18.967 129.177 19.001L130.809 19.562C130.962 19.63 131.013 19.732 130.945 19.885C130.095 21.551 128.514 22.316 126.746 22.316ZM128.701 16.315C128.48 15.193 127.749 14.53 126.729 14.53C125.607 14.53 124.791 15.176 124.502 16.315H128.701ZM133.275 22.129C133.122 22.129 133.037 22.044 133.037 21.891V12.83C133.037 12.677 133.122 12.592 133.275 12.592H135.009C135.145 12.592 135.264 12.66 135.264 12.83L135.315 13.918C136.012 12.898 137.202 12.405 138.426 12.405C140.636 12.405 141.911 13.731 141.911 15.924V21.891C141.911 22.044 141.809 22.129 141.673 22.129H139.752C139.599 22.129 139.514 22.044 139.514 21.891V16.893C139.514 15.312 138.936 14.581 137.695 14.581C136.522 14.581 135.417 15.448 135.417 17.267V21.891C135.417 22.044 135.332 22.129 135.179 22.129H133.275ZM148.61 22.316C145.601 22.316 143.782 20.259 143.782 17.369C143.782 14.462 145.601 12.405 148.61 12.405C151.534 12.405 153.217 14.581 153.115 17.862C153.098 18.015 153.013 18.1 152.86 18.1H146.332C146.553 19.409 147.352 20.191 148.627 20.191C149.596 20.191 150.276 19.834 150.718 19.103C150.803 18.984 150.905 18.967 151.041 19.001L152.673 19.562C152.826 19.63 152.877 19.732 152.809 19.885C151.959 21.551 150.378 22.316 148.61 22.316ZM150.565 16.315C150.344 15.193 149.613 14.53 148.593 14.53C147.471 14.53 146.655 15.176 146.366 16.315H150.565ZM155.14 22.129C154.987 22.129 154.902 22.044 154.902 21.891V12.83C154.902 12.677 154.987 12.592 155.14 12.592H156.874C157.01 12.592 157.129 12.66 157.129 12.83L157.18 14.02C157.826 13 158.948 12.456 160.087 12.456C160.359 12.456 160.546 12.49 160.733 12.524C160.886 12.558 160.937 12.643 160.937 12.779V14.666C160.937 14.819 160.852 14.87 160.733 14.87C160.478 14.87 160.189 14.802 159.798 14.802C158.506 14.802 157.282 15.686 157.282 17.199V21.891C157.282 22.044 157.197 22.129 157.044 22.129H155.14ZM166.282 22.316C163.562 22.316 161.828 20.293 161.828 17.369C161.828 14.428 163.562 12.405 166.282 12.405C167.608 12.405 168.713 12.966 169.393 13.901L169.461 12.83C169.461 12.66 169.563 12.592 169.716 12.592H171.433C171.586 12.592 171.688 12.677 171.688 12.83V21.891C171.688 22.044 171.586 22.129 171.433 22.129H169.716C169.563 22.129 169.461 22.061 169.461 21.891L169.393 20.82C168.713 21.755 167.608 22.316 166.282 22.316ZM164.293 17.369C164.293 19.001 165.347 20.14 166.877 20.14C168.407 20.14 169.461 19.001 169.461 17.369C169.461 15.72 168.407 14.581 166.877 14.581C165.347 14.581 164.293 15.72 164.293 17.369ZM177.899 22.316C175.842 22.316 174.703 21.024 174.703 18.44V14.734H173.309C173.156 14.734 173.071 14.632 173.071 14.496V12.83C173.071 12.677 173.156 12.592 173.309 12.592H174.703V10.025C174.703 9.889 174.788 9.787 174.941 9.787H176.862C176.998 9.787 177.1 9.889 177.1 10.025V12.592H179.361C179.514 12.592 179.599 12.677 179.599 12.83V14.496C179.599 14.632 179.514 14.734 179.361 14.734H177.1V18.593C177.1 19.63 177.423 20.14 178.171 20.14C178.477 20.14 178.698 20.004 178.885 19.681C178.953 19.545 179.072 19.494 179.208 19.562L180.653 20.208C180.738 20.259 180.789 20.327 180.789 20.412C180.789 20.463 180.772 20.531 180.721 20.599C180.041 21.857 178.987 22.316 177.899 22.316ZM186.384 22.316C183.324 22.316 181.335 20.259 181.335 17.369C181.335 14.462 183.324 12.405 186.384 12.405C189.444 12.405 191.433 14.462 191.433 17.369C191.433 20.259 189.444 22.316 186.384 22.316ZM183.8 17.369C183.8 19.001 184.854 20.14 186.384 20.14C187.914 20.14 188.968 19.001 188.968 17.369C188.968 15.72 187.914 14.581 186.384 14.581C184.854 14.581 183.8 15.72 183.8 17.369ZM193.622 22.129C193.469 22.129 193.384 22.044 193.384 21.891V12.83C193.384 12.677 193.469 12.592 193.622 12.592H195.356C195.492 12.592 195.611 12.66 195.611 12.83L195.662 14.02C196.308 13 197.43 12.456 198.569 12.456C198.841 12.456 199.028 12.49 199.215 12.524C199.368 12.558 199.419 12.643 199.419 12.779V14.666C199.419 14.819 199.334 14.87 199.215 14.87C198.96 14.87 198.671 14.802 198.28 14.802C196.988 14.802 195.764 15.686 195.764 17.199V21.891C195.764 22.044 195.679 22.129 195.526 22.129H193.622Z" fill="#FBEEEA"/>
<path d="M55.969 29.3025V28.98C55.969 28.92 56.0065 28.89 56.059 28.89H58.6465V28.305C58.6465 28.245 58.684 28.215 58.7365 28.215H59.1415C59.2015 28.215 59.2315 28.245 59.2315 28.305V28.89H61.8415C61.9015 28.89 61.9315 28.92 61.9315 28.98V29.3025C61.9315 29.3625 61.9015 29.3925 61.8415 29.3925H60.9115C60.799 29.775 60.649 30.2325 60.484 30.6H62.254C62.314 30.6 62.344 30.63 62.344 30.69V31.0125C62.344 31.0725 62.314 31.1025 62.254 31.1025H55.6315C55.5715 31.1025 55.5415 31.0725 55.5415 31.0125V30.69C55.5415 30.63 55.5715 30.6 55.6315 30.6H57.439C57.3265 30.225 57.1615 29.7825 56.989 29.3925H56.059C56.0065 29.3925 55.969 29.3625 55.969 29.3025ZM58.024 30.6H59.8915C60.064 30.2175 60.2215 29.76 60.3265 29.3925H57.589C57.7465 29.7675 57.8965 30.1875 58.024 30.6ZM56.4115 34.7475V31.8525C56.4115 31.7925 56.4415 31.7625 56.5015 31.7625H61.4215C61.4815 31.7625 61.5115 31.7925 61.5115 31.8525V34.7475C61.5115 34.8075 61.4815 34.8375 61.4215 34.8375H56.5015C56.4415 34.8375 56.4115 34.8075 56.4115 34.7475ZM56.959 33.045H60.949V32.265H56.959V33.045ZM56.959 34.3425H60.949V33.5175H56.959V34.3425ZM63.1765 29.2875V28.9575C63.1765 28.8975 63.2065 28.8675 63.2665 28.8675H66.154V28.2825C66.154 28.2225 66.184 28.1925 66.244 28.1925H66.6265C66.6865 28.1925 66.7165 28.2225 66.7165 28.2825V28.8675H69.6265C69.679 28.8675 69.7165 28.8975 69.7165 28.9575V29.2875C69.7165 29.34 69.679 29.3775 69.6265 29.3775H66.7165V30.165H69.2815C69.3415 30.165 69.3715 30.195 69.3715 30.255V30.5775C69.3715 30.6375 69.3415 30.6675 69.2815 30.6675H63.6265C63.5665 30.6675 63.5365 30.6375 63.5365 30.5775V30.255C63.5365 30.195 63.5665 30.165 63.6265 30.165H66.154V29.3775H63.2665C63.2065 29.3775 63.1765 29.34 63.1765 29.2875ZM63.3865 35.0775L63.0265 34.89C62.9665 34.86 62.959 34.815 63.004 34.77C63.559 34.1625 63.694 33.27 63.6865 32.52C63.6865 32.325 63.679 31.6425 63.679 31.38C63.679 31.3275 63.709 31.29 63.769 31.29H69.2065C69.2665 31.29 69.2965 31.3275 69.2965 31.38V33.315C69.2965 33.3675 69.2665 33.405 69.2065 33.405H64.1815C64.099 34.0125 63.8965 34.5975 63.5065 35.055C63.469 35.0925 63.4315 35.1 63.3865 35.0775ZM64.2265 32.895H66.2065V31.785H64.219C64.2265 32.19 64.234 32.4825 64.2265 32.82V32.895ZM66.7165 32.895H68.7715V31.785H66.7165V32.895ZM70.744 31.0125L70.5565 30.6075C70.534 30.555 70.549 30.51 70.609 30.4875C71.8765 29.9925 72.964 29.115 73.6015 28.275C73.6315 28.2375 73.669 28.2225 73.714 28.2225H74.149C74.194 28.2225 74.2315 28.2375 74.2615 28.275C75.0265 29.16 76.0465 29.9025 77.314 30.42C77.3665 30.4425 77.389 30.4875 77.359 30.54L77.179 30.9525C77.1565 31.005 77.1115 31.02 77.059 30.9975C75.8065 30.3975 74.749 29.625 73.9465 28.71C73.1815 29.7 72.0565 30.5025 70.864 31.0575C70.8115 31.08 70.7665 31.065 70.744 31.0125ZM72.019 30.93V30.5625C72.019 30.5025 72.0565 30.4725 72.109 30.4725H75.8215C75.8815 30.4725 75.9115 30.5025 75.9115 30.5625V30.93C75.9115 30.99 75.8815 31.02 75.8215 31.02H72.109C72.0565 31.02 72.019 30.99 72.019 30.93ZM71.4265 34.7325V32.085C71.4265 32.025 71.4565 31.995 71.5165 31.995H76.4215C76.4815 31.995 76.5115 32.025 76.5115 32.085V34.7325C76.5115 34.7925 76.4815 34.8225 76.4215 34.8225H71.5165C71.4565 34.8225 71.4265 34.7925 71.4265 34.7325ZM71.9815 34.2825H75.9565V32.5275H71.9815V34.2825ZM78.709 29.4375H81.664C81.649 29.0475 81.634 28.6725 81.6265 28.3125C81.6265 28.2525 81.6565 28.2225 81.7165 28.2225L82.1065 28.215C82.1665 28.215 82.1965 28.245 82.1965 28.305C82.204 28.665 82.2115 29.0475 82.2265 29.4375H84.619C84.679 29.4375 84.709 29.4675 84.709 29.5275V29.8725C84.709 29.9325 84.679 29.9625 84.619 29.9625H82.2565C82.324 30.9075 82.4665 31.8675 82.7665 32.7C83.194 32.1225 83.524 31.4625 83.7415 30.72C83.7565 30.66 83.794 30.645 83.854 30.66L84.1765 30.7725C84.229 30.7875 84.2515 30.8325 84.229 30.885C83.9515 31.755 83.539 32.55 82.984 33.24C83.119 33.5325 83.5765 34.38 83.9515 34.38C84.2965 34.38 84.469 33.7275 84.5365 33.0975C84.544 33.0225 84.5965 33 84.649 33.0525L84.9415 33.315C84.979 33.345 84.994 33.3825 84.9865 33.4275C84.8515 34.4025 84.484 35.0475 83.974 35.0475C83.389 35.0475 82.8265 34.1775 82.579 33.6975C82.0465 34.2525 81.409 34.71 80.6815 35.0475C80.629 35.07 80.5915 35.0625 80.554 35.0175L80.2765 34.7175C80.2315 34.665 80.239 34.62 80.3065 34.59C81.1015 34.2525 81.7915 33.78 82.354 33.1875C81.964 32.22 81.784 31.0725 81.7015 29.9625H79.174C79.174 30.3225 79.174 30.6975 79.174 31.0575H80.989C81.049 31.0575 81.079 31.0875 81.079 31.1475C81.094 31.65 81.0865 32.34 81.0565 32.82C81.0115 33.645 80.7115 34.08 79.6015 34.0575C79.549 34.0575 79.519 34.035 79.504 33.9825L79.3765 33.6075C79.354 33.5475 79.384 33.5025 79.459 33.51C80.2315 33.5325 80.479 33.3825 80.524 32.805C80.554 32.4225 80.554 31.7925 80.5465 31.56H79.174C79.1515 32.73 79.054 33.9225 78.5515 34.9875C78.529 35.04 78.484 35.055 78.4315 35.0325L78.049 34.845C77.9965 34.8225 77.9815 34.7775 78.0115 34.725C78.454 33.84 78.604 32.7825 78.619 31.2C78.6265 30.705 78.6265 30.0825 78.619 29.5275C78.619 29.4675 78.649 29.4375 78.709 29.4375ZM84.2065 29.1075L83.9515 29.34C83.9065 29.3775 83.8615 29.3775 83.824 29.3325C83.5615 29.0475 83.209 28.7775 82.8565 28.59C82.7965 28.5525 82.7965 28.5075 82.8415 28.4625L83.0815 28.245C83.1265 28.215 83.164 28.2075 83.209 28.23C83.569 28.425 83.9365 28.6875 84.214 28.98C84.2515 29.025 84.2515 29.07 84.2065 29.1075ZM86.0965 29.5275V29.175C86.0965 29.115 86.1265 29.085 86.1865 29.085H91.459C91.519 29.085 91.549 29.115 91.549 29.175V29.5275C91.549 29.5875 91.519 29.6175 91.459 29.6175H88.6165C88.609 30.15 88.594 30.7575 88.5865 31.335H91.7665C91.819 31.335 91.8565 31.365 91.8565 31.425V31.785C91.8565 31.845 91.819 31.875 91.7665 31.875H88.579C88.5715 32.325 88.5715 32.7375 88.5715 33.075C88.5715 33.66 88.7815 33.855 89.3515 33.93C89.569 33.9525 89.8165 33.9675 90.0865 33.9675C90.5815 33.9675 91.144 33.9225 91.7215 33.8475C91.7815 33.84 91.819 33.87 91.8115 33.93L91.7965 34.335C91.789 34.3875 91.759 34.4175 91.7065 34.425C91.1515 34.4925 90.6265 34.5225 90.1615 34.5225C89.809 34.5225 89.494 34.5075 89.224 34.4775C88.399 34.3875 87.9565 34.0575 87.9715 33.1425C87.9715 32.76 87.979 32.325 87.9865 31.875H85.9915C85.9315 31.875 85.9015 31.845 85.9015 31.785V31.425C85.9015 31.365 85.9315 31.335 85.9915 31.335H87.994C88.0015 30.75 88.009 30.1575 88.0165 29.6175H86.1865C86.1265 29.6175 86.0965 29.5875 86.0965 29.5275ZM100.062 29.205L99.844 29.295C99.7915 29.3175 99.7465 29.3025 99.724 29.25C99.589 28.9125 99.3565 28.4925 99.1015 28.1775C99.0565 28.125 99.0715 28.08 99.1315 28.05L99.3265 27.975C99.379 27.9525 99.4165 27.9675 99.4465 28.005C99.6865 28.2975 99.9565 28.7325 100.114 29.0925C100.137 29.145 100.114 29.19 100.062 29.205ZM99.2515 29.4825L99.019 29.5725C98.9665 29.595 98.929 29.5725 98.9065 29.52C98.779 29.19 98.5615 28.7475 98.314 28.4175C98.2765 28.365 98.2915 28.32 98.3515 28.2975L98.554 28.215C98.6065 28.2 98.644 28.2075 98.674 28.2525C98.929 28.5675 99.1765 29.01 99.304 29.3625C99.3265 29.4225 99.304 29.46 99.2515 29.4825ZM94.159 29.4075V29.055C94.159 29.0025 94.189 28.965 94.249 28.965H98.4265C98.4865 28.965 98.5165 29.0025 98.5165 29.055V29.4075C98.5165 29.4675 98.4865 29.4975 98.4265 29.4975H94.249C94.189 29.4975 94.159 29.4675 94.159 29.4075ZM93.334 31.2675V30.915C93.334 30.8625 93.364 30.825 93.424 30.825H99.439C99.499 30.825 99.529 30.8625 99.529 30.915V31.275C99.529 31.3275 99.499 31.365 99.439 31.365H96.889C96.799 32.985 96.169 34.2525 94.3015 34.725C94.249 34.74 94.2115 34.725 94.1815 34.6875L93.8665 34.3425C93.8215 34.29 93.8365 34.2375 93.9115 34.2225C95.659 33.855 96.199 32.8125 96.274 31.3575H93.424C93.364 31.3575 93.334 31.3275 93.334 31.2675ZM103.488 34.4175V29.0475C103.488 28.9875 103.518 28.9575 103.578 28.9575H103.99C104.05 28.9575 104.08 28.9875 104.08 29.04C104.073 30.195 104.065 32.73 104.058 33.7725C104.995 33.5325 105.94 32.6175 106.278 31.4775C106.3 31.41 106.345 31.395 106.398 31.4325L106.72 31.68C106.765 31.71 106.773 31.7475 106.758 31.7925C106.308 33.2025 105.085 34.3275 103.585 34.5075C103.525 34.515 103.488 34.4775 103.488 34.4175ZM100.383 34.6125L100.038 34.3125C99.9851 34.2675 99.9926 34.2225 100.053 34.185C101.845 33.225 101.793 31.26 101.763 29.16C101.763 29.1 101.8 29.07 101.853 29.07H102.258C102.318 29.07 102.348 29.1 102.348 29.16C102.355 31.5675 102.415 33.42 100.51 34.6275C100.465 34.6575 100.42 34.65 100.383 34.6125ZM108.476 34.6275L108.251 34.2075C108.213 34.155 108.236 34.11 108.303 34.095C111.011 33.63 112.188 31.9875 112.481 29.9475L107.853 29.97C107.793 29.97 107.763 29.94 107.763 29.88V29.49C107.763 29.4375 107.793 29.4 107.853 29.4L113.066 29.3925C113.126 29.3925 113.156 29.43 113.156 29.49C112.893 32.2725 111.506 34.08 108.588 34.68C108.536 34.6875 108.498 34.6725 108.476 34.6275ZM118.553 32.8575L118.29 32.5875C118.238 32.5425 118.253 32.49 118.313 32.4675C119.295 32.1 119.82 31.2825 119.978 30.45C119.145 30.45 116.798 30.465 115.65 30.4725C115.59 30.4725 115.56 30.435 115.56 30.3825V30.045C115.56 29.985 115.59 29.955 115.65 29.955H120.495C120.555 29.955 120.585 29.985 120.578 30.045C120.45 31.365 119.805 32.355 118.68 32.88C118.628 32.9025 118.59 32.895 118.553 32.8575ZM115.958 34.665L115.71 34.3425C115.665 34.2825 115.68 34.2375 115.748 34.2225C117.285 33.78 117.803 32.6625 117.75 31.17C117.743 31.11 117.773 31.08 117.833 31.08H118.193C118.253 31.08 118.283 31.11 118.283 31.17C118.32 32.8725 117.683 34.1325 116.078 34.7025C116.025 34.7175 115.988 34.7025 115.958 34.665ZM122.459 32.8575L122.204 32.46C122.174 32.4 122.189 32.355 122.257 32.34C124.424 31.7475 126.172 30.45 127.222 28.755C127.252 28.7025 127.297 28.695 127.349 28.7175L127.754 28.9125C127.814 28.935 127.829 28.98 127.792 29.0325C127.289 29.79 126.719 30.435 126.082 30.9825V34.71C126.082 34.77 126.052 34.8 125.992 34.8H125.557C125.497 34.8 125.467 34.77 125.467 34.71L125.474 31.455C124.574 32.1 123.599 32.58 122.579 32.9025C122.527 32.9175 122.489 32.9025 122.459 32.8575ZM132.059 34.4175V29.0475C132.059 28.9875 132.089 28.9575 132.149 28.9575H132.562C132.622 28.9575 132.652 28.9875 132.652 29.04C132.644 30.195 132.637 32.73 132.629 33.7725C133.567 33.5325 134.512 32.6175 134.849 31.4775C134.872 31.41 134.917 31.395 134.969 31.4325L135.292 31.68C135.337 31.71 135.344 31.7475 135.329 31.7925C134.879 33.2025 133.657 34.3275 132.157 34.5075C132.097 34.515 132.059 34.4775 132.059 34.4175ZM128.954 34.6125L128.609 34.3125C128.557 34.2675 128.564 34.2225 128.624 34.185C130.417 33.225 130.364 31.26 130.334 29.16C130.334 29.1 130.372 29.07 130.424 29.07H130.829C130.889 29.07 130.919 29.1 130.919 29.16C130.927 31.5675 130.987 33.42 129.082 34.6275C129.037 34.6575 128.992 34.65 128.954 34.6125ZM136.499 31.59L136.139 31.3425C136.094 31.3125 136.087 31.2675 136.124 31.2225C136.769 30.495 137.219 29.505 137.459 28.59C137.467 28.5375 137.512 28.5075 137.564 28.515L137.962 28.59C138.022 28.605 138.044 28.6425 138.029 28.695C137.939 29.055 137.819 29.415 137.677 29.775H139.214V28.3125C139.214 28.26 139.252 28.2225 139.304 28.2225H139.732C139.784 28.2225 139.822 28.26 139.822 28.3125V29.775H142.364C142.417 29.775 142.454 29.8125 142.454 29.865V30.255C142.454 30.3075 142.417 30.345 142.364 30.345H139.822V31.92H142.004C142.057 31.92 142.094 31.9575 142.094 32.01V32.385C142.094 32.4375 142.057 32.475 142.004 32.475H139.822V34.2H142.799C142.852 34.2 142.889 34.2375 142.889 34.29V34.68C142.889 34.7325 142.852 34.77 142.799 34.77H136.132C136.079 34.77 136.042 34.7325 136.042 34.68V34.29C136.042 34.2375 136.079 34.2 136.132 34.2H139.214V32.475H137.017C136.964 32.475 136.927 32.4375 136.927 32.385V32.01C136.927 31.9575 136.964 31.92 137.017 31.92H139.214V30.345H137.422C137.189 30.81 136.919 31.245 136.627 31.575C136.597 31.6125 136.544 31.62 136.499 31.59ZM144.217 29.4375H147.172C147.157 29.0475 147.142 28.6725 147.134 28.3125C147.134 28.2525 147.164 28.2225 147.224 28.2225L147.614 28.215C147.674 28.215 147.704 28.245 147.704 28.305C147.712 28.665 147.719 29.0475 147.734 29.4375H150.127C150.187 29.4375 150.217 29.4675 150.217 29.5275V29.8725C150.217 29.9325 150.187 29.9625 150.127 29.9625H147.764C147.832 30.9075 147.974 31.8675 148.274 32.7C148.702 32.1225 149.032 31.4625 149.249 30.72C149.264 30.66 149.302 30.645 149.362 30.66L149.684 30.7725C149.737 30.7875 149.759 30.8325 149.737 30.885C149.459 31.755 149.047 32.55 148.492 33.24C148.627 33.5325 149.084 34.38 149.459 34.38C149.804 34.38 149.977 33.7275 150.044 33.0975C150.052 33.0225 150.104 33 150.157 33.0525L150.449 33.315C150.487 33.345 150.502 33.3825 150.494 33.4275C150.359 34.4025 149.992 35.0475 149.482 35.0475C148.897 35.0475 148.334 34.1775 148.087 33.6975C147.554 34.2525 146.917 34.71 146.189 35.0475C146.137 35.07 146.099 35.0625 146.062 35.0175L145.784 34.7175C145.739 34.665 145.747 34.62 145.814 34.59C146.609 34.2525 147.299 33.78 147.862 33.1875C147.472 32.22 147.292 31.0725 147.209 29.9625H144.682C144.682 30.3225 144.682 30.6975 144.682 31.0575H146.497C146.557 31.0575 146.587 31.0875 146.587 31.1475C146.602 31.65 146.594 32.34 146.564 32.82C146.519 33.645 146.219 34.08 145.109 34.0575C145.057 34.0575 145.027 34.035 145.012 33.9825L144.884 33.6075C144.862 33.5475 144.892 33.5025 144.967 33.51C145.739 33.5325 145.987 33.3825 146.032 32.805C146.062 32.4225 146.062 31.7925 146.054 31.56H144.682C144.659 32.73 144.562 33.9225 144.059 34.9875C144.037 35.04 143.992 35.055 143.939 35.0325L143.557 34.845C143.504 34.8225 143.489 34.7775 143.519 34.725C143.962 33.84 144.112 32.7825 144.127 31.2C144.134 30.705 144.134 30.0825 144.127 29.5275C144.127 29.4675 144.157 29.4375 144.217 29.4375ZM149.714 29.1075L149.459 29.34C149.414 29.3775 149.369 29.3775 149.332 29.3325C149.069 29.0475 148.717 28.7775 148.364 28.59C148.304 28.5525 148.304 28.5075 148.349 28.4625L148.589 28.245C148.634 28.215 148.672 28.2075 148.717 28.23C149.077 28.425 149.444 28.6875 149.722 28.98C149.759 29.025 149.759 29.07 149.714 29.1075ZM154.454 32.13C154.184 32.13 153.967 31.9275 153.967 31.65C153.967 31.3725 154.184 31.1625 154.454 31.1625C154.732 31.1625 154.949 31.3725 154.949 31.65C154.949 31.9275 154.732 32.13 154.454 32.13ZM158.542 32.0925L158.512 31.785C158.504 31.725 158.542 31.6875 158.602 31.6875C158.744 31.6875 158.894 31.6875 159.044 31.6875C159.232 31.4475 159.419 31.1775 159.614 30.885C159.352 30.5625 158.924 30.18 158.542 29.8425C158.504 29.805 158.497 29.7675 158.527 29.715L158.677 29.445C158.714 29.3925 158.759 29.385 158.804 29.4225C158.879 29.49 158.962 29.5575 159.037 29.6325C159.277 29.265 159.532 28.7325 159.704 28.2525C159.727 28.2 159.764 28.1775 159.817 28.2L160.117 28.32C160.177 28.335 160.192 28.38 160.169 28.4325C159.922 28.9575 159.644 29.52 159.367 29.94C159.547 30.12 159.712 30.3 159.869 30.48C160.102 30.09 160.327 29.685 160.514 29.295C160.537 29.2425 160.582 29.2275 160.634 29.2575L160.897 29.4075C160.942 29.4375 160.957 29.4825 160.927 29.5275C160.499 30.345 159.989 31.1175 159.569 31.68C159.922 31.665 160.267 31.6425 160.582 31.6125C160.537 31.44 160.477 31.2675 160.424 31.1175C160.402 31.0575 160.417 31.02 160.477 30.9975L160.694 30.93C160.747 30.915 160.784 30.9375 160.807 30.99C160.949 31.3875 161.077 31.8675 161.152 32.28C161.159 32.3325 161.137 32.37 161.084 32.385L160.852 32.4675C160.792 32.4825 160.754 32.46 160.739 32.4C160.724 32.28 160.702 32.16 160.679 32.0325C160.507 32.0625 160.312 32.085 160.102 32.1V34.98C160.102 35.04 160.072 35.07 160.012 35.07H159.712C159.652 35.07 159.622 35.04 159.622 34.98V32.1375C159.284 32.16 158.947 32.1825 158.639 32.1825C158.579 32.1825 158.549 32.1525 158.542 32.0925ZM165.262 28.935H161.174C161.114 28.935 161.084 28.905 161.084 28.845V28.575C161.084 28.515 161.114 28.485 161.174 28.485H165.262C165.322 28.485 165.352 28.515 165.352 28.575V28.845C165.352 28.905 165.322 28.935 165.262 28.935ZM161.234 34.89L160.949 34.7175C160.904 34.6875 160.889 34.65 160.912 34.5975C161.332 33.765 161.407 32.445 161.407 31.005C161.407 30.5325 161.399 29.88 161.399 29.64C161.399 29.58 161.429 29.55 161.489 29.55H165.037C165.097 29.55 165.127 29.58 165.127 29.64V31.125C165.127 31.185 165.097 31.215 165.037 31.215H161.894C161.902 32.7375 161.737 34.035 161.354 34.8525C161.332 34.905 161.287 34.92 161.234 34.89ZM161.902 30.78H164.647V29.985H161.894C161.894 30.2025 161.894 30.51 161.902 30.78ZM162.352 35.07H162.112C162.052 35.07 162.022 35.04 162.022 34.98V31.875C162.022 31.815 162.052 31.785 162.112 31.785H165.112C165.172 31.785 165.202 31.815 165.202 31.875V34.215C165.202 34.74 165.149 35.025 164.519 35.0475C164.467 35.0475 164.429 35.025 164.414 34.9725L164.324 34.695C164.309 34.6275 164.339 34.59 164.407 34.59C164.737 34.5825 164.782 34.4775 164.782 34.2V33.525H164.189V34.7475C164.189 34.8075 164.159 34.8375 164.099 34.8375H163.889C163.829 34.8375 163.799 34.8075 163.799 34.7475V33.525H163.334V34.7625C163.334 34.8225 163.304 34.8525 163.244 34.8525H163.034C162.974 34.8525 162.944 34.8225 162.944 34.7625V33.525H162.442V34.98C162.442 35.04 162.412 35.07 162.352 35.07ZM162.442 33.15H162.944V32.175H162.442V33.15ZM163.334 33.15H163.799V32.175H163.334V33.15ZM164.189 33.15H164.782V32.175H164.189V33.15ZM160.949 34.065L160.709 34.125C160.649 34.14 160.612 34.1175 160.604 34.05C160.574 33.6375 160.499 33.165 160.402 32.8125C160.394 32.7525 160.409 32.715 160.469 32.7L160.679 32.655C160.732 32.6475 160.769 32.67 160.784 32.7225C160.889 33.075 160.987 33.555 161.017 33.96C161.024 34.0125 161.002 34.05 160.949 34.065ZM158.842 34.7625L158.557 34.6875C158.504 34.6725 158.482 34.635 158.497 34.575C158.684 34.02 158.797 33.3075 158.834 32.7375C158.842 32.6775 158.872 32.655 158.932 32.655L159.194 32.6925C159.254 32.6925 159.284 32.73 159.277 32.79C159.224 33.3675 159.127 34.1025 158.947 34.7025C158.932 34.755 158.894 34.7775 158.842 34.7625ZM172.379 32.145H169.717L169.709 32.685H172.642C172.702 32.685 172.732 32.715 172.732 32.775V33.0675C172.732 33.1275 172.702 33.1575 172.642 33.1575L170.009 33.1275C170.714 33.675 171.644 34.095 172.709 34.3275C172.777 34.3425 172.792 34.3875 172.762 34.44L172.559 34.7925C172.537 34.8375 172.499 34.8525 172.447 34.8375C171.352 34.545 170.369 34.0125 169.709 33.45L169.724 34.995C169.724 35.055 169.694 35.085 169.634 35.085H169.259C169.199 35.085 169.169 35.055 169.169 34.995L169.184 33.48C168.449 34.1475 167.542 34.605 166.514 34.905C166.462 34.92 166.424 34.905 166.402 34.86L166.192 34.5225C166.162 34.47 166.177 34.425 166.244 34.4025C167.309 34.1175 168.277 33.69 168.914 33.1275L166.267 33.1575C166.207 33.1575 166.177 33.1275 166.177 33.0675V32.775C166.177 32.715 166.207 32.685 166.267 32.685H169.184L169.177 32.145H167.092C167.032 32.145 167.002 32.115 167.002 32.055V29.9325C166.792 30.1575 166.559 30.3825 166.334 30.555C166.289 30.585 166.244 30.5775 166.207 30.525L165.997 30.195C165.967 30.1425 165.982 30.105 166.027 30.0675C166.687 29.6325 167.324 28.935 167.669 28.2375C167.699 28.1925 167.729 28.17 167.782 28.185L168.142 28.2525C168.209 28.2675 168.232 28.3125 168.194 28.365C168.097 28.5525 167.962 28.755 167.819 28.9575H169.439C169.589 28.755 169.724 28.5225 169.837 28.305C169.859 28.26 169.889 28.2375 169.942 28.245L170.347 28.2825C170.414 28.29 170.437 28.335 170.407 28.395C170.302 28.5825 170.167 28.7925 170.039 28.9575H172.304C172.364 28.9575 172.394 28.9875 172.394 29.0475V29.34C172.394 29.4 172.364 29.43 172.304 29.43H169.942V29.9025H172.019C172.079 29.9025 172.109 29.9325 172.109 29.9925V30.24C172.109 30.3 172.079 30.33 172.019 30.33H169.942V30.7875H172.019C172.079 30.7875 172.109 30.8175 172.109 30.8775V31.125C172.109 31.185 172.079 31.215 172.019 31.215H169.942V31.695H172.379C172.439 31.695 172.469 31.725 172.469 31.785V32.055C172.469 32.115 172.439 32.145 172.379 32.145ZM167.534 29.9175H169.447V29.43H167.534V29.9175ZM167.534 30.8025H169.447V30.33H167.534V30.8025ZM167.534 31.695H169.447V31.2075H167.534V31.695ZM177.314 31.2675L176.894 31.365C176.834 31.38 176.797 31.3575 176.789 31.2975C176.722 30.5625 176.542 29.7975 176.264 29.1375C176.242 29.085 176.257 29.04 176.317 29.025L176.714 28.9425C176.774 28.9275 176.812 28.95 176.827 29.0025C177.119 29.67 177.299 30.435 177.389 31.1625C177.397 31.215 177.374 31.2525 177.314 31.2675ZM175.349 34.605L175.034 34.2225C174.989 34.17 175.004 34.125 175.079 34.11C177.952 33.585 179.234 31.8675 179.302 29.0325C179.302 28.9725 179.339 28.9425 179.399 28.95L179.827 29.01C179.887 29.0175 179.917 29.0475 179.909 29.1075C179.759 31.905 178.679 33.9525 175.462 34.6425C175.417 34.6575 175.379 34.6425 175.349 34.605ZM175.439 31.605L175.034 31.7175C174.974 31.7325 174.937 31.7025 174.922 31.6425C174.824 30.8925 174.622 30.15 174.329 29.4975C174.299 29.4375 174.322 29.4 174.389 29.385L174.772 29.3025C174.824 29.2875 174.862 29.31 174.884 29.355C175.184 30 175.402 30.7725 175.514 31.5C175.522 31.56 175.499 31.59 175.439 31.605ZM187.144 31.44V31.8525C187.144 31.9125 187.114 31.9425 187.054 31.9425H181.474C181.414 31.9425 181.384 31.9125 181.384 31.8525V31.44C181.384 31.38 181.414 31.35 181.474 31.35H187.054C187.114 31.35 187.144 31.38 187.144 31.44ZM191.158 34.4175V29.0475C191.158 28.9875 191.188 28.9575 191.248 28.9575H191.661C191.721 28.9575 191.751 28.9875 191.751 29.04C191.743 30.195 191.736 32.73 191.728 33.7725C192.666 33.5325 193.611 32.6175 193.948 31.4775C193.971 31.41 194.016 31.395 194.068 31.4325L194.391 31.68C194.436 31.71 194.443 31.7475 194.428 31.7925C193.978 33.2025 192.756 34.3275 191.256 34.5075C191.196 34.515 191.158 34.4775 191.158 34.4175ZM188.053 34.6125L187.708 34.3125C187.656 34.2675 187.663 34.2225 187.723 34.185C189.516 33.225 189.463 31.26 189.433 29.16C189.433 29.1 189.471 29.07 189.523 29.07H189.928C189.988 29.07 190.018 29.1 190.018 29.16C190.026 31.5675 190.086 33.42 188.181 34.6275C188.136 34.6575 188.091 34.65 188.053 34.6125Z" fill="#D2D3D4"/>
<defs>
<clipPath id="clip0_290_1321">
<rect width="42" height="42" fill="white"/>
</clipPath>
</defs>
</svg>
