<svg width="1652" height="350" viewBox="0 0 1652 350" fill="none" xmlns="http://www.w3.org/2000/svg">
<path d="M163.64 152.292C169.903 158.565 180.074 158.565 186.347 152.292L248.795 89.8518C255.058 83.5787 255.058 73.4176 248.795 67.1446L186.347 4.70478C180.084 -1.56826 169.913 -1.56826 163.64 4.70478L101.192 67.1446C94.9196 73.4176 94.9196 83.5787 101.192 89.8518L163.64 152.292ZM260.148 248.792C266.411 255.065 276.582 255.065 282.855 248.792L345.303 186.352C351.566 180.079 351.566 169.918 345.303 163.645L282.855 101.205C276.592 94.9323 266.421 94.9323 260.148 101.205L197.7 163.645C191.427 169.918 191.427 180.079 197.7 186.352L260.148 248.792ZM248.785 260.156L186.347 197.706C180.074 191.433 169.913 191.433 163.64 197.706L101.202 260.156C94.9296 266.429 94.9296 276.58 101.202 282.853L163.64 345.303C169.913 351.566 180.074 351.566 186.347 345.303L248.785 282.853C255.058 276.58 255.058 266.429 248.785 260.156ZM152.287 163.655L89.8492 101.205C83.5763 94.9323 73.4155 94.9323 67.1426 101.205L4.70465 163.655C-1.56821 169.928 -1.56821 180.079 4.70465 186.352L67.1426 248.802C73.4155 255.065 83.5763 255.065 89.8492 248.802L152.287 186.352C158.56 180.079 158.56 169.928 152.287 163.655Z" fill="url(#paint0_linear_669_5522)"/>
<path d="M152.287 163.655L120.081 131.438C110.572 143.413 104.85 158.525 104.85 174.999C104.85 191.473 110.572 206.595 120.081 218.559L152.287 186.352C158.56 180.079 158.56 169.928 152.287 163.655ZM218.563 229.913L186.347 197.696C180.084 191.443 169.913 191.443 163.64 197.696L131.424 229.913C143.399 239.423 158.52 245.145 174.994 245.145C191.467 245.145 206.588 239.423 218.563 229.913ZM197.7 186.352L229.916 218.569C239.416 206.594 245.137 191.473 245.137 174.999C245.137 158.525 239.416 143.403 229.906 131.438L197.69 163.655C191.437 169.928 191.437 180.079 197.7 186.352ZM186.347 152.292L218.563 120.085C206.588 110.575 191.467 104.853 174.994 104.853C158.52 104.853 143.399 110.575 131.434 120.085L163.65 152.292C169.913 158.565 180.074 158.565 186.347 152.292Z" fill="#3B88C3"/>
<path d="M174.994 225.103C202.665 225.103 225.097 202.67 225.097 174.999C225.097 147.327 202.665 124.895 174.994 124.895C147.323 124.895 124.891 147.327 124.891 174.999C124.891 202.67 147.323 225.103 174.994 225.103Z" fill="#E9F5BB"/>
<path d="M423.093 174.68C421.693 174.68 420.853 173.84 421.553 172.44L465.933 64.92C466.353 63.8 467.193 63.38 468.173 63.38H482.313C483.433 63.38 484.133 63.8 484.553 64.92L529.073 172.44C529.213 172.72 529.213 173 529.213 173.28C529.213 174.12 528.653 174.68 527.533 174.68H508.353C507.373 174.68 506.533 174.26 506.113 173.14L498.273 152.42H452.073L444.093 173.14C443.673 174.26 442.973 174.68 441.853 174.68H423.093ZM459.073 133.38H490.993L475.033 91.24L459.073 133.38ZM546.494 174.68C545.234 174.68 544.534 173.98 544.534 172.72V65.34C544.534 64.08 545.234 63.38 546.494 63.38H563.014C564.134 63.38 564.974 64.08 564.974 65.34V172.72C564.974 173.98 564.134 174.68 563.014 174.68H546.494ZM626.201 174.68C625.081 174.68 624.381 174.26 623.961 173.14L580.421 65.62C580.281 65.34 580.141 65.06 580.141 64.78C580.141 63.94 580.841 63.38 581.961 63.38H601.001C602.121 63.38 602.961 63.8 603.241 64.92L633.481 146.26L663.441 64.92C663.721 63.8 664.701 63.38 665.821 63.38H684.581C685.981 63.38 686.681 64.36 686.121 65.62L642.581 173.14C642.161 174.26 641.321 174.68 640.341 174.68H626.201ZM703.583 174.68C702.323 174.68 701.623 173.98 701.623 172.72V65.34C701.623 64.08 702.323 63.38 703.583 63.38H720.943C722.063 63.38 722.763 63.8 723.323 64.78L761.823 128.76L799.763 64.78C800.323 63.8 801.023 63.38 802.143 63.38H819.083C820.343 63.38 821.043 64.08 821.043 65.34V172.72C821.043 173.98 820.343 174.68 819.083 174.68H803.263C802.143 174.68 801.303 173.98 801.303 172.72V97.54L768.683 152.14C768.263 152.98 767.563 153.4 766.443 153.4H756.223C755.103 153.4 754.403 152.98 753.843 152.14L721.223 98.24V172.72C721.223 173.98 720.523 174.68 719.263 174.68H703.583ZM944.813 176.78C912.053 176.78 890.073 153.96 890.073 119.1C890.073 84.1 913.033 61.28 945.093 61.28C968.473 61.28 985.273 72.2 992.693 91.1C992.833 91.38 992.833 91.66 992.833 91.94C992.833 92.92 992.413 93.48 991.433 93.76L975.193 98.24L974.633 98.38C973.793 98.38 973.093 97.96 972.813 97.12C967.493 86.9 957.973 81.3 945.373 81.3C923.953 81.3 911.213 96.42 911.213 119.24C911.213 141.92 924.093 156.76 945.373 156.76C961.753 156.76 974.073 148.36 975.753 132.12H947.893C946.773 132.12 945.933 131.28 945.933 130.16V115.04C945.933 113.92 946.773 113.08 947.893 113.08H994.373C995.493 113.08 996.333 113.92 996.333 115.04V127.64C996.333 155.36 978.273 176.78 944.813 176.78ZM1050.22 176.22C1025.44 176.22 1010.46 159.28 1010.46 135.48C1010.46 111.54 1025.44 94.6 1050.22 94.6C1074.3 94.6 1088.16 112.52 1087.32 139.54C1087.18 140.8 1086.48 141.5 1085.22 141.5H1031.46C1033.28 152.28 1039.86 158.72 1050.36 158.72C1058.34 158.72 1063.94 155.78 1067.58 149.76C1068.28 148.78 1069.12 148.64 1070.24 148.92L1083.68 153.54C1084.94 154.1 1085.36 154.94 1084.8 156.2C1077.8 169.92 1064.78 176.22 1050.22 176.22ZM1066.32 126.8C1064.5 117.56 1058.48 112.1 1050.08 112.1C1040.84 112.1 1034.12 117.42 1031.74 126.8H1066.32ZM1103.99 174.68C1102.73 174.68 1102.03 173.98 1102.03 172.72V98.1C1102.03 96.84 1102.73 96.14 1103.99 96.14H1118.27C1119.39 96.14 1120.37 96.7 1120.37 98.1L1120.79 107.06C1126.53 98.66 1136.33 94.6 1146.41 94.6C1164.61 94.6 1175.11 105.52 1175.11 123.58V172.72C1175.11 173.98 1174.27 174.68 1173.15 174.68H1157.33C1156.07 174.68 1155.37 173.98 1155.37 172.72V131.56C1155.37 118.54 1150.61 112.52 1140.39 112.52C1130.73 112.52 1121.63 119.66 1121.63 134.64V172.72C1121.63 173.98 1120.93 174.68 1119.67 174.68H1103.99ZM1230.28 176.22C1205.5 176.22 1190.52 159.28 1190.52 135.48C1190.52 111.54 1205.5 94.6 1230.28 94.6C1254.36 94.6 1268.22 112.52 1267.38 139.54C1267.24 140.8 1266.54 141.5 1265.28 141.5H1211.52C1213.34 152.28 1219.92 158.72 1230.42 158.72C1238.4 158.72 1244 155.78 1247.64 149.76C1248.34 148.78 1249.18 148.64 1250.3 148.92L1263.74 153.54C1265 154.1 1265.42 154.94 1264.86 156.2C1257.86 169.92 1244.84 176.22 1230.28 176.22ZM1246.38 126.8C1244.56 117.56 1238.54 112.1 1230.14 112.1C1220.9 112.1 1214.18 117.42 1211.8 126.8H1246.38ZM1284.05 174.68C1282.79 174.68 1282.09 173.98 1282.09 172.72V98.1C1282.09 96.84 1282.79 96.14 1284.05 96.14H1298.33C1299.45 96.14 1300.43 96.7 1300.43 98.1L1300.85 107.9C1306.17 99.5 1315.41 95.02 1324.79 95.02C1327.03 95.02 1328.57 95.3 1330.11 95.58C1331.37 95.86 1331.79 96.56 1331.79 97.68V113.22C1331.79 114.48 1331.09 114.9 1330.11 114.9C1328.01 114.9 1325.63 114.34 1322.41 114.34C1311.77 114.34 1301.69 121.62 1301.69 134.08V172.72C1301.69 173.98 1300.99 174.68 1299.73 174.68H1284.05ZM1375.81 176.22C1353.41 176.22 1339.13 159.56 1339.13 135.48C1339.13 111.26 1353.41 94.6 1375.81 94.6C1386.73 94.6 1395.83 99.22 1401.43 106.92L1401.99 98.1C1401.99 96.7 1402.83 96.14 1404.09 96.14H1418.23C1419.49 96.14 1420.33 96.84 1420.33 98.1V172.72C1420.33 173.98 1419.49 174.68 1418.23 174.68H1404.09C1402.83 174.68 1401.99 174.12 1401.99 172.72L1401.43 163.9C1395.83 171.6 1386.73 176.22 1375.81 176.22ZM1359.43 135.48C1359.43 148.92 1368.11 158.3 1380.71 158.3C1393.31 158.3 1401.99 148.92 1401.99 135.48C1401.99 121.9 1393.31 112.52 1380.71 112.52C1368.11 112.52 1359.43 121.9 1359.43 135.48ZM1471.48 176.22C1454.54 176.22 1445.16 165.58 1445.16 144.3V113.78H1433.68C1432.42 113.78 1431.72 112.94 1431.72 111.82V98.1C1431.72 96.84 1432.42 96.14 1433.68 96.14H1445.16V75C1445.16 73.88 1445.86 73.04 1447.12 73.04H1462.94C1464.06 73.04 1464.9 73.88 1464.9 75V96.14H1483.52C1484.78 96.14 1485.48 96.84 1485.48 98.1V111.82C1485.48 112.94 1484.78 113.78 1483.52 113.78H1464.9V145.56C1464.9 154.1 1467.56 158.3 1473.72 158.3C1476.24 158.3 1478.06 157.18 1479.6 154.52C1480.16 153.4 1481.14 152.98 1482.26 153.54L1494.16 158.86C1494.86 159.28 1495.28 159.84 1495.28 160.54C1495.28 160.96 1495.14 161.52 1494.72 162.08C1489.12 172.44 1480.44 176.22 1471.48 176.22ZM1541.35 176.22C1516.15 176.22 1499.77 159.28 1499.77 135.48C1499.77 111.54 1516.15 94.6 1541.35 94.6C1566.55 94.6 1582.93 111.54 1582.93 135.48C1582.93 159.28 1566.55 176.22 1541.35 176.22ZM1520.07 135.48C1520.07 148.92 1528.75 158.3 1541.35 158.3C1553.95 158.3 1562.63 148.92 1562.63 135.48C1562.63 121.9 1553.95 112.52 1541.35 112.52C1528.75 112.52 1520.07 121.9 1520.07 135.48ZM1600.96 174.68C1599.7 174.68 1599 173.98 1599 172.72V98.1C1599 96.84 1599.7 96.14 1600.96 96.14H1615.24C1616.36 96.14 1617.34 96.7 1617.34 98.1L1617.76 107.9C1623.08 99.5 1632.32 95.02 1641.7 95.02C1643.94 95.02 1645.48 95.3 1647.02 95.58C1648.28 95.86 1648.7 96.56 1648.7 97.68V113.22C1648.7 114.48 1648 114.9 1647.02 114.9C1644.92 114.9 1642.54 114.34 1639.32 114.34C1628.68 114.34 1618.6 121.62 1618.6 134.08V172.72C1618.6 173.98 1617.9 174.68 1616.64 174.68H1600.96Z" fill="#FBEEEA"/>
<path d="M435.96 277.572C435.4 277.572 435.064 277.236 435.344 276.676L453.096 233.668C453.264 233.22 453.6 233.052 453.992 233.052H459.648C460.096 233.052 460.376 233.22 460.544 233.668L478.352 276.676C478.408 276.788 478.408 276.9 478.408 277.012C478.408 277.348 478.184 277.572 477.736 277.572H470.064C469.672 277.572 469.336 277.404 469.168 276.956L466.032 268.668H447.552L444.36 276.956C444.192 277.404 443.912 277.572 443.464 277.572H435.96ZM450.352 261.052H463.12L456.736 244.196L450.352 261.052ZM485.32 277.572C484.816 277.572 484.536 277.292 484.536 276.788V233.836C484.536 233.332 484.816 233.052 485.32 233.052H491.928C492.376 233.052 492.712 233.332 492.712 233.836V276.788C492.712 277.292 492.376 277.572 491.928 277.572H485.32ZM506.507 278.412C506.003 278.412 505.723 278.132 505.723 277.628V255.116C505.723 254.556 506.003 254.332 506.507 254.332H544.699C545.259 254.332 545.483 254.556 545.483 255.116V277.628C545.483 278.132 545.259 278.412 544.699 278.412H506.507ZM500.011 245.54C500.011 245.036 500.291 244.756 500.795 244.756H511.995C511.379 242.908 510.651 240.836 509.867 238.932H503.931C503.427 238.932 503.147 238.652 503.147 238.148V233.332C503.147 232.828 503.427 232.548 503.931 232.548H521.627V229.356C521.627 228.852 521.907 228.572 522.411 228.572H528.515C529.019 228.572 529.299 228.852 529.299 229.356V232.548H547.163C547.667 232.548 547.947 232.828 547.947 233.332V238.148C547.947 238.652 547.667 238.932 547.163 238.932H541.171C540.667 240.892 539.995 242.964 539.323 244.756H550.299C550.803 244.756 551.083 245.036 551.083 245.54V250.356C551.083 250.86 550.803 251.14 550.299 251.14H500.795C500.291 251.14 500.011 250.86 500.011 250.356V245.54ZM512.891 272.644H538.371V268.724H512.891V272.644ZM512.891 263.46H538.371V259.708H512.891V263.46ZM517.539 238.932C518.267 240.836 518.939 242.796 519.555 244.756H531.707C532.435 242.908 533.107 240.836 533.667 238.932H517.539ZM557.803 238.652C557.299 238.652 557.019 238.372 557.019 237.868V233.052C557.019 232.548 557.299 232.268 557.803 232.268H577.515V229.3C577.515 228.796 577.795 228.516 578.299 228.516H584.515C585.075 228.516 585.299 228.796 585.299 229.3V232.268H605.347C605.851 232.268 606.131 232.548 606.131 233.052V237.868C606.131 238.372 605.851 238.652 605.347 238.652H585.299V242.124H602.883C603.387 242.124 603.667 242.404 603.667 242.908V247.388C603.667 247.892 603.387 248.172 602.883 248.172H560.379C559.875 248.172 559.595 247.892 559.595 247.388V242.908C559.595 242.404 559.875 242.124 560.379 242.124H577.515V238.652H557.803ZM555.899 275.892C559.427 271.3 560.435 265.7 560.435 259.82C560.435 258.308 560.379 253.884 560.323 251.588C560.323 251.084 560.603 250.804 561.107 250.804H602.491C603.051 250.804 603.275 251.084 603.275 251.588V267.828C603.275 268.332 603.051 268.612 602.491 268.612H567.211C566.595 272.588 565.251 276.284 562.955 279.364C562.675 279.756 562.283 279.812 561.891 279.644L556.123 276.956C555.843 276.844 555.675 276.62 555.675 276.396C555.675 276.228 555.731 276.06 555.899 275.892ZM567.659 256.796C567.659 259.148 567.715 260.716 567.659 262.508H577.907V256.796H567.659ZM585.187 262.508H596.051V256.796H585.187V262.508ZM615.091 250.86C614.979 250.916 614.811 250.916 614.699 250.916C614.419 250.916 614.195 250.748 614.083 250.412L611.787 244.308C611.731 244.196 611.731 244.084 611.731 243.972C611.731 243.692 611.899 243.468 612.291 243.356C621.587 240.164 629.091 234.34 633.403 229.076C633.627 228.74 633.907 228.628 634.355 228.628H640.347C640.795 228.628 641.075 228.74 641.355 229.02C646.731 234.9 654.459 239.94 662.915 242.964C663.419 243.132 663.587 243.468 663.419 243.916L661.179 250.076C661.011 250.524 660.619 250.692 660.171 250.468C657.595 249.292 655.019 247.948 652.555 246.492V250.076C652.555 250.58 652.275 250.86 651.771 250.86H623.547C623.043 250.86 622.763 250.58 622.763 250.076V246.828C620.243 248.34 617.611 249.684 615.091 250.86ZM617.723 256.572C617.723 256.068 618.003 255.788 618.507 255.788H656.867C657.371 255.788 657.651 256.068 657.651 256.572V277.348C657.651 277.852 657.371 278.132 656.867 278.132H618.507C618.003 278.132 617.723 277.852 617.723 277.348V256.572ZM625.003 271.692H650.315V262.228H625.003V271.692ZM649.139 244.364C644.771 241.508 640.795 238.204 637.491 234.732C634.803 238.148 630.939 241.452 626.683 244.364H649.139ZM678.595 255.452C678.371 264.076 677.531 272.14 674.507 279.028C674.283 279.476 673.891 279.644 673.443 279.42L668.067 276.956C667.619 276.732 667.451 276.34 667.675 275.892C670.587 269.34 671.595 261.444 671.595 250.468C671.595 246.212 671.539 241.676 671.483 237.252C671.483 236.748 671.763 236.468 672.267 236.468H694.331C694.219 234.004 694.163 231.652 694.163 229.412C694.163 228.908 694.443 228.628 694.947 228.628L700.491 228.572C700.995 228.572 701.275 228.852 701.275 229.356C701.275 231.708 701.275 234.116 701.331 236.468H708.611C707.323 234.956 705.867 233.5 704.299 232.38C704.075 232.212 703.963 232.044 703.963 231.82C703.963 231.652 704.075 231.484 704.299 231.316L708.107 228.796C708.331 228.684 708.499 228.628 708.667 228.628C708.835 228.628 709.059 228.684 709.227 228.796C711.523 230.308 713.875 232.492 715.555 234.9C715.667 235.068 715.723 235.18 715.723 235.348C715.723 235.572 715.555 235.796 715.331 235.964L714.659 236.468H717.179C717.683 236.468 717.963 236.748 717.963 237.252V242.404C717.963 242.908 717.683 243.188 717.179 243.188H701.611C701.947 248.62 702.675 253.94 704.075 258.812C706.483 255.172 708.219 251.196 709.227 246.884C709.339 246.38 709.675 246.156 710.179 246.324L714.995 248.116C715.443 248.284 715.667 248.564 715.499 249.068C713.595 255.172 710.739 260.884 706.987 265.812C707.603 266.988 708.275 268.108 709.003 269.06C710.011 270.348 710.795 270.852 711.523 270.852C713.259 270.852 714.211 267.38 714.659 263.628C714.715 263.236 714.883 263.012 715.163 263.012C715.275 263.012 715.499 263.068 715.667 263.236L719.699 266.988C720.035 267.268 720.091 267.604 720.035 267.996C718.803 274.94 715.835 279.476 711.859 279.476C709.507 279.476 706.763 277.852 703.851 274.212C703.179 273.372 702.507 272.42 701.891 271.468C698.475 274.772 694.555 277.516 690.187 279.644C690.075 279.7 689.963 279.756 689.795 279.756C689.571 279.756 689.291 279.588 689.123 279.364L685.203 274.716C685.035 274.548 684.979 274.38 684.979 274.212C684.979 273.988 685.147 273.764 685.427 273.652C690.747 271.412 695.227 268.5 698.811 265.084C696.403 258.42 695.227 250.692 694.667 243.188H678.595C678.595 244.924 678.651 246.996 678.651 249.068H691.195C691.699 249.068 691.979 249.348 691.979 249.852C691.979 254.164 691.979 258.868 691.755 263.124C691.363 270.124 689.179 273.204 681.395 273.036C680.947 273.036 680.667 272.868 680.499 272.42L678.651 267.212C678.595 267.1 678.595 266.988 678.595 266.876C678.595 266.54 678.819 266.316 679.323 266.316C683.747 266.484 684.979 265.252 685.259 262.452C685.483 260.268 685.483 256.348 685.483 255.452H678.595ZM770.405 256.852C770.405 257.356 770.125 257.636 769.621 257.636H747.557V264.188C747.557 267.212 748.789 268.556 751.925 268.892C753.381 269.06 755.005 269.172 756.853 269.172C760.549 269.172 764.917 268.836 769.341 268.164L769.565 268.108H769.621C769.957 268.108 770.237 268.388 770.181 268.892L769.901 274.94C769.901 275.444 769.621 275.724 769.173 275.78C765.141 276.284 761.221 276.452 757.749 276.452C754.781 276.452 752.149 276.284 750.133 276.116C743.693 275.556 739.661 272.868 739.661 265.812L739.773 257.636H725.941C725.437 257.636 725.157 257.356 725.157 256.852V251.364C725.157 250.804 725.437 250.58 725.941 250.58H739.773C739.829 247.276 739.829 244.028 739.829 240.892H727.621C727.117 240.892 726.837 240.612 726.837 240.108V234.676C726.837 234.172 727.117 233.892 727.621 233.892H767.269C767.773 233.892 768.053 234.172 768.053 234.676V240.108C768.053 240.612 767.773 240.892 767.269 240.892H747.781L747.669 250.58H769.621C770.125 250.58 770.405 250.804 770.405 251.364V256.852ZM824.637 253.212C824.637 253.716 824.357 253.996 823.853 253.996H806.157C805.093 265.476 800.389 273.988 787.005 277.796C786.893 277.852 786.781 277.852 786.669 277.852C786.389 277.852 786.165 277.74 785.941 277.516L781.125 272.476C780.957 272.308 780.901 272.14 780.901 271.972C780.901 271.748 781.069 271.524 781.461 271.468C793.221 268.948 797.253 263.236 798.205 253.996H778.157C777.653 253.996 777.373 253.716 777.373 253.212V247.78C777.373 247.276 777.653 246.996 778.157 246.996H823.853C824.357 246.996 824.637 247.276 824.637 247.78V253.212ZM783.253 233.836C783.253 233.332 783.533 233.052 784.037 233.052H814.893H815.005C814.501 232.212 813.941 231.372 813.381 230.588C813.269 230.42 813.213 230.252 813.213 230.084C813.213 229.86 813.381 229.692 813.717 229.524L816.573 228.516L816.965 228.46C817.189 228.46 817.413 228.572 817.637 228.796C819.541 231.204 821.277 234.172 822.285 236.86L822.341 237.14C822.341 237.476 822.117 237.7 821.781 237.812L818.589 239.044C818.421 239.1 818.309 239.1 818.197 239.1C817.917 239.1 817.693 238.932 817.581 238.596C817.077 237.252 816.461 235.796 815.677 234.34V239.212C815.677 239.716 815.397 239.996 814.893 239.996L784.037 239.94C783.533 239.94 783.253 239.66 783.253 239.156V233.836ZM819.653 228.012C819.653 227.788 819.821 227.62 820.157 227.508L822.901 226.5L823.293 226.444C823.517 226.444 823.741 226.556 823.965 226.78C825.645 228.796 827.605 231.82 828.725 234.508C828.781 234.676 828.837 234.788 828.837 234.9C828.837 235.18 828.669 235.404 828.277 235.516L825.253 236.636C825.141 236.692 825.029 236.692 824.917 236.692C824.637 236.692 824.413 236.524 824.245 236.188C823.293 233.724 821.669 230.756 819.877 228.516C819.709 228.348 819.653 228.18 819.653 228.012ZM854.076 276.228H853.964H853.908C853.516 276.228 853.236 275.948 853.236 275.444V234.508C853.236 234.004 853.516 233.724 854.02 233.724H860.236C860.796 233.724 861.02 234.004 861.02 234.508L860.74 266.26C865.724 264.3 870.316 258.532 872.612 252.092C872.78 251.756 872.948 251.588 873.228 251.588C873.34 251.588 873.508 251.644 873.676 251.756L878.436 255.732C878.828 256.012 878.94 256.292 878.772 256.628C875.076 266.148 866.564 275.332 854.076 276.228ZM827.196 272.028C827.196 271.86 827.364 271.636 827.588 271.468C837.892 265.14 839.236 255.228 839.236 242.068C839.236 239.94 839.236 237.7 839.18 235.348C839.18 234.844 839.46 234.564 839.964 234.564H846.012C846.572 234.564 846.796 234.9 846.796 235.516C846.796 254.836 846.964 267.156 833.86 276.956C833.692 277.124 833.524 277.18 833.3 277.18C833.132 277.18 832.964 277.068 832.74 276.956L827.532 272.588C827.308 272.42 827.196 272.252 827.196 272.028ZM889.434 277.628C889.098 277.628 888.818 277.516 888.65 277.18L885.402 271.076C885.346 270.908 885.29 270.796 885.29 270.628C885.29 270.348 885.514 270.124 885.962 270.068C907.186 266.428 913.458 254.164 915.306 243.468C905.058 243.58 892.234 243.748 882.714 243.804C882.21 243.804 881.986 243.524 881.986 243.02V237.028C881.986 236.524 882.21 236.244 882.77 236.244L923.482 236.188C924.042 236.188 924.266 236.468 924.266 236.972C923.034 258.7 912.338 273.092 889.658 277.628H889.434ZM970.009 240.668C970.513 240.668 970.793 240.948 970.793 241.508C970.345 252.764 964.969 260.492 956.513 264.076C956.401 264.132 956.233 264.132 956.121 264.132C955.897 264.132 955.673 264.02 955.449 263.796L953.041 261.108C951.137 268.612 946.377 274.492 937.473 277.628C937.305 277.684 937.193 277.684 937.081 277.684C936.801 277.684 936.577 277.572 936.409 277.348L932.713 272.532C932.601 272.364 932.545 272.252 932.545 272.084C932.545 271.804 932.825 271.58 933.273 271.412C943.913 268.668 947.217 261.836 947.217 253.044C947.217 252.484 947.161 251.924 947.161 251.308V251.252C947.161 250.748 947.441 250.468 947.945 250.468H953.321C953.825 250.468 954.105 250.748 954.105 251.252C954.105 253.604 953.993 255.844 953.657 257.972C958.697 256.012 961.945 252.092 962.953 247.22C954.777 247.22 943.801 247.332 933.105 247.388C932.601 247.388 932.321 247.108 932.321 246.604V241.508C932.321 241.004 932.601 240.724 933.105 240.724L970.009 240.668ZM1007.39 277.292C1007.39 277.796 1007.11 278.076 1006.61 278.076H1000.06C999.555 278.076 999.275 277.796 999.275 277.292L999.331 255.06C993.283 259.148 986.843 262.34 980.403 264.356C980.291 264.412 980.179 264.412 980.067 264.412C979.787 264.412 979.563 264.3 979.395 263.964L975.587 258.028C975.475 257.86 975.419 257.692 975.419 257.58C975.419 257.3 975.643 257.076 976.035 257.02C992.163 253.044 1004.99 242.796 1012.21 231.54C1012.49 231.148 1012.83 231.036 1013.27 231.26L1019.38 234.228C1019.66 234.396 1019.83 234.564 1019.83 234.844C1019.83 234.956 1019.77 235.124 1019.66 235.292C1016.19 240.276 1011.99 244.924 1007.28 249.012L1007.39 277.292ZM1047.83 276.228H1047.72H1047.67C1047.27 276.228 1046.99 275.948 1046.99 275.444V234.508C1046.99 234.004 1047.27 233.724 1047.78 233.724H1053.99C1054.55 233.724 1054.78 234.004 1054.78 234.508L1054.5 266.26C1059.48 264.3 1064.07 258.532 1066.37 252.092C1066.54 251.756 1066.71 251.588 1066.99 251.588C1067.1 251.588 1067.27 251.644 1067.43 251.756L1072.19 255.732C1072.59 256.012 1072.7 256.292 1072.53 256.628C1068.83 266.148 1060.32 275.332 1047.83 276.228ZM1020.95 272.028C1020.95 271.86 1021.12 271.636 1021.35 271.468C1031.65 265.14 1032.99 255.228 1032.99 242.068C1032.99 239.94 1032.99 237.7 1032.94 235.348C1032.94 234.844 1033.22 234.564 1033.72 234.564H1039.77C1040.33 234.564 1040.55 234.9 1040.55 235.516C1040.55 254.836 1040.72 267.156 1027.62 276.956C1027.45 277.124 1027.28 277.18 1027.06 277.18C1026.89 277.18 1026.72 277.068 1026.5 276.956L1021.29 272.588C1021.07 272.42 1020.95 272.252 1020.95 272.028ZM1083.73 253.828C1083.56 253.996 1083.34 254.108 1083.11 254.108C1082.95 254.108 1082.78 254.052 1082.61 253.94L1077.91 250.356C1077.68 250.188 1077.57 250.02 1077.57 249.796C1077.57 249.628 1077.63 249.46 1077.79 249.292C1082.44 244.196 1085.63 236.86 1087.09 230.756C1087.2 230.252 1087.48 230.084 1087.99 230.14L1093.42 230.98C1093.92 231.036 1094.15 231.428 1094.03 231.988C1093.53 234.06 1092.91 236.244 1092.19 238.372H1099.86V229.412C1099.86 228.908 1100.14 228.628 1100.64 228.628H1106.63C1107.14 228.628 1107.42 228.908 1107.42 229.412V238.372H1124.67C1125.17 238.372 1125.45 238.652 1125.45 239.156V244.588C1125.45 245.092 1125.17 245.372 1124.67 245.372H1107.42V254.164H1122.2C1122.71 254.164 1122.99 254.444 1122.99 254.948V260.324C1122.99 260.828 1122.71 261.108 1122.2 261.108H1107.42V270.852H1127.58C1128.08 270.852 1128.36 271.132 1128.36 271.636V277.18C1128.36 277.684 1128.08 277.964 1127.58 277.964H1078.75C1078.24 277.964 1077.96 277.684 1077.96 277.18V271.636C1077.96 271.132 1078.24 270.852 1078.75 270.852H1099.86V261.108H1084.91C1084.4 261.108 1084.12 260.828 1084.12 260.324V254.948C1084.12 254.444 1084.4 254.164 1084.91 254.164H1099.86V245.372H1089.33C1087.71 248.62 1085.8 251.532 1083.73 253.828ZM1143.99 255.452C1143.76 264.076 1142.92 272.14 1139.9 279.028C1139.67 279.476 1139.28 279.644 1138.83 279.42L1133.46 276.956C1133.01 276.732 1132.84 276.34 1133.07 275.892C1135.98 269.34 1136.99 261.444 1136.99 250.468C1136.99 246.212 1136.93 241.676 1136.87 237.252C1136.87 236.748 1137.15 236.468 1137.66 236.468H1159.72C1159.61 234.004 1159.55 231.652 1159.55 229.412C1159.55 228.908 1159.83 228.628 1160.34 228.628L1165.88 228.572C1166.39 228.572 1166.67 228.852 1166.67 229.356C1166.67 231.708 1166.67 234.116 1166.72 236.468H1174C1172.71 234.956 1171.26 233.5 1169.69 232.38C1169.47 232.212 1169.35 232.044 1169.35 231.82C1169.35 231.652 1169.47 231.484 1169.69 231.316L1173.5 228.796C1173.72 228.684 1173.89 228.628 1174.06 228.628C1174.23 228.628 1174.45 228.684 1174.62 228.796C1176.91 230.308 1179.27 232.492 1180.95 234.9C1181.06 235.068 1181.11 235.18 1181.11 235.348C1181.11 235.572 1180.95 235.796 1180.72 235.964L1180.05 236.468H1182.57C1183.07 236.468 1183.35 236.748 1183.35 237.252V242.404C1183.35 242.908 1183.07 243.188 1182.57 243.188H1167C1167.34 248.62 1168.07 253.94 1169.47 258.812C1171.87 255.172 1173.61 251.196 1174.62 246.884C1174.73 246.38 1175.07 246.156 1175.57 246.324L1180.39 248.116C1180.83 248.284 1181.06 248.564 1180.89 249.068C1178.99 255.172 1176.13 260.884 1172.38 265.812C1172.99 266.988 1173.67 268.108 1174.39 269.06C1175.4 270.348 1176.19 270.852 1176.91 270.852C1178.65 270.852 1179.6 267.38 1180.05 263.628C1180.11 263.236 1180.27 263.012 1180.55 263.012C1180.67 263.012 1180.89 263.068 1181.06 263.236L1185.09 266.988C1185.43 267.268 1185.48 267.604 1185.43 267.996C1184.19 274.94 1181.23 279.476 1177.25 279.476C1174.9 279.476 1172.15 277.852 1169.24 274.212C1168.57 273.372 1167.9 272.42 1167.28 271.468C1163.87 274.772 1159.95 277.516 1155.58 279.644C1155.47 279.7 1155.35 279.756 1155.19 279.756C1154.96 279.756 1154.68 279.588 1154.51 279.364L1150.59 274.716C1150.43 274.548 1150.37 274.38 1150.37 274.212C1150.37 273.988 1150.54 273.764 1150.82 273.652C1156.14 271.412 1160.62 268.5 1164.2 265.084C1161.79 258.42 1160.62 250.692 1160.06 243.188H1143.99C1143.99 244.924 1144.04 246.996 1144.04 249.068H1156.59C1157.09 249.068 1157.37 249.348 1157.37 249.852C1157.37 254.164 1157.37 258.868 1157.15 263.124C1156.75 270.124 1154.57 273.204 1146.79 273.036C1146.34 273.036 1146.06 272.868 1145.89 272.42L1144.04 267.212C1143.99 267.1 1143.99 266.988 1143.99 266.876C1143.99 266.54 1144.21 266.316 1144.71 266.316C1149.14 266.484 1150.37 265.252 1150.65 262.452C1150.87 260.268 1150.87 256.348 1150.87 255.452H1143.99ZM1203.73 260.268C1200.37 260.268 1197.68 257.58 1197.68 254.22C1197.68 250.86 1200.37 248.172 1203.73 248.172C1207.09 248.172 1209.77 250.86 1209.77 254.22C1209.77 257.58 1207.03 260.268 1203.73 260.268ZM1236.08 278.916C1236.08 279.42 1235.8 279.7 1235.3 279.7H1230.93C1230.43 279.7 1230.15 279.42 1230.15 278.916V258.868C1228.02 259.036 1225.84 259.036 1223.88 259.092C1223.37 259.092 1223.09 258.868 1223.04 258.364L1222.7 253.772V253.66C1222.7 253.212 1222.98 252.932 1223.43 252.932C1224.49 252.988 1225.56 253.044 1226.68 253.044C1227.57 251.868 1228.47 250.636 1229.31 249.348C1227.68 246.884 1225.11 244.028 1222.87 241.788C1222.64 241.564 1222.59 241.34 1222.59 241.116C1222.59 241.004 1222.59 240.836 1222.7 240.668L1224.83 236.468C1225 236.188 1225.22 236.02 1225.44 236.02C1225.56 236.02 1225.72 236.076 1225.89 236.244C1226.23 236.524 1226.51 236.804 1226.84 237.14C1228.13 234.676 1229.53 231.428 1230.48 228.572C1230.65 228.068 1230.99 227.956 1231.49 228.124L1235.8 229.748C1236.31 229.916 1236.48 230.308 1236.25 230.812C1234.68 234.172 1232.61 238.148 1230.71 241.284C1231.44 242.18 1232.16 243.02 1232.78 243.916C1234.4 241.228 1235.86 238.484 1237.09 235.796C1237.26 235.46 1237.43 235.292 1237.71 235.292C1237.82 235.292 1237.99 235.348 1238.16 235.46L1241.85 237.588C1242.13 237.756 1242.24 237.924 1242.24 238.204C1242.24 238.316 1242.19 238.484 1242.13 238.652C1239.22 244.028 1235.86 249.18 1232.95 252.988C1234.63 252.932 1236.31 252.82 1237.93 252.708C1237.71 251.812 1237.43 250.916 1237.15 250.02C1237.09 249.852 1237.09 249.74 1237.09 249.628C1237.09 249.348 1237.26 249.124 1237.6 249.012L1240 248.228C1240.17 248.172 1240.28 248.172 1240.4 248.172C1240.68 248.172 1240.9 248.34 1241.01 248.676C1242.08 251.868 1242.97 255.564 1243.42 258.812V258.924C1243.42 259.316 1243.2 259.596 1242.8 259.764L1240.06 260.66C1239.95 260.716 1239.84 260.716 1239.78 260.716C1239.44 260.716 1239.22 260.492 1239.16 260.044C1239.11 259.316 1239 258.644 1238.88 257.916C1237.99 258.028 1237.09 258.196 1236.08 258.308V278.916ZM1242.19 230.868C1242.19 230.364 1242.47 230.084 1242.97 230.084H1273.16C1273.66 230.084 1273.94 230.364 1273.94 230.868V235.012C1273.94 235.516 1273.66 235.796 1273.16 235.796H1242.97C1242.47 235.796 1242.19 235.516 1242.19 235.012V230.868ZM1239 272.476C1238.88 272.532 1238.77 272.532 1238.72 272.532C1238.32 272.532 1238.1 272.252 1238.1 271.804C1238.04 268.836 1237.71 265.476 1237.2 263.068C1237.2 262.956 1237.15 262.9 1237.15 262.788C1237.15 262.452 1237.37 262.284 1237.76 262.172L1240.28 261.668C1240.4 261.668 1240.45 261.612 1240.56 261.612C1240.9 261.612 1241.07 261.836 1241.18 262.228C1241.68 264.468 1242.19 267.212 1242.36 269.844C1243.64 264.356 1243.92 257.412 1243.92 250.244C1243.92 245.988 1243.87 241.116 1243.87 239.212C1243.87 238.708 1244.15 238.428 1244.65 238.428H1271.81C1272.32 238.428 1272.6 238.708 1272.6 239.212V251.364C1272.6 251.868 1272.32 252.148 1271.81 252.148H1250.25V254.724H1272.6C1273.1 254.724 1273.38 255.004 1273.38 255.508V272.308C1273.38 277.796 1272.54 279.588 1267.95 279.644C1267.5 279.644 1267.22 279.42 1267.11 278.972L1266.04 274.94C1265.99 274.828 1265.99 274.716 1265.99 274.66C1265.99 274.324 1266.27 274.156 1266.72 274.1C1267.95 273.988 1268.17 273.484 1268.17 272.028V269.62H1265.76V277.292C1265.76 277.796 1265.48 278.076 1264.98 278.076H1262.74C1262.24 278.076 1261.96 277.796 1261.96 277.292V269.62H1259.77V277.572C1259.77 278.076 1259.49 278.356 1258.99 278.356H1256.75C1256.24 278.356 1255.96 278.076 1255.96 277.572V269.62H1253.5L1253.44 278.916C1253.44 279.42 1253.16 279.7 1252.66 279.7H1249.92C1249.41 279.7 1249.13 279.42 1249.13 278.916L1249.19 267.38C1248.46 271.86 1247.4 275.612 1246.22 278.356C1246.05 278.692 1245.88 278.86 1245.6 278.86C1245.49 278.86 1245.32 278.804 1245.16 278.692L1240.9 276.116C1240.45 275.836 1240.34 275.5 1240.56 275.052C1241.07 274.044 1241.52 272.924 1241.85 271.692H1241.74L1239 272.476ZM1266.04 246.996V243.636H1250.2V246.996H1266.04ZM1255.96 264.804V259.764H1253.5V264.804H1255.96ZM1261.96 264.804V259.764H1259.77V264.804H1261.96ZM1268.17 264.804V259.764H1265.76V264.804H1268.17ZM1222.76 276.732C1222.25 276.62 1222.03 276.284 1222.14 275.78C1223.2 271.636 1223.71 266.316 1223.76 262.172C1223.76 261.668 1224.1 261.388 1224.6 261.444L1228.08 261.78C1228.58 261.836 1228.8 262.06 1228.8 262.508C1228.64 266.764 1228.24 272.084 1227.29 276.956C1227.18 277.46 1226.9 277.684 1226.4 277.572L1222.76 276.732ZM1280.55 266.764C1280.04 266.764 1279.76 266.484 1279.76 265.98V261.668C1279.76 261.164 1280.04 260.884 1280.55 260.884H1300.88V258.644H1285.7C1285.2 258.644 1284.92 258.364 1284.92 257.86V245.036C1283.85 246.1 1282.79 247.164 1281.72 248.06C1281.56 248.172 1281.39 248.228 1281.22 248.228C1280.94 248.228 1280.72 248.116 1280.6 247.78L1277.97 242.628C1277.92 242.46 1277.86 242.348 1277.86 242.18C1277.86 241.956 1277.97 241.732 1278.25 241.564C1282.68 238.428 1287.04 233.612 1289.56 228.852C1289.79 228.46 1290.07 228.292 1290.52 228.348L1296.17 229.132C1296.73 229.188 1296.96 229.58 1296.68 230.084C1296.23 230.924 1295.61 231.876 1294.94 232.884H1303.34C1304.12 231.708 1304.91 230.42 1305.47 229.3C1305.69 228.908 1305.97 228.684 1306.42 228.74L1312.41 229.132C1312.86 229.188 1313.03 229.356 1313.03 229.636C1313.03 229.804 1313.03 229.916 1312.92 230.084C1312.41 230.98 1311.74 231.988 1311.07 232.884H1326.02C1326.52 232.884 1326.8 233.164 1326.8 233.668V237.364C1326.8 237.868 1326.52 238.148 1326.02 238.148H1310.06V240.332H1324.06C1324.56 240.332 1324.84 240.612 1324.84 241.116V243.972C1324.84 244.476 1324.56 244.756 1324.06 244.756H1310.06V246.94H1324.06C1324.56 246.94 1324.84 247.22 1324.84 247.724V250.524C1324.84 251.028 1324.56 251.308 1324.06 251.308H1310.06V253.604H1326.69C1327.2 253.604 1327.48 253.884 1327.48 254.388V257.86C1327.48 258.364 1327.2 258.644 1326.69 258.644H1307.82V260.884H1328.48C1328.99 260.884 1329.27 261.164 1329.27 261.668V265.98C1329.27 266.484 1328.99 266.764 1328.48 266.764L1311.57 266.484C1316.39 269.228 1322.94 271.132 1329.77 272.252C1330.33 272.364 1330.56 272.7 1330.28 273.204L1327.7 278.412C1327.48 278.86 1327.14 279.028 1326.69 278.916C1319.69 277.236 1312.75 274.212 1307.76 270.628L1307.88 279.028C1307.88 279.532 1307.6 279.812 1307.09 279.812H1301.6C1301.1 279.812 1300.82 279.532 1300.82 279.028L1300.93 271.076C1295.72 274.884 1289.23 277.684 1282.84 279.084C1282.73 279.084 1282.68 279.14 1282.56 279.14C1282.28 279.14 1282 278.972 1281.84 278.636L1279.15 273.484C1279.09 273.316 1279.04 273.204 1279.04 273.092C1279.04 272.812 1279.26 272.588 1279.65 272.532C1286.54 271.3 1293.48 269.228 1297.85 266.484L1280.55 266.764ZM1303.12 240.388V238.148H1291.64V240.388H1303.12ZM1303.12 246.996V244.7H1291.64V246.996H1303.12ZM1303.12 253.604V251.308H1291.64V253.604H1303.12ZM1342.47 255.004C1342.41 255.06 1342.3 255.06 1342.24 255.06C1341.85 255.06 1341.63 254.836 1341.57 254.388C1340.9 248.508 1339.39 243.02 1336.92 237.924C1336.87 237.812 1336.87 237.644 1336.87 237.532C1336.87 237.252 1337.04 237.028 1337.43 236.972L1343.25 235.74H1343.48C1343.81 235.74 1344.04 235.908 1344.2 236.244C1346.67 241.06 1348.46 246.828 1349.19 252.54V252.708C1349.19 253.1 1348.96 253.38 1348.57 253.492L1342.47 255.004ZM1342.19 270.908C1342.19 270.628 1342.41 270.404 1342.8 270.348C1364.36 266.372 1373.21 254.948 1373.55 233.836C1373.55 233.276 1373.83 232.996 1374.39 233.108L1380.88 234.004C1381.39 234.06 1381.61 234.396 1381.56 234.9C1380.21 256.012 1372.6 271.748 1348.12 277.404C1348.01 277.46 1347.9 277.46 1347.84 277.46C1347.56 277.46 1347.28 277.348 1347.12 277.068L1342.41 271.356C1342.24 271.188 1342.19 271.02 1342.19 270.908ZM1351.54 234.9C1351.54 234.62 1351.76 234.396 1352.16 234.34L1358.09 233.108L1358.32 233.052H1358.37C1358.65 233.052 1358.88 233.22 1359.04 233.612C1361.34 238.596 1362.96 244.532 1363.41 250.02V250.132C1363.41 250.58 1363.24 250.86 1362.8 250.916L1356.69 252.428H1356.41C1356.02 252.428 1355.8 252.204 1355.8 251.756C1355.4 246.324 1353.89 240.276 1351.65 235.292C1351.6 235.18 1351.54 235.012 1351.54 234.9ZM1390.15 258.084C1389.7 258.084 1389.48 257.86 1389.48 257.412V251.028C1389.48 250.58 1389.7 250.356 1390.15 250.356H1432.82C1433.27 250.356 1433.49 250.58 1433.49 251.028V257.468C1433.49 257.916 1433.27 258.14 1432.82 258.14L1390.15 258.084ZM1463.35 276.228H1463.24H1463.18C1462.79 276.228 1462.51 275.948 1462.51 275.444V234.508C1462.51 234.004 1462.79 233.724 1463.29 233.724H1469.51C1470.07 233.724 1470.29 234.004 1470.29 234.508L1470.01 266.26C1475 264.3 1479.59 258.532 1481.89 252.092C1482.05 251.756 1482.22 251.588 1482.5 251.588C1482.61 251.588 1482.78 251.644 1482.95 251.756L1487.71 255.732C1488.1 256.012 1488.21 256.292 1488.05 256.628C1484.35 266.148 1475.84 275.332 1463.35 276.228ZM1436.47 272.028C1436.47 271.86 1436.64 271.636 1436.86 271.468C1447.17 265.14 1448.51 255.228 1448.51 242.068C1448.51 239.94 1448.51 237.7 1448.45 235.348C1448.45 234.844 1448.73 234.564 1449.24 234.564H1455.29C1455.85 234.564 1456.07 234.9 1456.07 235.516C1456.07 254.836 1456.24 267.156 1443.13 276.956C1442.97 277.124 1442.8 277.18 1442.57 277.18C1442.41 277.18 1442.24 277.068 1442.01 276.956L1436.81 272.588C1436.58 272.42 1436.47 272.252 1436.47 272.028Z" fill="#D2D3D4"/>
<defs>
<linearGradient id="paint0_linear_669_5522" x1="175" y1="0" x2="175" y2="350" gradientUnits="userSpaceOnUse">
<stop offset="0.344667" stop-color="#55ACEE"/>
<stop offset="1" stop-color="#41A2EC"/>
</linearGradient>
</defs>
</svg>
