<svg width="191" height="42" viewBox="0 0 191 42" fill="none" xmlns="http://www.w3.org/2000/svg">
<g clip-path="url(#clip0_290_1322)">
<path d="M19.6782 18.3563C20.4073 19.0867 21.5915 19.0867 22.3218 18.3563L29.5925 11.0868C30.3217 10.3565 30.3217 9.1735 29.5925 8.44317L22.3218 1.17367C21.5927 0.443332 20.4085 0.443332 19.6782 1.17367L12.4075 8.44317C11.6772 9.1735 11.6772 10.3565 12.4075 11.0868L19.6782 18.3563ZM30.9143 29.5913C31.6435 30.3217 32.8277 30.3217 33.558 29.5913L40.8287 22.3218C41.5578 21.5915 41.5578 20.4085 40.8287 19.6782L33.558 12.4087C32.8288 11.6783 31.6447 11.6783 30.9143 12.4087L23.6437 19.6782C22.9133 20.4085 22.9133 21.5915 23.6437 22.3218L30.9143 29.5913ZM29.5913 30.9143L22.3218 23.6437C21.5915 22.9133 20.4085 22.9133 19.6782 23.6437L12.4087 30.9143C11.6783 31.6447 11.6783 32.8265 12.4087 33.5568L19.6782 40.8275C20.4085 41.5567 21.5915 41.5567 22.3218 40.8275L29.5913 33.5568C30.3217 32.8265 30.3217 31.6447 29.5913 30.9143ZM18.3563 19.6793L11.0868 12.4087C10.3565 11.6783 9.1735 11.6783 8.44317 12.4087L1.17367 19.6793C0.443332 20.4097 0.443332 21.5915 1.17367 22.3218L8.44317 29.5925C9.1735 30.3217 10.3565 30.3217 11.0868 29.5925L18.3563 22.3218C19.0867 21.5915 19.0867 20.4097 18.3563 19.6793Z" fill="#55ACEE"/>
<path d="M18.3563 19.6793L14.6066 15.9285C13.4995 17.3226 12.8333 19.082 12.8333 21C12.8333 22.918 13.4995 24.6785 14.6066 26.0715L18.3563 22.3218C19.0866 21.5915 19.0866 20.4096 18.3563 19.6793ZM26.0726 27.3933L22.3218 23.6425C21.5926 22.9145 20.4085 22.9145 19.6781 23.6425L15.9273 27.3933C17.3215 28.5005 19.082 29.1666 21 29.1666C22.918 29.1666 24.6785 28.5005 26.0726 27.3933ZM23.6436 22.3218L27.3945 26.0726C28.5005 24.6785 29.1666 22.918 29.1666 21C29.1666 19.082 28.5005 17.3215 27.3933 15.9285L23.6425 19.6793C22.9145 20.4096 22.9145 21.5915 23.6436 22.3218ZM22.3218 18.3563L26.0726 14.6066C24.6785 13.4995 22.918 12.8333 21 12.8333C19.082 12.8333 17.3215 13.4995 15.9285 14.6066L19.6793 18.3563C20.4085 19.0866 21.5915 19.0866 22.3218 18.3563Z" fill="#3B88C3"/>
<path d="M21 26.8334C24.2217 26.8334 26.8334 24.2217 26.8334 21C26.8334 17.7784 24.2217 15.1667 21 15.1667C17.7784 15.1667 15.1667 17.7784 15.1667 21C15.1667 24.2217 17.7784 26.8334 21 26.8334Z" fill="#BBDDF5"/>
<path d="M21 26.8334C24.2217 26.8334 26.8334 24.2217 26.8334 21C26.8334 17.7784 24.2217 15.1667 21 15.1667C17.7784 15.1667 15.1667 17.7784 15.1667 21C15.1667 24.2217 17.7784 26.8334 21 26.8334Z" fill="#E9F5BB"/>
</g>
<path d="M50.56 21.592C50.4 21.592 50.304 21.496 50.384 21.336L55.456 9.048C55.504 8.92 55.6 8.872 55.712 8.872H57.328C57.456 8.872 57.536 8.92 57.584 9.048L62.672 21.336C62.688 21.368 62.688 21.4 62.688 21.432C62.688 21.528 62.624 21.592 62.496 21.592H60.304C60.192 21.592 60.096 21.544 60.048 21.416L59.152 19.048H53.872L52.96 21.416C52.912 21.544 52.832 21.592 52.704 21.592H50.56ZM54.672 16.872H58.32L56.496 12.056L54.672 16.872ZM64.6629 21.592C64.5189 21.592 64.4389 21.512 64.4389 21.368V9.096C64.4389 8.952 64.5189 8.872 64.6629 8.872H66.5509C66.6789 8.872 66.7749 8.952 66.7749 9.096V21.368C66.7749 21.512 66.6789 21.592 66.5509 21.592H64.6629ZM73.7723 21.592C73.6443 21.592 73.5643 21.544 73.5163 21.416L68.5403 9.128C68.5243 9.096 68.5083 9.064 68.5083 9.032C68.5083 8.936 68.5883 8.872 68.7163 8.872H70.8923C71.0203 8.872 71.1163 8.92 71.1483 9.048L74.6043 18.344L78.0283 9.048C78.0603 8.92 78.1723 8.872 78.3003 8.872H80.4443C80.6043 8.872 80.6843 8.984 80.6203 9.128L75.6443 21.416C75.5963 21.544 75.5003 21.592 75.3883 21.592H73.7723ZM82.616 21.592C82.472 21.592 82.392 21.512 82.392 21.368V9.096C82.392 8.952 82.472 8.872 82.616 8.872H84.6C84.728 8.872 84.808 8.92 84.872 9.032L89.272 16.344L93.608 9.032C93.672 8.92 93.752 8.872 93.88 8.872H95.816C95.96 8.872 96.04 8.952 96.04 9.096V21.368C96.04 21.512 95.96 21.592 95.816 21.592H94.008C93.88 21.592 93.784 21.512 93.784 21.368V12.776L90.056 19.016C90.008 19.112 89.928 19.16 89.8 19.16H88.632C88.504 19.16 88.424 19.112 88.36 19.016L84.632 12.856V21.368C84.632 21.512 84.552 21.592 84.408 21.592H82.616ZM110.185 21.832C106.441 21.832 103.929 19.224 103.929 15.24C103.929 11.24 106.553 8.632 110.217 8.632C112.889 8.632 114.809 9.88 115.657 12.04C115.673 12.072 115.673 12.104 115.673 12.136C115.673 12.248 115.625 12.312 115.513 12.344L113.657 12.856L113.593 12.872C113.497 12.872 113.417 12.824 113.385 12.728C112.777 11.56 111.689 10.92 110.249 10.92C107.801 10.92 106.345 12.648 106.345 15.256C106.345 17.848 107.817 19.544 110.249 19.544C112.121 19.544 113.529 18.584 113.721 16.728H110.537C110.409 16.728 110.313 16.632 110.313 16.504V14.776C110.313 14.648 110.409 14.552 110.537 14.552H115.849C115.977 14.552 116.073 14.648 116.073 14.776V16.216C116.073 19.384 114.009 21.832 110.185 21.832ZM122.231 21.768C119.399 21.768 117.687 19.832 117.687 17.112C117.687 14.376 119.399 12.44 122.231 12.44C124.983 12.44 126.567 14.488 126.471 17.576C126.455 17.72 126.375 17.8 126.231 17.8H120.087C120.295 19.032 121.047 19.768 122.247 19.768C123.159 19.768 123.799 19.432 124.215 18.744C124.295 18.632 124.391 18.616 124.519 18.648L126.055 19.176C126.199 19.24 126.247 19.336 126.183 19.48C125.383 21.048 123.895 21.768 122.231 21.768ZM124.071 16.12C123.863 15.064 123.175 14.44 122.215 14.44C121.159 14.44 120.391 15.048 120.119 16.12H124.071ZM128.377 21.592C128.233 21.592 128.153 21.512 128.153 21.368V12.84C128.153 12.696 128.233 12.616 128.377 12.616H130.009C130.137 12.616 130.249 12.68 130.249 12.84L130.297 13.864C130.953 12.904 132.073 12.44 133.225 12.44C135.305 12.44 136.505 13.688 136.505 15.752V21.368C136.505 21.512 136.409 21.592 136.281 21.592H134.473C134.329 21.592 134.249 21.512 134.249 21.368V16.664C134.249 15.176 133.705 14.488 132.537 14.488C131.433 14.488 130.393 15.304 130.393 17.016V21.368C130.393 21.512 130.313 21.592 130.169 21.592H128.377ZM142.809 21.768C139.977 21.768 138.265 19.832 138.265 17.112C138.265 14.376 139.977 12.44 142.809 12.44C145.561 12.44 147.145 14.488 147.049 17.576C147.033 17.72 146.953 17.8 146.809 17.8H140.665C140.873 19.032 141.625 19.768 142.825 19.768C143.737 19.768 144.377 19.432 144.793 18.744C144.873 18.632 144.969 18.616 145.097 18.648L146.633 19.176C146.777 19.24 146.825 19.336 146.761 19.48C145.961 21.048 144.473 21.768 142.809 21.768ZM144.649 16.12C144.441 15.064 143.753 14.44 142.793 14.44C141.737 14.44 140.969 15.048 140.697 16.12H144.649ZM148.955 21.592C148.811 21.592 148.731 21.512 148.731 21.368V12.84C148.731 12.696 148.811 12.616 148.955 12.616H150.587C150.715 12.616 150.827 12.68 150.827 12.84L150.875 13.96C151.483 13 152.539 12.488 153.611 12.488C153.867 12.488 154.043 12.52 154.219 12.552C154.363 12.584 154.411 12.664 154.411 12.792V14.568C154.411 14.712 154.331 14.76 154.219 14.76C153.979 14.76 153.707 14.696 153.339 14.696C152.123 14.696 150.971 15.528 150.971 16.952V21.368C150.971 21.512 150.891 21.592 150.747 21.592H148.955ZM159.442 21.768C156.882 21.768 155.25 19.864 155.25 17.112C155.25 14.344 156.882 12.44 159.442 12.44C160.69 12.44 161.73 12.968 162.37 13.848L162.434 12.84C162.434 12.68 162.53 12.616 162.674 12.616H164.29C164.434 12.616 164.53 12.696 164.53 12.84V21.368C164.53 21.512 164.434 21.592 164.29 21.592H162.674C162.53 21.592 162.434 21.528 162.434 21.368L162.37 20.36C161.73 21.24 160.69 21.768 159.442 21.768ZM157.57 17.112C157.57 18.648 158.562 19.72 160.002 19.72C161.442 19.72 162.434 18.648 162.434 17.112C162.434 15.56 161.442 14.488 160.002 14.488C158.562 14.488 157.57 15.56 157.57 17.112ZM170.375 21.768C168.439 21.768 167.367 20.552 167.367 18.12V14.632H166.055C165.911 14.632 165.831 14.536 165.831 14.408V12.84C165.831 12.696 165.911 12.616 166.055 12.616H167.367V10.2C167.367 10.072 167.447 9.976 167.591 9.976H169.399C169.527 9.976 169.623 10.072 169.623 10.2V12.616H171.751C171.895 12.616 171.975 12.696 171.975 12.84V14.408C171.975 14.536 171.895 14.632 171.751 14.632H169.623V18.264C169.623 19.24 169.927 19.72 170.631 19.72C170.919 19.72 171.127 19.592 171.303 19.288C171.367 19.16 171.479 19.112 171.607 19.176L172.967 19.784C173.047 19.832 173.095 19.896 173.095 19.976C173.095 20.024 173.079 20.088 173.031 20.152C172.391 21.336 171.399 21.768 170.375 21.768ZM178.361 21.768C175.481 21.768 173.609 19.832 173.609 17.112C173.609 14.376 175.481 12.44 178.361 12.44C181.241 12.44 183.113 14.376 183.113 17.112C183.113 19.832 181.241 21.768 178.361 21.768ZM175.929 17.112C175.929 18.648 176.921 19.72 178.361 19.72C179.801 19.72 180.793 18.648 180.793 17.112C180.793 15.56 179.801 14.488 178.361 14.488C176.921 14.488 175.929 15.56 175.929 17.112ZM185.174 21.592C185.03 21.592 184.95 21.512 184.95 21.368V12.84C184.95 12.696 185.03 12.616 185.174 12.616H186.806C186.934 12.616 187.046 12.68 187.046 12.84L187.094 13.96C187.702 13 188.758 12.488 189.83 12.488C190.086 12.488 190.262 12.52 190.438 12.552C190.582 12.584 190.63 12.664 190.63 12.792V14.568C190.63 14.712 190.55 14.76 190.438 14.76C190.198 14.76 189.926 14.696 189.558 14.696C188.342 14.696 187.19 15.528 187.19 16.952V21.368C187.19 21.512 187.11 21.592 186.966 21.592H185.174Z" fill="#FBEEEA"/>
<path d="M51.3384 34.1875H50.7909C50.7309 34.1875 50.7009 34.15 50.7309 34.09L53.0334 28.435C53.0559 28.3825 53.0934 28.3675 53.1384 28.3675H53.6034C53.6484 28.3675 53.6859 28.3825 53.7009 28.435L56.0184 34.09C56.0409 34.15 56.0109 34.1875 55.9509 34.1875H55.3809C55.3434 34.1875 55.2984 34.1725 55.2834 34.1275L54.7359 32.7325H51.9909L51.4434 34.1275C51.4134 34.1725 51.3834 34.1875 51.3384 34.1875ZM52.2234 32.11H54.5034L53.3559 29.1925L52.2234 32.11ZM57.509 34.1875H57.0215C56.9615 34.1875 56.9315 34.1575 56.9315 34.0975V28.45C56.9315 28.3975 56.9615 28.3675 57.0215 28.3675H57.509C57.569 28.3675 57.599 28.3975 57.599 28.45V34.0975C57.599 34.1575 57.569 34.1875 57.509 34.1875ZM59.0862 28.8025V28.48C59.0862 28.42 59.1237 28.39 59.1762 28.39H61.7637V27.805C61.7637 27.745 61.8012 27.715 61.8537 27.715H62.2587C62.3187 27.715 62.3487 27.745 62.3487 27.805V28.39H64.9587C65.0187 28.39 65.0487 28.42 65.0487 28.48V28.8025C65.0487 28.8625 65.0187 28.8925 64.9587 28.8925H64.0287C63.9162 29.275 63.7662 29.7325 63.6012 30.1H65.3712C65.4312 30.1 65.4612 30.13 65.4612 30.19V30.5125C65.4612 30.5725 65.4312 30.6025 65.3712 30.6025H58.7487C58.6887 30.6025 58.6587 30.5725 58.6587 30.5125V30.19C58.6587 30.13 58.6887 30.1 58.7487 30.1H60.5562C60.4437 29.725 60.2787 29.2825 60.1062 28.8925H59.1762C59.1237 28.8925 59.0862 28.8625 59.0862 28.8025ZM61.1412 30.1H63.0087C63.1812 29.7175 63.3387 29.26 63.4437 28.8925H60.7062C60.8637 29.2675 61.0137 29.6875 61.1412 30.1ZM59.5287 34.2475V31.3525C59.5287 31.2925 59.5587 31.2625 59.6187 31.2625H64.5387C64.5987 31.2625 64.6287 31.2925 64.6287 31.3525V34.2475C64.6287 34.3075 64.5987 34.3375 64.5387 34.3375H59.6187C59.5587 34.3375 59.5287 34.3075 59.5287 34.2475ZM60.0762 32.545H64.0662V31.765H60.0762V32.545ZM60.0762 33.8425H64.0662V33.0175H60.0762V33.8425ZM66.2937 28.7875V28.4575C66.2937 28.3975 66.3237 28.3675 66.3837 28.3675H69.2712V27.7825C69.2712 27.7225 69.3012 27.6925 69.3612 27.6925H69.7437C69.8037 27.6925 69.8337 27.7225 69.8337 27.7825V28.3675H72.7437C72.7962 28.3675 72.8337 28.3975 72.8337 28.4575V28.7875C72.8337 28.84 72.7962 28.8775 72.7437 28.8775H69.8337V29.665H72.3987C72.4587 29.665 72.4887 29.695 72.4887 29.755V30.0775C72.4887 30.1375 72.4587 30.1675 72.3987 30.1675H66.7437C66.6837 30.1675 66.6537 30.1375 66.6537 30.0775V29.755C66.6537 29.695 66.6837 29.665 66.7437 29.665H69.2712V28.8775H66.3837C66.3237 28.8775 66.2937 28.84 66.2937 28.7875ZM66.5037 34.5775L66.1437 34.39C66.0837 34.36 66.0762 34.315 66.1212 34.27C66.6762 33.6625 66.8112 32.77 66.8037 32.02C66.8037 31.825 66.7962 31.1425 66.7962 30.88C66.7962 30.8275 66.8262 30.79 66.8862 30.79H72.3237C72.3837 30.79 72.4137 30.8275 72.4137 30.88V32.815C72.4137 32.8675 72.3837 32.905 72.3237 32.905H67.2987C67.2162 33.5125 67.0137 34.0975 66.6237 34.555C66.5862 34.5925 66.5487 34.6 66.5037 34.5775ZM67.3437 32.395H69.3237V31.285H67.3362C67.3437 31.69 67.3512 31.9825 67.3437 32.32V32.395ZM69.8337 32.395H71.8887V31.285H69.8337V32.395ZM73.8612 30.5125L73.6737 30.1075C73.6512 30.055 73.6662 30.01 73.7262 29.9875C74.9937 29.4925 76.0812 28.615 76.7187 27.775C76.7487 27.7375 76.7862 27.7225 76.8312 27.7225H77.2662C77.3112 27.7225 77.3487 27.7375 77.3787 27.775C78.1437 28.66 79.1637 29.4025 80.4312 29.92C80.4837 29.9425 80.5062 29.9875 80.4762 30.04L80.2962 30.4525C80.2737 30.505 80.2287 30.52 80.1762 30.4975C78.9237 29.8975 77.8662 29.125 77.0637 28.21C76.2987 29.2 75.1737 30.0025 73.9812 30.5575C73.9287 30.58 73.8837 30.565 73.8612 30.5125ZM75.1362 30.43V30.0625C75.1362 30.0025 75.1737 29.9725 75.2262 29.9725H78.9387C78.9987 29.9725 79.0287 30.0025 79.0287 30.0625V30.43C79.0287 30.49 78.9987 30.52 78.9387 30.52H75.2262C75.1737 30.52 75.1362 30.49 75.1362 30.43ZM74.5437 34.2325V31.585C74.5437 31.525 74.5737 31.495 74.6337 31.495H79.5387C79.5987 31.495 79.6287 31.525 79.6287 31.585V34.2325C79.6287 34.2925 79.5987 34.3225 79.5387 34.3225H74.6337C74.5737 34.3225 74.5437 34.2925 74.5437 34.2325ZM75.0987 33.7825H79.0737V32.0275H75.0987V33.7825ZM81.8262 28.9375H84.7812C84.7662 28.5475 84.7512 28.1725 84.7437 27.8125C84.7437 27.7525 84.7737 27.7225 84.8337 27.7225L85.2237 27.715C85.2837 27.715 85.3137 27.745 85.3137 27.805C85.3212 28.165 85.3287 28.5475 85.3437 28.9375H87.7362C87.7962 28.9375 87.8262 28.9675 87.8262 29.0275V29.3725C87.8262 29.4325 87.7962 29.4625 87.7362 29.4625H85.3737C85.4412 30.4075 85.5837 31.3675 85.8837 32.2C86.3112 31.6225 86.6412 30.9625 86.8587 30.22C86.8737 30.16 86.9112 30.145 86.9712 30.16L87.2937 30.2725C87.3462 30.2875 87.3687 30.3325 87.3462 30.385C87.0687 31.255 86.6562 32.05 86.1012 32.74C86.2362 33.0325 86.6937 33.88 87.0687 33.88C87.4137 33.88 87.5862 33.2275 87.6537 32.5975C87.6612 32.5225 87.7137 32.5 87.7662 32.5525L88.0587 32.815C88.0962 32.845 88.1112 32.8825 88.1037 32.9275C87.9687 33.9025 87.6012 34.5475 87.0912 34.5475C86.5062 34.5475 85.9437 33.6775 85.6962 33.1975C85.1637 33.7525 84.5262 34.21 83.7987 34.5475C83.7462 34.57 83.7087 34.5625 83.6712 34.5175L83.3937 34.2175C83.3487 34.165 83.3562 34.12 83.4237 34.09C84.2187 33.7525 84.9087 33.28 85.4712 32.6875C85.0812 31.72 84.9012 30.5725 84.8187 29.4625H82.2912C82.2912 29.8225 82.2912 30.1975 82.2912 30.5575H84.1062C84.1662 30.5575 84.1962 30.5875 84.1962 30.6475C84.2112 31.15 84.2037 31.84 84.1737 32.32C84.1287 33.145 83.8287 33.58 82.7187 33.5575C82.6662 33.5575 82.6362 33.535 82.6212 33.4825L82.4937 33.1075C82.4712 33.0475 82.5012 33.0025 82.5762 33.01C83.3487 33.0325 83.5962 32.8825 83.6412 32.305C83.6712 31.9225 83.6712 31.2925 83.6637 31.06H82.2912C82.2687 32.23 82.1712 33.4225 81.6687 34.4875C81.6462 34.54 81.6012 34.555 81.5487 34.5325L81.1662 34.345C81.1137 34.3225 81.0987 34.2775 81.1287 34.225C81.5712 33.34 81.7212 32.2825 81.7362 30.7C81.7437 30.205 81.7437 29.5825 81.7362 29.0275C81.7362 28.9675 81.7662 28.9375 81.8262 28.9375ZM87.3237 28.6075L87.0687 28.84C87.0237 28.8775 86.9787 28.8775 86.9412 28.8325C86.6787 28.5475 86.3262 28.2775 85.9737 28.09C85.9137 28.0525 85.9137 28.0075 85.9587 27.9625L86.1987 27.745C86.2437 27.715 86.2812 27.7075 86.3262 27.73C86.6862 27.925 87.0537 28.1875 87.3312 28.48C87.3687 28.525 87.3687 28.57 87.3237 28.6075ZM89.0233 29.0275V28.675C89.0233 28.615 89.0533 28.585 89.1133 28.585H94.3858C94.4458 28.585 94.4758 28.615 94.4758 28.675V29.0275C94.4758 29.0875 94.4458 29.1175 94.3858 29.1175H91.5433C91.5358 29.65 91.5208 30.2575 91.5133 30.835H94.6933C94.7458 30.835 94.7833 30.865 94.7833 30.925V31.285C94.7833 31.345 94.7458 31.375 94.6933 31.375H91.5058C91.4983 31.825 91.4983 32.2375 91.4983 32.575C91.4983 33.16 91.7083 33.355 92.2783 33.43C92.4958 33.4525 92.7433 33.4675 93.0133 33.4675C93.5083 33.4675 94.0708 33.4225 94.6483 33.3475C94.7083 33.34 94.7458 33.37 94.7383 33.43L94.7233 33.835C94.7158 33.8875 94.6858 33.9175 94.6333 33.925C94.0783 33.9925 93.5533 34.0225 93.0883 34.0225C92.7358 34.0225 92.4208 34.0075 92.1508 33.9775C91.3258 33.8875 90.8833 33.5575 90.8983 32.6425C90.8983 32.26 90.9058 31.825 90.9133 31.375H88.9183C88.8583 31.375 88.8283 31.345 88.8283 31.285V30.925C88.8283 30.865 88.8583 30.835 88.9183 30.835H90.9208C90.9283 30.25 90.9358 29.6575 90.9433 29.1175H89.1133C89.0533 29.1175 89.0233 29.0875 89.0233 29.0275ZM102.461 28.705L102.243 28.795C102.191 28.8175 102.146 28.8025 102.123 28.75C101.988 28.4125 101.756 27.9925 101.501 27.6775C101.456 27.625 101.471 27.58 101.531 27.55L101.726 27.475C101.778 27.4525 101.816 27.4675 101.846 27.505C102.086 27.7975 102.356 28.2325 102.513 28.5925C102.536 28.645 102.513 28.69 102.461 28.705ZM101.651 28.9825L101.418 29.0725C101.366 29.095 101.328 29.0725 101.306 29.02C101.178 28.69 100.961 28.2475 100.713 27.9175C100.676 27.865 100.691 27.82 100.751 27.7975L100.953 27.715C101.006 27.7 101.043 27.7075 101.073 27.7525C101.328 28.0675 101.576 28.51 101.703 28.8625C101.726 28.9225 101.703 28.96 101.651 28.9825ZM96.5584 28.9075V28.555C96.5584 28.5025 96.5884 28.465 96.6484 28.465H100.826C100.886 28.465 100.916 28.5025 100.916 28.555V28.9075C100.916 28.9675 100.886 28.9975 100.826 28.9975H96.6484C96.5884 28.9975 96.5584 28.9675 96.5584 28.9075ZM95.7334 30.7675V30.415C95.7334 30.3625 95.7634 30.325 95.8234 30.325H101.838C101.898 30.325 101.928 30.3625 101.928 30.415V30.775C101.928 30.8275 101.898 30.865 101.838 30.865H99.2884C99.1984 32.485 98.5684 33.7525 96.7009 34.225C96.6484 34.24 96.6109 34.225 96.5809 34.1875L96.2659 33.8425C96.2209 33.79 96.2359 33.7375 96.3109 33.7225C98.0584 33.355 98.5984 32.3125 98.6734 30.8575H95.8234C95.7634 30.8575 95.7334 30.8275 95.7334 30.7675ZM105.85 33.9175V28.5475C105.85 28.4875 105.88 28.4575 105.94 28.4575H106.353C106.413 28.4575 106.443 28.4875 106.443 28.54C106.435 29.695 106.428 32.23 106.42 33.2725C107.358 33.0325 108.303 32.1175 108.64 30.9775C108.663 30.91 108.708 30.895 108.76 30.9325L109.083 31.18C109.128 31.21 109.135 31.2475 109.12 31.2925C108.67 32.7025 107.448 33.8275 105.948 34.0075C105.888 34.015 105.85 33.9775 105.85 33.9175ZM102.745 34.1125L102.4 33.8125C102.348 33.7675 102.355 33.7225 102.415 33.685C104.208 32.725 104.155 30.76 104.125 28.66C104.125 28.6 104.163 28.57 104.215 28.57H104.62C104.68 28.57 104.71 28.6 104.71 28.66C104.718 31.0675 104.778 32.92 102.873 34.1275C102.828 34.1575 102.783 34.15 102.745 34.1125ZM110.348 34.1275L110.123 33.7075C110.085 33.655 110.108 33.61 110.175 33.595C112.883 33.13 114.06 31.4875 114.353 29.4475L109.725 29.47C109.665 29.47 109.635 29.44 109.635 29.38V28.99C109.635 28.9375 109.665 28.9 109.725 28.9L114.938 28.8925C114.998 28.8925 115.028 28.93 115.028 28.99C114.765 31.7725 113.378 33.58 110.46 34.18C110.408 34.1875 110.37 34.1725 110.348 34.1275ZM119.304 32.3575L119.042 32.0875C118.989 32.0425 119.004 31.99 119.064 31.9675C120.047 31.6 120.572 30.7825 120.729 29.95C119.897 29.95 117.549 29.965 116.402 29.9725C116.342 29.9725 116.312 29.935 116.312 29.8825V29.545C116.312 29.485 116.342 29.455 116.402 29.455H121.247C121.307 29.455 121.337 29.485 121.329 29.545C121.202 30.865 120.557 31.855 119.432 32.38C119.379 32.4025 119.342 32.395 119.304 32.3575ZM116.709 34.165L116.462 33.8425C116.417 33.7825 116.432 33.7375 116.499 33.7225C118.037 33.28 118.554 32.1625 118.502 30.67C118.494 30.61 118.524 30.58 118.584 30.58H118.944C119.004 30.58 119.034 30.61 119.034 30.67C119.072 32.3725 118.434 33.6325 116.829 34.2025C116.777 34.2175 116.739 34.2025 116.709 34.165ZM122.229 32.3575L121.974 31.96C121.944 31.9 121.959 31.855 122.027 31.84C124.194 31.2475 125.942 29.95 126.992 28.255C127.022 28.2025 127.067 28.195 127.119 28.2175L127.524 28.4125C127.584 28.435 127.599 28.48 127.562 28.5325C127.059 29.29 126.489 29.935 125.852 30.4825V34.21C125.852 34.27 125.822 34.3 125.762 34.3H125.327C125.267 34.3 125.237 34.27 125.237 34.21L125.244 30.955C124.344 31.6 123.369 32.08 122.349 32.4025C122.297 32.4175 122.259 32.4025 122.229 32.3575ZM131.419 33.9175V28.5475C131.419 28.4875 131.449 28.4575 131.509 28.4575H131.922C131.982 28.4575 132.012 28.4875 132.012 28.54C132.004 29.695 131.997 32.23 131.989 33.2725C132.927 33.0325 133.872 32.1175 134.209 30.9775C134.232 30.91 134.277 30.895 134.329 30.9325L134.652 31.18C134.697 31.21 134.704 31.2475 134.689 31.2925C134.239 32.7025 133.017 33.8275 131.517 34.0075C131.457 34.015 131.419 33.9775 131.419 33.9175ZM128.314 34.1125L127.969 33.8125C127.917 33.7675 127.924 33.7225 127.984 33.685C129.777 32.725 129.724 30.76 129.694 28.66C129.694 28.6 129.732 28.57 129.784 28.57H130.189C130.249 28.57 130.279 28.6 130.279 28.66C130.287 31.0675 130.347 32.92 128.442 34.1275C128.397 34.1575 128.352 34.15 128.314 34.1125ZM135.859 31.09L135.499 30.8425C135.454 30.8125 135.447 30.7675 135.484 30.7225C136.129 29.995 136.579 29.005 136.819 28.09C136.827 28.0375 136.872 28.0075 136.924 28.015L137.322 28.09C137.382 28.105 137.404 28.1425 137.389 28.195C137.299 28.555 137.179 28.915 137.037 29.275H138.574V27.8125C138.574 27.76 138.612 27.7225 138.664 27.7225H139.092C139.144 27.7225 139.182 27.76 139.182 27.8125V29.275H141.724C141.777 29.275 141.814 29.3125 141.814 29.365V29.755C141.814 29.8075 141.777 29.845 141.724 29.845H139.182V31.42H141.364C141.417 31.42 141.454 31.4575 141.454 31.51V31.885C141.454 31.9375 141.417 31.975 141.364 31.975H139.182V33.7H142.159C142.212 33.7 142.249 33.7375 142.249 33.79V34.18C142.249 34.2325 142.212 34.27 142.159 34.27H135.492C135.439 34.27 135.402 34.2325 135.402 34.18V33.79C135.402 33.7375 135.439 33.7 135.492 33.7H138.574V31.975H136.377C136.324 31.975 136.287 31.9375 136.287 31.885V31.51C136.287 31.4575 136.324 31.42 136.377 31.42H138.574V29.845H136.782C136.549 30.31 136.279 30.745 135.987 31.075C135.957 31.1125 135.904 31.12 135.859 31.09ZM143.577 28.9375H146.532C146.517 28.5475 146.502 28.1725 146.494 27.8125C146.494 27.7525 146.524 27.7225 146.584 27.7225L146.974 27.715C147.034 27.715 147.064 27.745 147.064 27.805C147.072 28.165 147.079 28.5475 147.094 28.9375H149.487C149.547 28.9375 149.577 28.9675 149.577 29.0275V29.3725C149.577 29.4325 149.547 29.4625 149.487 29.4625H147.124C147.192 30.4075 147.334 31.3675 147.634 32.2C148.062 31.6225 148.392 30.9625 148.609 30.22C148.624 30.16 148.662 30.145 148.722 30.16L149.044 30.2725C149.097 30.2875 149.119 30.3325 149.097 30.385C148.819 31.255 148.407 32.05 147.852 32.74C147.987 33.0325 148.444 33.88 148.819 33.88C149.164 33.88 149.337 33.2275 149.404 32.5975C149.412 32.5225 149.464 32.5 149.517 32.5525L149.809 32.815C149.847 32.845 149.862 32.8825 149.854 32.9275C149.719 33.9025 149.352 34.5475 148.842 34.5475C148.257 34.5475 147.694 33.6775 147.447 33.1975C146.914 33.7525 146.277 34.21 145.549 34.5475C145.497 34.57 145.459 34.5625 145.422 34.5175L145.144 34.2175C145.099 34.165 145.107 34.12 145.174 34.09C145.969 33.7525 146.659 33.28 147.222 32.6875C146.832 31.72 146.652 30.5725 146.569 29.4625H144.042C144.042 29.8225 144.042 30.1975 144.042 30.5575H145.857C145.917 30.5575 145.947 30.5875 145.947 30.6475C145.962 31.15 145.954 31.84 145.924 32.32C145.879 33.145 145.579 33.58 144.469 33.5575C144.417 33.5575 144.387 33.535 144.372 33.4825L144.244 33.1075C144.222 33.0475 144.252 33.0025 144.327 33.01C145.099 33.0325 145.347 32.8825 145.392 32.305C145.422 31.9225 145.422 31.2925 145.414 31.06H144.042C144.019 32.23 143.922 33.4225 143.419 34.4875C143.397 34.54 143.352 34.555 143.299 34.5325L142.917 34.345C142.864 34.3225 142.849 34.2775 142.879 34.225C143.322 33.34 143.472 32.2825 143.487 30.7C143.494 30.205 143.494 29.5825 143.487 29.0275C143.487 28.9675 143.517 28.9375 143.577 28.9375ZM149.074 28.6075L148.819 28.84C148.774 28.8775 148.729 28.8775 148.692 28.8325C148.429 28.5475 148.077 28.2775 147.724 28.09C147.664 28.0525 147.664 28.0075 147.709 27.9625L147.949 27.745C147.994 27.715 148.032 27.7075 148.077 27.73C148.437 27.925 148.804 28.1875 149.082 28.48C149.119 28.525 149.119 28.57 149.074 28.6075ZM152.276 31.63C152.006 31.63 151.789 31.4275 151.789 31.15C151.789 30.8725 152.006 30.6625 152.276 30.6625C152.554 30.6625 152.771 30.8725 152.771 31.15C152.771 31.4275 152.554 31.63 152.276 31.63ZM154.826 31.5925L154.796 31.285C154.788 31.225 154.826 31.1875 154.886 31.1875C155.028 31.1875 155.178 31.1875 155.328 31.1875C155.516 30.9475 155.703 30.6775 155.898 30.385C155.636 30.0625 155.208 29.68 154.826 29.3425C154.788 29.305 154.781 29.2675 154.811 29.215L154.961 28.945C154.998 28.8925 155.043 28.885 155.088 28.9225C155.163 28.99 155.246 29.0575 155.321 29.1325C155.561 28.765 155.816 28.2325 155.988 27.7525C156.011 27.7 156.048 27.6775 156.101 27.7L156.401 27.82C156.461 27.835 156.476 27.88 156.453 27.9325C156.206 28.4575 155.928 29.02 155.651 29.44C155.831 29.62 155.996 29.8 156.153 29.98C156.386 29.59 156.611 29.185 156.798 28.795C156.821 28.7425 156.866 28.7275 156.918 28.7575L157.181 28.9075C157.226 28.9375 157.241 28.9825 157.211 29.0275C156.783 29.845 156.273 30.6175 155.853 31.18C156.206 31.165 156.551 31.1425 156.866 31.1125C156.821 30.94 156.761 30.7675 156.708 30.6175C156.686 30.5575 156.701 30.52 156.761 30.4975L156.978 30.43C157.031 30.415 157.068 30.4375 157.091 30.49C157.233 30.8875 157.361 31.3675 157.436 31.78C157.443 31.8325 157.421 31.87 157.368 31.885L157.136 31.9675C157.076 31.9825 157.038 31.96 157.023 31.9C157.008 31.78 156.986 31.66 156.963 31.5325C156.791 31.5625 156.596 31.585 156.386 31.6V34.48C156.386 34.54 156.356 34.57 156.296 34.57H155.996C155.936 34.57 155.906 34.54 155.906 34.48V31.6375C155.568 31.66 155.231 31.6825 154.923 31.6825C154.863 31.6825 154.833 31.6525 154.826 31.5925ZM161.546 28.435H157.458C157.398 28.435 157.368 28.405 157.368 28.345V28.075C157.368 28.015 157.398 27.985 157.458 27.985H161.546C161.606 27.985 161.636 28.015 161.636 28.075V28.345C161.636 28.405 161.606 28.435 161.546 28.435ZM157.518 34.39L157.233 34.2175C157.188 34.1875 157.173 34.15 157.196 34.0975C157.616 33.265 157.691 31.945 157.691 30.505C157.691 30.0325 157.683 29.38 157.683 29.14C157.683 29.08 157.713 29.05 157.773 29.05H161.321C161.381 29.05 161.411 29.08 161.411 29.14V30.625C161.411 30.685 161.381 30.715 161.321 30.715H158.178C158.186 32.2375 158.021 33.535 157.638 34.3525C157.616 34.405 157.571 34.42 157.518 34.39ZM158.186 30.28H160.931V29.485H158.178C158.178 29.7025 158.178 30.01 158.186 30.28ZM158.636 34.57H158.396C158.336 34.57 158.306 34.54 158.306 34.48V31.375C158.306 31.315 158.336 31.285 158.396 31.285H161.396C161.456 31.285 161.486 31.315 161.486 31.375V33.715C161.486 34.24 161.433 34.525 160.803 34.5475C160.751 34.5475 160.713 34.525 160.698 34.4725L160.608 34.195C160.593 34.1275 160.623 34.09 160.691 34.09C161.021 34.0825 161.066 33.9775 161.066 33.7V33.025H160.473V34.2475C160.473 34.3075 160.443 34.3375 160.383 34.3375H160.173C160.113 34.3375 160.083 34.3075 160.083 34.2475V33.025H159.618V34.2625C159.618 34.3225 159.588 34.3525 159.528 34.3525H159.318C159.258 34.3525 159.228 34.3225 159.228 34.2625V33.025H158.726V34.48C158.726 34.54 158.696 34.57 158.636 34.57ZM158.726 32.65H159.228V31.675H158.726V32.65ZM159.618 32.65H160.083V31.675H159.618V32.65ZM160.473 32.65H161.066V31.675H160.473V32.65ZM157.233 33.565L156.993 33.625C156.933 33.64 156.896 33.6175 156.888 33.55C156.858 33.1375 156.783 32.665 156.686 32.3125C156.678 32.2525 156.693 32.215 156.753 32.2L156.963 32.155C157.016 32.1475 157.053 32.17 157.068 32.2225C157.173 32.575 157.271 33.055 157.301 33.46C157.308 33.5125 157.286 33.55 157.233 33.565ZM155.126 34.2625L154.841 34.1875C154.788 34.1725 154.766 34.135 154.781 34.075C154.968 33.52 155.081 32.8075 155.118 32.2375C155.126 32.1775 155.156 32.155 155.216 32.155L155.478 32.1925C155.538 32.1925 155.568 32.23 155.561 32.29C155.508 32.8675 155.411 33.6025 155.231 34.2025C155.216 34.255 155.178 34.2775 155.126 34.2625ZM168.663 31.645H166.001L165.993 32.185H168.926C168.986 32.185 169.016 32.215 169.016 32.275V32.5675C169.016 32.6275 168.986 32.6575 168.926 32.6575L166.293 32.6275C166.998 33.175 167.928 33.595 168.993 33.8275C169.061 33.8425 169.076 33.8875 169.046 33.94L168.843 34.2925C168.821 34.3375 168.783 34.3525 168.731 34.3375C167.636 34.045 166.653 33.5125 165.993 32.95L166.008 34.495C166.008 34.555 165.978 34.585 165.918 34.585H165.543C165.483 34.585 165.453 34.555 165.453 34.495L165.468 32.98C164.733 33.6475 163.826 34.105 162.798 34.405C162.746 34.42 162.708 34.405 162.686 34.36L162.476 34.0225C162.446 33.97 162.461 33.925 162.528 33.9025C163.593 33.6175 164.561 33.19 165.198 32.6275L162.551 32.6575C162.491 32.6575 162.461 32.6275 162.461 32.5675V32.275C162.461 32.215 162.491 32.185 162.551 32.185H165.468L165.461 31.645H163.376C163.316 31.645 163.286 31.615 163.286 31.555V29.4325C163.076 29.6575 162.843 29.8825 162.618 30.055C162.573 30.085 162.528 30.0775 162.491 30.025L162.281 29.695C162.251 29.6425 162.266 29.605 162.311 29.5675C162.971 29.1325 163.608 28.435 163.953 27.7375C163.983 27.6925 164.013 27.67 164.066 27.685L164.426 27.7525C164.493 27.7675 164.516 27.8125 164.478 27.865C164.381 28.0525 164.246 28.255 164.103 28.4575H165.723C165.873 28.255 166.008 28.0225 166.121 27.805C166.143 27.76 166.173 27.7375 166.226 27.745L166.631 27.7825C166.698 27.79 166.721 27.835 166.691 27.895C166.586 28.0825 166.451 28.2925 166.323 28.4575H168.588C168.648 28.4575 168.678 28.4875 168.678 28.5475V28.84C168.678 28.9 168.648 28.93 168.588 28.93H166.226V29.4025H168.303C168.363 29.4025 168.393 29.4325 168.393 29.4925V29.74C168.393 29.8 168.363 29.83 168.303 29.83H166.226V30.2875H168.303C168.363 30.2875 168.393 30.3175 168.393 30.3775V30.625C168.393 30.685 168.363 30.715 168.303 30.715H166.226V31.195H168.663C168.723 31.195 168.753 31.225 168.753 31.285V31.555C168.753 31.615 168.723 31.645 168.663 31.645ZM163.818 29.4175H165.731V28.93H163.818V29.4175ZM163.818 30.3025H165.731V29.83H163.818V30.3025ZM163.818 31.195H165.731V30.7075H163.818V31.195ZM173.334 30.7675L172.914 30.865C172.854 30.88 172.817 30.8575 172.809 30.7975C172.742 30.0625 172.562 29.2975 172.284 28.6375C172.262 28.585 172.277 28.54 172.337 28.525L172.734 28.4425C172.794 28.4275 172.832 28.45 172.847 28.5025C173.139 29.17 173.319 29.935 173.409 30.6625C173.417 30.715 173.394 30.7525 173.334 30.7675ZM171.369 34.105L171.054 33.7225C171.009 33.67 171.024 33.625 171.099 33.61C173.972 33.085 175.254 31.3675 175.322 28.5325C175.322 28.4725 175.359 28.4425 175.419 28.45L175.847 28.51C175.907 28.5175 175.937 28.5475 175.929 28.6075C175.779 31.405 174.699 33.4525 171.482 34.1425C171.437 34.1575 171.399 34.1425 171.369 34.105ZM171.459 31.105L171.054 31.2175C170.994 31.2325 170.957 31.2025 170.942 31.1425C170.844 30.3925 170.642 29.65 170.349 28.9975C170.319 28.9375 170.342 28.9 170.409 28.885L170.792 28.8025C170.844 28.7875 170.882 28.81 170.904 28.855C171.204 29.5 171.422 30.2725 171.534 31C171.542 31.06 171.519 31.09 171.459 31.105ZM182.827 30.94V31.3525C182.827 31.4125 182.797 31.4425 182.737 31.4425H177.157C177.097 31.4425 177.067 31.4125 177.067 31.3525V30.94C177.067 30.88 177.097 30.85 177.157 30.85H182.737C182.797 30.85 182.827 30.88 182.827 30.94ZM186.842 33.9175V28.5475C186.842 28.4875 186.872 28.4575 186.932 28.4575H187.344C187.404 28.4575 187.434 28.4875 187.434 28.54C187.427 29.695 187.419 32.23 187.412 33.2725C188.349 33.0325 189.294 32.1175 189.632 30.9775C189.654 30.91 189.699 30.895 189.752 30.9325L190.074 31.18C190.119 31.21 190.127 31.2475 190.112 31.2925C189.662 32.7025 188.439 33.8275 186.939 34.0075C186.879 34.015 186.842 33.9775 186.842 33.9175ZM183.737 34.1125L183.392 33.8125C183.339 33.7675 183.347 33.7225 183.407 33.685C185.199 32.725 185.147 30.76 185.117 28.66C185.117 28.6 185.154 28.57 185.207 28.57H185.612C185.672 28.57 185.702 28.6 185.702 28.66C185.709 31.0675 185.769 32.92 183.864 34.1275C183.819 34.1575 183.774 34.15 183.737 34.1125Z" fill="#D2D3D4"/>
<defs>
<clipPath id="clip0_290_1322">
<rect width="42" height="42" fill="white"/>
</clipPath>
</defs>
</svg>
